<?xml version="1.0" encoding="UTF-8" ?>
<svg version="1.1" width="28" height="28" xmlns="http://www.w3.org/2000/svg" shape-rendering="crispEdges">
<rect x="0" y="0" width="2" height="2" fill="#F5F4EB" />
<rect x="2" y="0" width="2" height="2" fill="#F5F4EB" />
<rect x="4" y="0" width="2" height="2" fill="#F5F4EB" />
<rect x="6" y="0" width="2" height="2" fill="#F5F4EB" />
<rect x="8" y="0" width="2" height="2" fill="#F5F4EB" />
<rect x="10" y="0" width="2" height="2" fill="#F5F4EB" />
<rect x="12" y="0" width="2" height="2" fill="#F5F4EB" />
<rect x="18" y="0" width="2" height="2" fill="#F5F4EB" />
<rect x="20" y="0" width="2" height="2" fill="#000000" />
<rect x="22" y="0" width="2" height="2" fill="#F5F4EB" />
<rect x="24" y="0" width="2" height="2" fill="#F5F4EB" />
<rect x="26" y="0" width="2" height="2" fill="#F5F4EB" />
<rect x="0" y="2" width="2" height="2" fill="#F5F4EB" />
<rect x="2" y="2" width="2" height="2" fill="#000000" />
<rect x="4" y="2" width="2" height="2" fill="#000000" />
<rect x="6" y="2" width="2" height="2" fill="#000000" />
<rect x="8" y="2" width="2" height="2" fill="#000000" />
<rect x="10" y="2" width="2" height="2" fill="#000000" />
<rect x="12" y="2" width="2" height="2" fill="#000000" />
<rect x="18" y="2" width="2" height="2" fill="#F5F4EB" />
<rect x="20" y="2" width="2" height="2" fill="#453E78" />
<rect x="22" y="2" width="2" height="2" fill="#F5F4EB" />
<rect x="24" y="2" width="2" height="2" fill="#F5F4EB" />
<rect x="26" y="2" width="2" height="2" fill="#F5F4EB" />
<rect x="0" y="4" width="2" height="2" fill="#F5F4EB" />
<rect x="2" y="4" width="2" height="2" fill="#453E78" />
<rect x="4" y="4" width="2" height="2" fill="#AFAAB9" />
<rect x="6" y="4" width="2" height="2" fill="#F5F4EB" />
<rect x="8" y="4" width="2" height="2" fill="#F5F4EB" />
<rect x="10" y="4" width="2" height="2" fill="#F5F4EB" />
<rect x="12" y="4" width="2" height="2" fill="#F5F4EB" />
<rect x="16" y="4" width="2" height="2" fill="#F5F4EB" />
<rect x="18" y="4" width="2" height="2" fill="#453E78" />
<rect x="20" y="4" width="2" height="2" fill="#AFAAB9" />
<rect x="22" y="4" width="2" height="2" fill="#F5F4EB" />
<rect x="24" y="4" width="2" height="2" fill="#F5F4EB" />
<rect x="26" y="4" width="2" height="2" fill="#F5F4EB" />
<rect x="2" y="6" width="2" height="2" fill="#AFAAB9" />
<rect x="4" y="6" width="2" height="2" fill="#453E78" />
<rect x="6" y="6" width="2" height="2" fill="#AFAAB9" />
<rect x="8" y="6" width="2" height="2" fill="#F5F4EB" />
<rect x="10" y="6" width="2" height="2" fill="#F5F4EB" />
<rect x="12" y="6" width="2" height="2" fill="#F5F4EB" />
<rect x="14" y="6" width="2" height="2" fill="#F5F4EB" />
<rect x="16" y="6" width="2" height="2" fill="#453E78" />
<rect x="18" y="6" width="2" height="2" fill="#AFAAB9" />
<rect x="20" y="6" width="2" height="2" fill="#F5F4EB" />
<rect x="22" y="6" width="2" height="2" fill="#F5F4EB" />
<rect x="24" y="6" width="2" height="2" fill="#F5F4EB" />
<rect x="26" y="6" width="2" height="2" fill="#F5F4EB" />
<rect x="4" y="8" width="2" height="2" fill="#AFAAB9" />
<rect x="6" y="8" width="2" height="2" fill="#453E78" />
<rect x="8" y="8" width="2" height="2" fill="#F5F4EB" />
<rect x="10" y="8" width="2" height="2" fill="#F5F4EB" />
<rect x="12" y="8" width="2" height="2" fill="#F5F4EB" />
<rect x="14" y="8" width="2" height="2" fill="#F5F4EB" />
<rect x="16" y="8" width="2" height="2" fill="#000000" />
<rect x="18" y="8" width="2" height="2" fill="#000000" />
<rect x="20" y="8" width="2" height="2" fill="#000000" />
<rect x="22" y="8" width="2" height="2" fill="#000000" />
<rect x="24" y="8" width="2" height="2" fill="#000000" />
<rect x="26" y="8" width="2" height="2" fill="#000000" />
<rect x="4" y="10" width="2" height="2" fill="#F5F4EB" />
<rect x="6" y="10" width="2" height="2" fill="#000000" />
<rect x="8" y="10" width="2" height="2" fill="#F5F4EB" />
<rect x="10" y="10" width="2" height="2" fill="#F5F4EB" />
<rect x="12" y="10" width="2" height="2" fill="#F5F4EB" />
<rect x="14" y="10" width="2" height="2" fill="#F5F4EB" />
<rect x="16" y="10" width="2" height="2" fill="#AFAAB9" />
<rect x="18" y="10" width="2" height="2" fill="#AFAAB9" />
<rect x="20" y="10" width="2" height="2" fill="#AFAAB9" />
<rect x="22" y="10" width="2" height="2" fill="#AFAAB9" />
<rect x="24" y="10" width="2" height="2" fill="#AFAAB9" />
<rect x="26" y="10" width="2" height="2" fill="#AFAAB9" />
<rect x="4" y="14" width="2" height="2" fill="#F5F4EB" />
<rect x="6" y="14" width="2" height="2" fill="#000000" />
<rect x="8" y="14" width="2" height="2" fill="#F5F4EB" />
<rect x="10" y="14" width="2" height="2" fill="#F5F4EB" />
<rect x="12" y="14" width="2" height="2" fill="#F5F4EB" />
<rect x="2" y="16" width="2" height="2" fill="#F5F4EB" />
<rect x="4" y="16" width="2" height="2" fill="#000000" />
<rect x="6" y="16" width="2" height="2" fill="#AFAAB9" />
<rect x="8" y="16" width="2" height="2" fill="#F5F4EB" />
<rect x="10" y="16" width="2" height="2" fill="#F5F4EB" />
<rect x="12" y="16" width="2" height="2" fill="#F5F4EB" />
<rect x="0" y="18" width="2" height="2" fill="#F5F4EB" />
<rect x="2" y="18" width="2" height="2" fill="#453E78" />
<rect x="4" y="18" width="2" height="2" fill="#AFAAB9" />
<rect x="6" y="18" width="2" height="2" fill="#F5F4EB" />
<rect x="8" y="18" width="2" height="2" fill="#F5F4EB" />
<rect x="10" y="18" width="2" height="2" fill="#F5F4EB" />
<rect x="12" y="18" width="2" height="2" fill="#F5F4EB" />
<rect x="2" y="20" width="2" height="2" fill="#F5F4EB" />
<rect x="4" y="20" width="2" height="2" fill="#000000" />
<rect x="6" y="20" width="2" height="2" fill="#AFAAB9" />
<rect x="8" y="20" width="2" height="2" fill="#F5F4EB" />
<rect x="10" y="20" width="2" height="2" fill="#F5F4EB" />
<rect x="12" y="20" width="2" height="2" fill="#F5F4EB" />
<rect x="4" y="22" width="2" height="2" fill="#F5F4EB" />
<rect x="6" y="22" width="2" height="2" fill="#000000" />
<rect x="8" y="22" width="2" height="2" fill="#F5F4EB" />
<rect x="10" y="22" width="2" height="2" fill="#F5F4EB" />
<rect x="12" y="22" width="2" height="2" fill="#F5F4EB" />
</svg>