<svg xmlns="http://www.w3.org/2000/svg" width="28" height="28" shape-rendering="crispEdges" xmlns:v="https://vecta.io/nano"><style><![CDATA[.B{fill:#f5f4eb}.C{fill:#afaab9}.D{fill:#453e78}]]></style><g class="B"><path d="M0 0h2v2H0z"/><path d="M2 0h2v2H2z"/><path d="M4 0h2v2H4z"/><path d="M6 0h2v2H6z"/><path d="M8 0h2v2H8z"/><path d="M10 0h2v2h-2z"/><path d="M12 0h2v2h-2zm6 0h2v2h-2z"/></g><path d="M20 0h2v2h-2z"/><g class="B"><path d="M22 0h2v2h-2z"/><path d="M24 0h2v2h-2z"/><path d="M26 0h2v2h-2zM0 2h2v2H0z"/></g><path d="M2 2h2v2H2z"/><path d="M4 2h2v2H4z"/><path d="M6 2h2v2H6z"/><path d="M8 2h2v2H8z"/><path d="M10 2h2v2h-2z"/><path d="M12 2h2v2h-2z"/><path d="M18 2h2v2h-2z" class="B"/><path d="M20 2h2v2h-2z" class="D"/><g class="B"><path d="M22 2h2v2h-2z"/><path d="M24 2h2v2h-2z"/><path d="M26 2h2v2h-2zM0 4h2v2H0z"/></g><path d="M2 4h2v2H2z" class="D"/><path d="M4 4h2v2H4z" class="C"/><g class="B"><path d="M6 4h2v2H6z"/><path d="M8 4h2v2H8z"/><path d="M10 4h2v2h-2z"/><path d="M12 4h2v2h-2zm4 0h2v2h-2z"/></g><path d="M18 4h2v2h-2z" class="D"/><path d="M20 4h2v2h-2z" class="C"/><g class="B"><path d="M22 4h2v2h-2z"/><path d="M24 4h2v2h-2z"/><path d="M26 4h2v2h-2z"/></g><path d="M2 6h2v2H2z" class="C"/><path d="M4 6h2v2H4z" class="D"/><path d="M6 6h2v2H6z" class="C"/><g class="B"><path d="M8 6h2v2H8z"/><path d="M10 6h2v2h-2z"/><path d="M12 6h2v2h-2z"/><path d="M14 6h2v2h-2z"/></g><path d="M16 6h2v2h-2z" class="D"/><path d="M18 6h2v2h-2z" class="C"/><g class="B"><path d="M20 6h2v2h-2z"/><path d="M22 6h2v2h-2z"/><path d="M24 6h2v2h-2z"/><path d="M26 6h2v2h-2z"/></g><path d="M4 8h2v2H4z" class="C"/><path d="M6 8h2v2H6z" class="D"/><g class="B"><path d="M8 8h2v2H8z"/><path d="M10 8h2v2h-2z"/><path d="M12 8h2v2h-2z"/><path d="M14 8h2v2h-2z"/></g><path d="M16 8h2v2h-2z"/><path d="M18 8h2v2h-2z"/><path d="M20 8h2v2h-2z"/><path d="M22 8h2v2h-2z"/><path d="M24 8h2v2h-2z"/><path d="M26 8h2v2h-2z"/><path d="M4 10h2v2H4z" class="B"/><path d="M6 10h2v2H6z"/><g class="B"><path d="M8 10h2v2H8z"/><path d="M10 10h2v2h-2z"/><path d="M12 10h2v2h-2z"/><path d="M14 10h2v2h-2z"/></g><g class="C"><path d="M16 10h2v2h-2z"/><path d="M18 10h2v2h-2z"/><path d="M20 10h2v2h-2z"/><path d="M22 10h2v2h-2z"/><path d="M24 10h2v2h-2z"/><path d="M26 10h2v2h-2z"/></g><path d="M4 14h2v2H4z" class="B"/><path d="M6 14h2v2H6z"/><g class="B"><path d="M8 14h2v2H8z"/><path d="M10 14h2v2h-2z"/><path d="M12 14h2v2h-2zM2 16h2v2H2z"/></g><path d="M4 16h2v2H4z"/><path d="M6 16h2v2H6z" class="C"/><g class="B"><path d="M8 16h2v2H8z"/><path d="M10 16h2v2h-2z"/><path d="M12 16h2v2h-2zM0 18h2v2H0z"/></g><path d="M2 18h2v2H2z" class="D"/><path d="M4 18h2v2H4z" class="C"/><g class="B"><path d="M6 18h2v2H6z"/><path d="M8 18h2v2H8z"/><path d="M10 18h2v2h-2z"/><path d="M12 18h2v2h-2zM2 20h2v2H2z"/></g><path d="M4 20h2v2H4z"/><path d="M6 20h2v2H6z" class="C"/><g class="B"><path d="M8 20h2v2H8z"/><path d="M10 20h2v2h-2z"/><path d="M12 20h2v2h-2zm-8 2h2v2H4z"/></g><path d="M6 22h2v2H6z"/><g class="B"><path d="M8 22h2v2H8z"/><path d="M10 22h2v2h-2z"/><path d="M12 22h2v2h-2z"/></g></svg>