<svg xmlns="http://www.w3.org/2000/svg" width="32" height="32" shape-rendering="crispEdges" xmlns:v="https://vecta.io/nano"><style><![CDATA[.B{fill:#f5f4eb}.C{fill:#453e78}.D{fill:#46af45}.E{fill:#a1d685}.F{fill:#216c4b}.G{fill:#afaab9}]]></style><g class="B"><path d="M6 0h2v2H6z"/><path d="M8 0h2v2H8z"/><path d="M10 0h2v2h-2z"/><path d="M12 0h2v2h-2z"/><path d="M14 0h2v2h-2z"/><path d="M16 0h2v2h-2z"/><path d="M18 0h2v2h-2z"/><path d="M20 0h2v2h-2z"/><path d="M22 0h2v2h-2z"/><path d="M24 0h2v2h-2zM4 2h2v2H4z"/></g><path d="M6 2h2v2H6z" class="C"/><path d="M8 2h2v2H8z"/><path d="M10 2h2v2h-2z"/><path d="M12 2h2v2h-2z"/><path d="M14 2h2v2h-2z"/><path d="M16 2h2v2h-2z"/><path d="M18 2h2v2h-2z"/><path d="M20 2h2v2h-2z"/><path d="M22 2h2v2h-2z"/><path d="M24 2h2v2h-2z" class="C"/><path d="M26 2h2v2h-2zM2 4h2v2H2z" class="B"/><path d="M4 4h2v2H4z" class="C"/><g class="E"><path d="M6 4h2v2H6z"/><path d="M8 4h2v2H8z"/><path d="M10 4h2v2h-2z"/><path d="M12 4h2v2h-2z"/><path d="M14 4h2v2h-2z"/><path d="M16 4h2v2h-2z"/><path d="M18 4h2v2h-2z"/><path d="M20 4h2v2h-2z"/><path d="M22 4h2v2h-2z"/><path d="M24 4h2v2h-2z"/></g><path d="M26 4h2v2h-2z" class="C"/><path d="M28 4h2v2h-2zM0 6h2v2H0z" class="B"/><path d="M2 6h2v2H2z" class="C"/><path d="M4 6h2v2H4z" class="E"/><g class="D"><path d="M6 6h2v2H6z"/><path d="M8 6h2v2H8z"/><path d="M10 6h2v2h-2z"/><path d="M12 6h2v2h-2z"/><path d="M14 6h2v2h-2z"/><path d="M16 6h2v2h-2z"/><path d="M18 6h2v2h-2z"/><path d="M20 6h2v2h-2z"/><path d="M22 6h2v2h-2z"/><path d="M24 6h2v2h-2z"/></g><path d="M26 6h2v2h-2z" class="E"/><path d="M28 6h2v2h-2z" class="C"/><path d="M30 6h2v2h-2zM0 8h2v2H0z" class="B"/><path d="M2 8h2v2H2z"/><g class="D"><path d="M4 8h2v2H4z"/><path d="M6 8h2v2H6z"/><path d="M8 8h2v2H8z"/><path d="M10 8h2v2h-2z"/><path d="M12 8h2v2h-2z"/><path d="M14 8h2v2h-2z"/><path d="M16 8h2v2h-2z"/><path d="M18 8h2v2h-2z"/><path d="M20 8h2v2h-2z"/><path d="M22 8h2v2h-2z"/><path d="M24 8h2v2h-2z"/><path d="M26 8h2v2h-2z"/></g><path d="M28 8h2v2h-2z"/><path d="M30 8h2v2h-2zM0 10h2v2H0z" class="B"/><path d="M2 10h2v2H2z"/><g class="D"><path d="M4 10h2v2H4z"/><path d="M6 10h2v2H6z"/><path d="M8 10h2v2H8z"/><path d="M10 10h2v2h-2z"/><path d="M12 10h2v2h-2z"/><path d="M14 10h2v2h-2z"/><path d="M16 10h2v2h-2z"/><path d="M18 10h2v2h-2z"/><path d="M20 10h2v2h-2z"/><path d="M22 10h2v2h-2z"/><path d="M24 10h2v2h-2z"/><path d="M26 10h2v2h-2z"/></g><path d="M28 10h2v2h-2z"/><path d="M30 10h2v2h-2zM0 12h2v2H0z" class="B"/><path d="M2 12h2v2H2z"/><g class="D"><path d="M4 12h2v2H4z"/><path d="M6 12h2v2H6z"/><path d="M8 12h2v2H8z"/><path d="M10 12h2v2h-2z"/><path d="M12 12h2v2h-2z"/><path d="M14 12h2v2h-2z"/><path d="M16 12h2v2h-2z"/><path d="M18 12h2v2h-2z"/><path d="M20 12h2v2h-2z"/><path d="M22 12h2v2h-2z"/><path d="M24 12h2v2h-2z"/><path d="M26 12h2v2h-2z"/></g><path d="M28 12h2v2h-2z"/><path d="M30 12h2v2h-2zM0 14h2v2H0z" class="B"/><path d="M2 14h2v2H2z"/><g class="D"><path d="M4 14h2v2H4z"/><path d="M6 14h2v2H6z"/><path d="M8 14h2v2H8z"/><path d="M10 14h2v2h-2z"/><path d="M12 14h2v2h-2z"/><path d="M14 14h2v2h-2z"/><path d="M16 14h2v2h-2z"/><path d="M18 14h2v2h-2z"/><path d="M20 14h2v2h-2z"/><path d="M22 14h2v2h-2z"/><path d="M24 14h2v2h-2z"/><path d="M26 14h2v2h-2z"/></g><path d="M28 14h2v2h-2z"/><path d="M30 14h2v2h-2zM0 16h2v2H0z" class="B"/><path d="M2 16h2v2H2z"/><g class="D"><path d="M4 16h2v2H4z"/><path d="M6 16h2v2H6z"/><path d="M8 16h2v2H8z"/><path d="M10 16h2v2h-2z"/><path d="M12 16h2v2h-2z"/><path d="M14 16h2v2h-2z"/><path d="M16 16h2v2h-2z"/><path d="M18 16h2v2h-2z"/><path d="M20 16h2v2h-2z"/><path d="M22 16h2v2h-2z"/><path d="M24 16h2v2h-2z"/><path d="M26 16h2v2h-2z"/></g><path d="M28 16h2v2h-2z"/><path d="M30 16h2v2h-2zM0 18h2v2H0z" class="B"/><path d="M2 18h2v2H2z"/><g class="D"><path d="M4 18h2v2H4z"/><path d="M6 18h2v2H6z"/><path d="M8 18h2v2H8z"/><path d="M10 18h2v2h-2z"/><path d="M12 18h2v2h-2z"/><path d="M14 18h2v2h-2z"/><path d="M16 18h2v2h-2z"/><path d="M18 18h2v2h-2z"/><path d="M20 18h2v2h-2z"/><path d="M22 18h2v2h-2z"/><path d="M24 18h2v2h-2z"/><path d="M26 18h2v2h-2z"/></g><path d="M28 18h2v2h-2z"/><path d="M30 18h2v2h-2zM0 20h2v2H0z" class="B"/><path d="M2 20h2v2H2z"/><g class="D"><path d="M4 20h2v2H4z"/><path d="M6 20h2v2H6z"/><path d="M8 20h2v2H8z"/><path d="M10 20h2v2h-2z"/><path d="M12 20h2v2h-2z"/><path d="M14 20h2v2h-2z"/><path d="M16 20h2v2h-2z"/><path d="M18 20h2v2h-2z"/><path d="M20 20h2v2h-2z"/><path d="M22 20h2v2h-2z"/><path d="M24 20h2v2h-2z"/><path d="M26 20h2v2h-2z"/></g><path d="M28 20h2v2h-2z"/><path d="M30 20h2v2h-2zM0 22h2v2H0z" class="B"/><path d="M2 22h2v2H2z"/><g class="D"><path d="M4 22h2v2H4z"/><path d="M6 22h2v2H6z"/><path d="M8 22h2v2H8z"/><path d="M10 22h2v2h-2z"/><path d="M12 22h2v2h-2z"/><path d="M14 22h2v2h-2z"/><path d="M16 22h2v2h-2z"/><path d="M18 22h2v2h-2z"/><path d="M20 22h2v2h-2z"/><path d="M22 22h2v2h-2z"/><path d="M24 22h2v2h-2z"/><path d="M26 22h2v2h-2z"/></g><path d="M28 22h2v2h-2z"/><path d="M30 22h2v2h-2zM0 24h2v2H0z" class="B"/><path d="M2 24h2v2H2z" class="C"/><path d="M4 24h2v2H4z" class="F"/><g class="D"><path d="M6 24h2v2H6z"/><path d="M8 24h2v2H8z"/><path d="M10 24h2v2h-2z"/><path d="M12 24h2v2h-2z"/><path d="M14 24h2v2h-2z"/><path d="M16 24h2v2h-2z"/><path d="M18 24h2v2h-2z"/><path d="M20 24h2v2h-2z"/><path d="M22 24h2v2h-2z"/><path d="M24 24h2v2h-2z"/></g><path d="M26 24h2v2h-2z" class="F"/><path d="M28 24h2v2h-2z" class="C"/><path d="M30 24h2v2h-2z" class="B"/><path d="M2 26h2v2H2z" class="G"/><path d="M4 26h2v2H4z" class="C"/><g class="F"><path d="M6 26h2v2H6z"/><path d="M8 26h2v2H8z"/><path d="M10 26h2v2h-2z"/><path d="M12 26h2v2h-2z"/><path d="M14 26h2v2h-2z"/><path d="M16 26h2v2h-2z"/><path d="M18 26h2v2h-2z"/><path d="M20 26h2v2h-2z"/><path d="M22 26h2v2h-2z"/><path d="M24 26h2v2h-2z"/></g><path d="M26 26h2v2h-2z" class="C"/><path d="M28 26h2v2h-2zM4 28h2v2H4z" class="G"/><path d="M6 28h2v2H6z" class="C"/><path d="M8 28h2v2H8z"/><path d="M10 28h2v2h-2z"/><path d="M12 28h2v2h-2z"/><path d="M14 28h2v2h-2z"/><path d="M16 28h2v2h-2z"/><path d="M18 28h2v2h-2z"/><path d="M20 28h2v2h-2z"/><path d="M22 28h2v2h-2z"/><path d="M24 28h2v2h-2z" class="C"/><g class="G"><path d="M26 28h2v2h-2zM6 30h2v2H6z"/><path d="M8 30h2v2H8z"/><path d="M10 30h2v2h-2z"/><path d="M12 30h2v2h-2z"/><path d="M14 30h2v2h-2z"/><path d="M16 30h2v2h-2z"/><path d="M18 30h2v2h-2z"/><path d="M20 30h2v2h-2z"/><path d="M22 30h2v2h-2z"/><path d="M24 30h2v2h-2z"/></g></svg>