<svg xmlns="http://www.w3.org/2000/svg" width="96" height="48" shape-rendering="crispEdges" xmlns:v="https://vecta.io/nano"><style><![CDATA[.B{fill:#f5f4eb}.C{fill:#453e78}.D{fill:#afaab9}]]></style><g class="B"><path d="M18 0h2v2h-2z"/><path d="M20 0h2v2h-2z"/><path d="M22 0h2v2h-2z"/><path d="M24 0h2v2h-2z"/><path d="M26 0h2v2h-2z"/><path d="M28 0h2v2h-2zm38 0h2v2h-2z"/><path d="M68 0h2v2h-2z"/><path d="M70 0h2v2h-2z"/><path d="M72 0h2v2h-2z"/><path d="M74 0h2v2h-2z"/><path d="M76 0h2v2h-2zM14 2h2v2h-2z"/><path d="M16 2h2v2h-2z"/></g><path d="M18 2h2v2h-2z"/><path d="M20 2h2v2h-2z"/><path d="M22 2h2v2h-2z"/><path d="M24 2h2v2h-2z"/><path d="M26 2h2v2h-2z"/><path d="M28 2h2v2h-2z"/><g class="B"><path d="M30 2h2v2h-2z"/><path d="M32 2h2v2h-2zm30 0h2v2h-2z"/><path d="M64 2h2v2h-2z"/></g><path d="M66 2h2v2h-2z"/><path d="M68 2h2v2h-2z"/><path d="M70 2h2v2h-2z"/><path d="M72 2h2v2h-2z"/><path d="M74 2h2v2h-2z"/><path d="M76 2h2v2h-2z"/><g class="B"><path d="M78 2h2v2h-2z"/><path d="M80 2h2v2h-2zM10 4h2v2h-2z"/><path d="M12 4h2v2h-2z"/></g><path d="M14 4h2v2h-2z" class="C"/><path d="M16 4h2v2h-2z"/><g class="B"><path d="M18 4h2v2h-2z"/><path d="M20 4h2v2h-2z"/><path d="M22 4h2v2h-2z"/><path d="M24 4h2v2h-2z"/><path d="M26 4h2v2h-2z"/><path d="M28 4h2v2h-2z"/></g><path d="M30 4h2v2h-2z"/><path d="M32 4h2v2h-2z" class="C"/><g class="B"><path d="M34 4h2v2h-2z"/><path d="M36 4h2v2h-2zm22 0h2v2h-2z"/><path d="M60 4h2v2h-2z"/></g><path d="M62 4h2v2h-2z" class="C"/><path d="M64 4h2v2h-2z"/><g class="B"><path d="M66 4h2v2h-2z"/><path d="M68 4h2v2h-2z"/><path d="M70 4h2v2h-2z"/><path d="M72 4h2v2h-2z"/><path d="M74 4h2v2h-2z"/><path d="M76 4h2v2h-2z"/></g><path d="M78 4h2v2h-2z"/><path d="M80 4h2v2h-2z" class="C"/><g class="B"><path d="M82 4h2v2h-2z"/><path d="M84 4h2v2h-2zM8 6h2v2H8z"/></g><path d="M10 6h2v2h-2z"/><path d="M12 6h2v2h-2z" class="C"/><g class="B"><path d="M14 6h2v2h-2z"/><path d="M16 6h2v2h-2zm14 0h2v2h-2z"/><path d="M32 6h2v2h-2z"/></g><path d="M34 6h2v2h-2z" class="C"/><path d="M36 6h2v2h-2z"/><path d="M38 6h2v2h-2zm18 0h2v2h-2z" class="B"/><path d="M58 6h2v2h-2z"/><path d="M60 6h2v2h-2z" class="C"/><g class="B"><path d="M62 6h2v2h-2z"/><path d="M64 6h2v2h-2zm14 0h2v2h-2z"/><path d="M80 6h2v2h-2z"/></g><path d="M82 6h2v2h-2z" class="C"/><path d="M84 6h2v2h-2z"/><path d="M86 6h2v2h-2zM6 8h2v2H6z" class="B"/><path d="M8 8h2v2H8z"/><g class="B"><path d="M10 8h2v2h-2z"/><path d="M12 8h2v2h-2zm22 0h2v2h-2z"/><path d="M36 8h2v2h-2z"/></g><path d="M38 8h2v2h-2z"/><path d="M40 8h2v2h-2zm14 0h2v2h-2z" class="B"/><path d="M56 8h2v2h-2z"/><g class="B"><path d="M58 8h2v2h-2z"/><path d="M60 8h2v2h-2zm22 0h2v2h-2z"/><path d="M84 8h2v2h-2z"/></g><path d="M86 8h2v2h-2z"/><path d="M88 8h2v2h-2zM4 10h2v2H4z" class="B"/><path d="M6 10h2v2H6z"/><path d="M8 10h2v2H8zm30 0h2v2h-2z" class="B"/><path d="M40 10h2v2h-2z"/><path d="M42 10h2v2h-2zm10 0h2v2h-2z" class="B"/><path d="M54 10h2v2h-2z"/><path d="M56 10h2v2h-2zm30 0h2v2h-2z" class="B"/><path d="M88 10h2v2h-2z"/><path d="M90 10h2v2h-2zM4 12h2v2H4z" class="B"/><path d="M6 12h2v2H6z" class="C"/><path d="M8 12h2v2H8zm30 0h2v2h-2z" class="B"/><path d="M40 12h2v2h-2z" class="C"/><path d="M42 12h2v2h-2zm10 0h2v2h-2z" class="B"/><path d="M54 12h2v2h-2z" class="C"/><path d="M56 12h2v2h-2zm30 0h2v2h-2z" class="B"/><path d="M88 12h2v2h-2z" class="C"/><path d="M90 12h2v2h-2zM2 14h2v2H2z" class="B"/><path d="M4 14h2v2H4z" class="C"/><path d="M6 14h2v2H6zm34 0h2v2h-2z" class="B"/><path d="M42 14h2v2h-2z" class="C"/><path d="M44 14h2v2h-2zm6 0h2v2h-2z" class="B"/><path d="M52 14h2v2h-2z" class="C"/><path d="M54 14h2v2h-2zm34 0h2v2h-2z" class="B"/><path d="M90 14h2v2h-2z" class="C"/><path d="M92 14h2v2h-2zM2 16h2v2H2z" class="B"/><path d="M4 16h2v2H4z"/><path d="M6 16h2v2H6zm34 0h2v2h-2z" class="B"/><path d="M42 16h2v2h-2z"/><path d="M44 16h2v2h-2zm6 0h2v2h-2z" class="B"/><path d="M52 16h2v2h-2z"/><path d="M54 16h2v2h-2zm34 0h2v2h-2z" class="B"/><path d="M90 16h2v2h-2z"/><path d="M92 16h2v2h-2zM0 18h2v2H0z" class="B"/><path d="M2 18h2v2H2z"/><path d="M4 18h2v2H4zm38 0h2v2h-2z" class="B"/><path d="M44 18h2v2h-2z"/><g class="B"><path d="M46 18h2v2h-2z"/><path d="M48 18h2v2h-2z"/></g><path d="M50 18h2v2h-2z"/><path d="M52 18h2v2h-2zm38 0h2v2h-2z" class="B"/><path d="M92 18h2v2h-2z"/><path d="M94 18h2v2h-2zM0 20h2v2H0z" class="B"/><path d="M2 20h2v2H2z"/><path d="M4 20h2v2H4zm38 0h2v2h-2z" class="B"/><path d="M44 20h2v2h-2z"/><g class="B"><path d="M46 20h2v2h-2z"/><path d="M48 20h2v2h-2z"/></g><path d="M50 20h2v2h-2z"/><path d="M52 20h2v2h-2zm38 0h2v2h-2z" class="B"/><path d="M92 20h2v2h-2z"/><path d="M94 20h2v2h-2zM0 22h2v2H0z" class="B"/><path d="M2 22h2v2H2z"/><path d="M4 22h2v2H4zm38 0h2v2h-2z" class="B"/><path d="M44 22h2v2h-2z"/><g class="B"><path d="M46 22h2v2h-2z"/><path d="M48 22h2v2h-2z"/></g><path d="M50 22h2v2h-2z"/><path d="M52 22h2v2h-2zm38 0h2v2h-2z" class="B"/><path d="M92 22h2v2h-2z"/><path d="M94 22h2v2h-2zM0 24h2v2H0z" class="B"/><path d="M2 24h2v2H2z"/><path d="M4 24h2v2H4zm38 0h2v2h-2z" class="B"/><path d="M44 24h2v2h-2z"/><g class="B"><path d="M46 24h2v2h-2z"/><path d="M48 24h2v2h-2z"/></g><path d="M50 24h2v2h-2z"/><path d="M52 24h2v2h-2zm38 0h2v2h-2z" class="B"/><path d="M92 24h2v2h-2z"/><path d="M94 24h2v2h-2zM0 26h2v2H0z" class="B"/><path d="M2 26h2v2H2z"/><path d="M4 26h2v2H4zm38 0h2v2h-2z" class="B"/><path d="M44 26h2v2h-2z"/><g class="B"><path d="M46 26h2v2h-2z"/><path d="M48 26h2v2h-2z"/></g><path d="M50 26h2v2h-2z"/><path d="M52 26h2v2h-2zm38 0h2v2h-2z" class="B"/><path d="M92 26h2v2h-2z"/><path d="M94 26h2v2h-2zM0 28h2v2H0z" class="B"/><path d="M2 28h2v2H2z"/><path d="M4 28h2v2H4zm38 0h2v2h-2z" class="B"/><path d="M44 28h2v2h-2z"/><g class="B"><path d="M46 28h2v2h-2z"/><path d="M48 28h2v2h-2z"/></g><path d="M50 28h2v2h-2z"/><path d="M52 28h2v2h-2zm38 0h2v2h-2z" class="B"/><path d="M92 28h2v2h-2z"/><path d="M94 28h2v2h-2z" class="B"/><path d="M2 30h2v2H2z" class="D"/><path d="M4 30h2v2H4z"/><path d="M6 30h2v2H6zm34 0h2v2h-2z" class="B"/><path d="M42 30h2v2h-2z"/><path d="M44 30h2v2h-2z" class="D"/><path d="M50 30h2v2h-2z" class="B"/><path d="M52 30h2v2h-2z"/><path d="M54 30h2v2h-2zm34 0h2v2h-2z" class="B"/><path d="M90 30h2v2h-2z"/><path d="M92 30h2v2h-2zM2 32h2v2H2z" class="B"/><path d="M4 32h2v2H4z" class="C"/><path d="M6 32h2v2H6zm34 0h2v2h-2z" class="B"/><path d="M42 32h2v2h-2z" class="C"/><path d="M44 32h2v2h-2zm6 0h2v2h-2z" class="B"/><path d="M52 32h2v2h-2z" class="C"/><path d="M54 32h2v2h-2zm34 0h2v2h-2z" class="B"/><path d="M90 32h2v2h-2z" class="C"/><path d="M92 32h2v2h-2z" class="B"/><path d="M4 34h2v2H4z" class="D"/><path d="M6 34h2v2H6z" class="C"/><path d="M8 34h2v2H8zm30 0h2v2h-2z" class="B"/><path d="M40 34h2v2h-2z" class="C"/><path d="M42 34h2v2h-2z" class="D"/><path d="M52 34h2v2h-2z" class="B"/><path d="M54 34h2v2h-2z" class="C"/><path d="M56 34h2v2h-2zm30 0h2v2h-2z" class="B"/><path d="M88 34h2v2h-2z" class="C"/><path d="M90 34h2v2h-2zM4 36h2v2H4z" class="B"/><path d="M6 36h2v2H6z"/><path d="M8 36h2v2H8zm30 0h2v2h-2z" class="B"/><path d="M40 36h2v2h-2z"/><path d="M42 36h2v2h-2zm10 0h2v2h-2z" class="B"/><path d="M54 36h2v2h-2z"/><path d="M56 36h2v2h-2zm30 0h2v2h-2z" class="B"/><path d="M88 36h2v2h-2z"/><path d="M90 36h2v2h-2z" class="B"/><path d="M6 38h2v2H6z" class="D"/><path d="M8 38h2v2H8z"/><g class="B"><path d="M10 38h2v2h-2z"/><path d="M12 38h2v2h-2zm22 0h2v2h-2z"/><path d="M36 38h2v2h-2z"/></g><path d="M38 38h2v2h-2z"/><path d="M40 38h2v2h-2z" class="D"/><path d="M54 38h2v2h-2z" class="B"/><path d="M56 38h2v2h-2z"/><g class="B"><path d="M58 38h2v2h-2z"/><path d="M60 38h2v2h-2zm22 0h2v2h-2z"/><path d="M84 38h2v2h-2z"/></g><path d="M86 38h2v2h-2z"/><path d="M88 38h2v2h-2z" class="B"/><path d="M8 40h2v2H8z" class="D"/><path d="M10 40h2v2h-2z"/><path d="M12 40h2v2h-2z" class="C"/><g class="B"><path d="M14 40h2v2h-2z"/><path d="M16 40h2v2h-2zm14 0h2v2h-2z"/><path d="M32 40h2v2h-2z"/></g><path d="M34 40h2v2h-2z" class="C"/><path d="M36 40h2v2h-2z"/><path d="M38 40h2v2h-2z" class="D"/><path d="M56 40h2v2h-2z" class="B"/><path d="M58 40h2v2h-2z"/><path d="M60 40h2v2h-2z" class="C"/><g class="B"><path d="M62 40h2v2h-2z"/><path d="M64 40h2v2h-2zm14 0h2v2h-2z"/><path d="M80 40h2v2h-2z"/></g><path d="M82 40h2v2h-2z" class="C"/><path d="M84 40h2v2h-2z"/><path d="M86 40h2v2h-2z" class="B"/><g class="D"><path d="M10 42h2v2h-2z"/><path d="M12 42h2v2h-2z"/></g><path d="M14 42h2v2h-2z" class="C"/><path d="M16 42h2v2h-2z"/><g class="B"><path d="M18 42h2v2h-2z"/><path d="M20 42h2v2h-2z"/><path d="M22 42h2v2h-2z"/><path d="M24 42h2v2h-2z"/><path d="M26 42h2v2h-2z"/><path d="M28 42h2v2h-2z"/></g><path d="M30 42h2v2h-2z"/><path d="M32 42h2v2h-2z" class="C"/><g class="D"><path d="M34 42h2v2h-2z"/><path d="M36 42h2v2h-2z"/></g><g class="B"><path d="M58 42h2v2h-2z"/><path d="M60 42h2v2h-2z"/></g><path d="M62 42h2v2h-2z" class="C"/><path d="M64 42h2v2h-2z"/><g class="B"><path d="M66 42h2v2h-2z"/><path d="M68 42h2v2h-2z"/><path d="M70 42h2v2h-2z"/><path d="M72 42h2v2h-2z"/><path d="M74 42h2v2h-2z"/><path d="M76 42h2v2h-2z"/></g><path d="M78 42h2v2h-2z"/><path d="M80 42h2v2h-2z" class="C"/><g class="B"><path d="M82 42h2v2h-2z"/><path d="M84 42h2v2h-2z"/></g><g class="D"><path d="M14 44h2v2h-2z"/><path d="M16 44h2v2h-2z"/></g><path d="M18 44h2v2h-2z"/><path d="M20 44h2v2h-2z"/><path d="M22 44h2v2h-2z"/><path d="M24 44h2v2h-2z"/><path d="M26 44h2v2h-2z"/><path d="M28 44h2v2h-2z"/><g class="D"><path d="M30 44h2v2h-2z"/><path d="M32 44h2v2h-2z"/></g><g class="B"><path d="M62 44h2v2h-2z"/><path d="M64 44h2v2h-2z"/></g><path d="M66 44h2v2h-2z"/><path d="M68 44h2v2h-2z"/><path d="M70 44h2v2h-2z"/><path d="M72 44h2v2h-2z"/><path d="M74 44h2v2h-2z"/><path d="M76 44h2v2h-2z"/><g class="B"><path d="M78 44h2v2h-2z"/><path d="M80 44h2v2h-2z"/></g><g class="D"><path d="M18 46h2v2h-2z"/><path d="M20 46h2v2h-2z"/><path d="M22 46h2v2h-2z"/><path d="M24 46h2v2h-2z"/><path d="M26 46h2v2h-2z"/><path d="M28 46h2v2h-2z"/></g><g class="B"><path d="M66 46h2v2h-2z"/><path d="M68 46h2v2h-2z"/><path d="M70 46h2v2h-2z"/><path d="M72 46h2v2h-2z"/><path d="M74 46h2v2h-2z"/><path d="M76 46h2v2h-2z"/></g></svg>