<svg xmlns="http://www.w3.org/2000/svg" width="16" height="16" shape-rendering="crispEdges" xmlns:v="https://vecta.io/nano"><style><![CDATA[.B{fill:#f5f4eb}.C{fill:#dc534b}.D{fill:#833129}]]></style><g class="B"><path d="M0 0h2v2H0z"/><path d="M2 0h2v2H2z"/><path d="M4 0h2v2H4z"/><path d="M6 0h2v2H6z"/><path d="M8 0h2v2H8z"/><path d="M10 0h2v2h-2z"/><path d="M12 0h2v2h-2zM0 2h2v2H0z"/></g><g class="C"><path d="M2 2h2v2H2z"/><path d="M4 2h2v2H4z"/></g><path d="M6 2h2v2H6z" class="B"/><g class="C"><path d="M8 2h2v2H8z"/><path d="M10 2h2v2h-2z"/></g><path d="M12 2h2v2h-2zM0 4h2v2H0z" class="B"/><g class="C"><path d="M2 4h2v2H2z"/><path d="M4 4h2v2H4z"/></g><path fill="#afaab9" d="M6 4h2v2H6z"/><g class="C"><path d="M8 4h2v2H8z"/><path d="M10 4h2v2h-2z"/></g><path d="M12 4h2v2h-2zM0 6h2v2H0z" class="B"/><g class="C"><path d="M2 6h2v2H2z"/><path d="M4 6h2v2H4z"/><path d="M6 6h2v2H6z"/><path d="M8 6h2v2H8z"/><path d="M10 6h2v2h-2z"/></g><g class="B"><path d="M12 6h2v2h-2z"/><path d="M14 6h2v2h-2zM0 8h2v2H0z"/></g><g class="C"><path d="M2 8h2v2H2z"/><path d="M4 8h2v2H4z"/></g><g class="D"><path d="M6 8h2v2H6z"/><path d="M8 8h2v2H8z"/></g><g class="C"><path d="M10 8h2v2h-2z"/><path d="M12 8h2v2h-2z"/></g><path d="M14 8h2v2h-2zM0 10h2v2H0z" class="B"/><g class="C"><path d="M2 10h2v2H2z"/><path d="M4 10h2v2H4z"/></g><g fill="#afaab9"><path d="M6 10h2v2H6z"/><path d="M8 10h2v2H8z"/></g><g class="D"><path d="M10 10h2v2h-2z"/><path d="M12 10h2v2h-2z"/></g><path d="M14 10h2v2h-2zM0 12h2v2H0z" class="B"/><g class="D"><path d="M2 12h2v2H2z"/><path d="M4 12h2v2H4z"/></g><g class="B"><path d="M6 12h2v2H6z"/><path d="M8 12h2v2H8z"/><path d="M10 12h2v2h-2z"/><path d="M12 12h2v2h-2z"/><path d="M14 12h2v2h-2zM0 14h2v2H0z"/><path d="M2 14h2v2H2z"/><path d="M4 14h2v2H4z"/><path d="M6 14h2v2H6z"/></g></svg>