<?xml version="1.0" encoding="UTF-8" ?>
<svg version="1.1" width="192" height="32" xmlns="http://www.w3.org/2000/svg" shape-rendering="crispEdges">
<rect x="8" y="2" width="2" height="2" fill="#FFF1E8" />
<rect x="10" y="2" width="2" height="2" fill="#FFF1E8" />
<rect x="20" y="2" width="2" height="2" fill="#FFF1E8" />
<rect x="22" y="2" width="2" height="2" fill="#FFF1E8" />
<rect x="168" y="2" width="2" height="2" fill="#FFF1E8" />
<rect x="170" y="2" width="2" height="2" fill="#FFF1E8" />
<rect x="180" y="2" width="2" height="2" fill="#FFF1E8" />
<rect x="182" y="2" width="2" height="2" fill="#FFF1E8" />
<rect x="6" y="4" width="2" height="2" fill="#FFF1E8" />
<rect x="8" y="4" width="2" height="2" fill="#000000" />
<rect x="10" y="4" width="2" height="2" fill="#000000" />
<rect x="12" y="4" width="2" height="2" fill="#FFF1E8" />
<rect x="18" y="4" width="2" height="2" fill="#FFF1E8" />
<rect x="20" y="4" width="2" height="2" fill="#000000" />
<rect x="22" y="4" width="2" height="2" fill="#000000" />
<rect x="24" y="4" width="2" height="2" fill="#FFF1E8" />
<rect x="42" y="4" width="2" height="2" fill="#FFF1E8" />
<rect x="44" y="4" width="2" height="2" fill="#FFF1E8" />
<rect x="50" y="4" width="2" height="2" fill="#FFF1E8" />
<rect x="52" y="4" width="2" height="2" fill="#FFF1E8" />
<rect x="166" y="4" width="2" height="2" fill="#FFF1E8" />
<rect x="168" y="4" width="2" height="2" fill="#000000" />
<rect x="170" y="4" width="2" height="2" fill="#000000" />
<rect x="172" y="4" width="2" height="2" fill="#FFF1E8" />
<rect x="178" y="4" width="2" height="2" fill="#FFF1E8" />
<rect x="180" y="4" width="2" height="2" fill="#000000" />
<rect x="182" y="4" width="2" height="2" fill="#000000" />
<rect x="184" y="4" width="2" height="2" fill="#FFF1E8" />
<rect x="4" y="6" width="2" height="2" fill="#FFF1E8" />
<rect x="6" y="6" width="2" height="2" fill="#5F574F" />
<rect x="8" y="6" width="2" height="2" fill="#C2C3C7" />
<rect x="10" y="6" width="2" height="2" fill="#C2C3C7" />
<rect x="12" y="6" width="2" height="2" fill="#5F574F" />
<rect x="14" y="6" width="2" height="2" fill="#FFF1E8" />
<rect x="16" y="6" width="2" height="2" fill="#FFF1E8" />
<rect x="18" y="6" width="2" height="2" fill="#5F574F" />
<rect x="20" y="6" width="2" height="2" fill="#C2C3C7" />
<rect x="22" y="6" width="2" height="2" fill="#C2C3C7" />
<rect x="24" y="6" width="2" height="2" fill="#5F574F" />
<rect x="26" y="6" width="2" height="2" fill="#FFF1E8" />
<rect x="40" y="6" width="2" height="2" fill="#FFF1E8" />
<rect x="42" y="6" width="2" height="2" fill="#000000" />
<rect x="44" y="6" width="2" height="2" fill="#000000" />
<rect x="46" y="6" width="2" height="2" fill="#FFF1E8" />
<rect x="48" y="6" width="2" height="2" fill="#FFF1E8" />
<rect x="50" y="6" width="2" height="2" fill="#000000" />
<rect x="52" y="6" width="2" height="2" fill="#000000" />
<rect x="54" y="6" width="2" height="2" fill="#FFF1E8" />
<rect x="138" y="6" width="2" height="2" fill="#FFF1E8" />
<rect x="140" y="6" width="2" height="2" fill="#FFF1E8" />
<rect x="146" y="6" width="2" height="2" fill="#FFF1E8" />
<rect x="148" y="6" width="2" height="2" fill="#FFF1E8" />
<rect x="164" y="6" width="2" height="2" fill="#FFF1E8" />
<rect x="166" y="6" width="2" height="2" fill="#5F574F" />
<rect x="168" y="6" width="2" height="2" fill="#7E2553" />
<rect x="170" y="6" width="2" height="2" fill="#7E2553" />
<rect x="172" y="6" width="2" height="2" fill="#5F574F" />
<rect x="174" y="6" width="2" height="2" fill="#FFF1E8" />
<rect x="176" y="6" width="2" height="2" fill="#FFF1E8" />
<rect x="178" y="6" width="2" height="2" fill="#5F574F" />
<rect x="180" y="6" width="2" height="2" fill="#7E2553" />
<rect x="182" y="6" width="2" height="2" fill="#7E2553" />
<rect x="184" y="6" width="2" height="2" fill="#5F574F" />
<rect x="186" y="6" width="2" height="2" fill="#FFF1E8" />
<rect x="2" y="8" width="2" height="2" fill="#FFF1E8" />
<rect x="4" y="8" width="2" height="2" fill="#5F574F" />
<rect x="6" y="8" width="2" height="2" fill="#C2C3C7" />
<rect x="8" y="8" width="2" height="2" fill="#FFF1E8" />
<rect x="10" y="8" width="2" height="2" fill="#FFF1E8" />
<rect x="12" y="8" width="2" height="2" fill="#C2C3C7" />
<rect x="14" y="8" width="2" height="2" fill="#5F574F" />
<rect x="16" y="8" width="2" height="2" fill="#5F574F" />
<rect x="18" y="8" width="2" height="2" fill="#C2C3C7" />
<rect x="20" y="8" width="2" height="2" fill="#FFF1E8" />
<rect x="22" y="8" width="2" height="2" fill="#FFF1E8" />
<rect x="24" y="8" width="2" height="2" fill="#C2C3C7" />
<rect x="26" y="8" width="2" height="2" fill="#5F574F" />
<rect x="28" y="8" width="2" height="2" fill="#FFF1E8" />
<rect x="38" y="8" width="2" height="2" fill="#FFF1E8" />
<rect x="40" y="8" width="2" height="2" fill="#5F574F" />
<rect x="42" y="8" width="2" height="2" fill="#C2C3C7" />
<rect x="44" y="8" width="2" height="2" fill="#C2C3C7" />
<rect x="46" y="8" width="2" height="2" fill="#5F574F" />
<rect x="48" y="8" width="2" height="2" fill="#5F574F" />
<rect x="50" y="8" width="2" height="2" fill="#C2C3C7" />
<rect x="52" y="8" width="2" height="2" fill="#C2C3C7" />
<rect x="54" y="8" width="2" height="2" fill="#5F574F" />
<rect x="56" y="8" width="2" height="2" fill="#FFF1E8" />
<rect x="76" y="8" width="2" height="2" fill="#FFF1E8" />
<rect x="78" y="8" width="2" height="2" fill="#FFF1E8" />
<rect x="80" y="8" width="2" height="2" fill="#FFF1E8" />
<rect x="82" y="8" width="2" height="2" fill="#FFF1E8" />
<rect x="108" y="8" width="2" height="2" fill="#FFF1E8" />
<rect x="110" y="8" width="2" height="2" fill="#FFF1E8" />
<rect x="112" y="8" width="2" height="2" fill="#FFF1E8" />
<rect x="114" y="8" width="2" height="2" fill="#FFF1E8" />
<rect x="136" y="8" width="2" height="2" fill="#FFF1E8" />
<rect x="138" y="8" width="2" height="2" fill="#000000" />
<rect x="140" y="8" width="2" height="2" fill="#000000" />
<rect x="142" y="8" width="2" height="2" fill="#FFF1E8" />
<rect x="144" y="8" width="2" height="2" fill="#FFF1E8" />
<rect x="146" y="8" width="2" height="2" fill="#000000" />
<rect x="148" y="8" width="2" height="2" fill="#000000" />
<rect x="150" y="8" width="2" height="2" fill="#FFF1E8" />
<rect x="162" y="8" width="2" height="2" fill="#FFF1E8" />
<rect x="164" y="8" width="2" height="2" fill="#5F574F" />
<rect x="166" y="8" width="2" height="2" fill="#7E2553" />
<rect x="168" y="8" width="2" height="2" fill="#FFF1E8" />
<rect x="170" y="8" width="2" height="2" fill="#FFF1E8" />
<rect x="172" y="8" width="2" height="2" fill="#7E2553" />
<rect x="174" y="8" width="2" height="2" fill="#5F574F" />
<rect x="176" y="8" width="2" height="2" fill="#5F574F" />
<rect x="178" y="8" width="2" height="2" fill="#7E2553" />
<rect x="180" y="8" width="2" height="2" fill="#FF004D" />
<rect x="182" y="8" width="2" height="2" fill="#FF004D" />
<rect x="184" y="8" width="2" height="2" fill="#7E2553" />
<rect x="186" y="8" width="2" height="2" fill="#5F574F" />
<rect x="188" y="8" width="2" height="2" fill="#FFF1E8" />
<rect x="0" y="10" width="2" height="2" fill="#FFF1E8" />
<rect x="2" y="10" width="2" height="2" fill="#000000" />
<rect x="4" y="10" width="2" height="2" fill="#C2C3C7" />
<rect x="6" y="10" width="2" height="2" fill="#FFF1E8" />
<rect x="8" y="10" width="2" height="2" fill="#FFF1E8" />
<rect x="10" y="10" width="2" height="2" fill="#FFF1E8" />
<rect x="12" y="10" width="2" height="2" fill="#FFF1E8" />
<rect x="14" y="10" width="2" height="2" fill="#C2C3C7" />
<rect x="16" y="10" width="2" height="2" fill="#C2C3C7" />
<rect x="18" y="10" width="2" height="2" fill="#FFF1E8" />
<rect x="20" y="10" width="2" height="2" fill="#FFF1E8" />
<rect x="22" y="10" width="2" height="2" fill="#FFF1E8" />
<rect x="24" y="10" width="2" height="2" fill="#FFF1E8" />
<rect x="26" y="10" width="2" height="2" fill="#C2C3C7" />
<rect x="28" y="10" width="2" height="2" fill="#000000" />
<rect x="30" y="10" width="2" height="2" fill="#FFF1E8" />
<rect x="36" y="10" width="2" height="2" fill="#FFF1E8" />
<rect x="38" y="10" width="2" height="2" fill="#5F574F" />
<rect x="40" y="10" width="2" height="2" fill="#C2C3C7" />
<rect x="42" y="10" width="2" height="2" fill="#FFF1E8" />
<rect x="44" y="10" width="2" height="2" fill="#FFF1E8" />
<rect x="46" y="10" width="2" height="2" fill="#C2C3C7" />
<rect x="48" y="10" width="2" height="2" fill="#C2C3C7" />
<rect x="50" y="10" width="2" height="2" fill="#FFF1E8" />
<rect x="52" y="10" width="2" height="2" fill="#FFF1E8" />
<rect x="54" y="10" width="2" height="2" fill="#C2C3C7" />
<rect x="56" y="10" width="2" height="2" fill="#5F574F" />
<rect x="58" y="10" width="2" height="2" fill="#FFF1E8" />
<rect x="74" y="10" width="2" height="2" fill="#FFF1E8" />
<rect x="76" y="10" width="2" height="2" fill="#000000" />
<rect x="78" y="10" width="2" height="2" fill="#000000" />
<rect x="80" y="10" width="2" height="2" fill="#000000" />
<rect x="82" y="10" width="2" height="2" fill="#000000" />
<rect x="84" y="10" width="2" height="2" fill="#FFF1E8" />
<rect x="106" y="10" width="2" height="2" fill="#FFF1E8" />
<rect x="108" y="10" width="2" height="2" fill="#000000" />
<rect x="110" y="10" width="2" height="2" fill="#000000" />
<rect x="112" y="10" width="2" height="2" fill="#000000" />
<rect x="114" y="10" width="2" height="2" fill="#000000" />
<rect x="116" y="10" width="2" height="2" fill="#FFF1E8" />
<rect x="134" y="10" width="2" height="2" fill="#FFF1E8" />
<rect x="136" y="10" width="2" height="2" fill="#5F574F" />
<rect x="138" y="10" width="2" height="2" fill="#FF004D" />
<rect x="140" y="10" width="2" height="2" fill="#FF004D" />
<rect x="142" y="10" width="2" height="2" fill="#5F574F" />
<rect x="144" y="10" width="2" height="2" fill="#5F574F" />
<rect x="146" y="10" width="2" height="2" fill="#FF004D" />
<rect x="148" y="10" width="2" height="2" fill="#FF004D" />
<rect x="150" y="10" width="2" height="2" fill="#5F574F" />
<rect x="152" y="10" width="2" height="2" fill="#FFF1E8" />
<rect x="160" y="10" width="2" height="2" fill="#FFF1E8" />
<rect x="162" y="10" width="2" height="2" fill="#000000" />
<rect x="164" y="10" width="2" height="2" fill="#7E2553" />
<rect x="166" y="10" width="2" height="2" fill="#FFF1E8" />
<rect x="168" y="10" width="2" height="2" fill="#FF004D" />
<rect x="170" y="10" width="2" height="2" fill="#FF004D" />
<rect x="172" y="10" width="2" height="2" fill="#FF004D" />
<rect x="174" y="10" width="2" height="2" fill="#7E2553" />
<rect x="176" y="10" width="2" height="2" fill="#7E2553" />
<rect x="178" y="10" width="2" height="2" fill="#FF004D" />
<rect x="180" y="10" width="2" height="2" fill="#FF004D" />
<rect x="182" y="10" width="2" height="2" fill="#FF004D" />
<rect x="184" y="10" width="2" height="2" fill="#FF004D" />
<rect x="186" y="10" width="2" height="2" fill="#7E2553" />
<rect x="188" y="10" width="2" height="2" fill="#000000" />
<rect x="190" y="10" width="2" height="2" fill="#FFF1E8" />
<rect x="0" y="12" width="2" height="2" fill="#FFF1E8" />
<rect x="2" y="12" width="2" height="2" fill="#000000" />
<rect x="4" y="12" width="2" height="2" fill="#C2C3C7" />
<rect x="6" y="12" width="2" height="2" fill="#FFF1E8" />
<rect x="8" y="12" width="2" height="2" fill="#FFF1E8" />
<rect x="10" y="12" width="2" height="2" fill="#FFF1E8" />
<rect x="12" y="12" width="2" height="2" fill="#FFF1E8" />
<rect x="14" y="12" width="2" height="2" fill="#FFF1E8" />
<rect x="16" y="12" width="2" height="2" fill="#FFF1E8" />
<rect x="18" y="12" width="2" height="2" fill="#FFF1E8" />
<rect x="20" y="12" width="2" height="2" fill="#FFF1E8" />
<rect x="22" y="12" width="2" height="2" fill="#FFF1E8" />
<rect x="24" y="12" width="2" height="2" fill="#FFF1E8" />
<rect x="26" y="12" width="2" height="2" fill="#C2C3C7" />
<rect x="28" y="12" width="2" height="2" fill="#000000" />
<rect x="30" y="12" width="2" height="2" fill="#FFF1E8" />
<rect x="34" y="12" width="2" height="2" fill="#FFF1E8" />
<rect x="36" y="12" width="2" height="2" fill="#000000" />
<rect x="38" y="12" width="2" height="2" fill="#C2C3C7" />
<rect x="40" y="12" width="2" height="2" fill="#FFF1E8" />
<rect x="42" y="12" width="2" height="2" fill="#FFF1E8" />
<rect x="44" y="12" width="2" height="2" fill="#FFF1E8" />
<rect x="46" y="12" width="2" height="2" fill="#FFF1E8" />
<rect x="48" y="12" width="2" height="2" fill="#FFF1E8" />
<rect x="50" y="12" width="2" height="2" fill="#FFF1E8" />
<rect x="52" y="12" width="2" height="2" fill="#FFF1E8" />
<rect x="54" y="12" width="2" height="2" fill="#FFF1E8" />
<rect x="56" y="12" width="2" height="2" fill="#C2C3C7" />
<rect x="58" y="12" width="2" height="2" fill="#000000" />
<rect x="60" y="12" width="2" height="2" fill="#FFF1E8" />
<rect x="72" y="12" width="2" height="2" fill="#FFF1E8" />
<rect x="74" y="12" width="2" height="2" fill="#5F574F" />
<rect x="76" y="12" width="2" height="2" fill="#C2C3C7" />
<rect x="78" y="12" width="2" height="2" fill="#C2C3C7" />
<rect x="80" y="12" width="2" height="2" fill="#C2C3C7" />
<rect x="82" y="12" width="2" height="2" fill="#C2C3C7" />
<rect x="84" y="12" width="2" height="2" fill="#5F574F" />
<rect x="86" y="12" width="2" height="2" fill="#FFF1E8" />
<rect x="104" y="12" width="2" height="2" fill="#FFF1E8" />
<rect x="106" y="12" width="2" height="2" fill="#5F574F" />
<rect x="108" y="12" width="2" height="2" fill="#FFA300" />
<rect x="110" y="12" width="2" height="2" fill="#FFA300" />
<rect x="112" y="12" width="2" height="2" fill="#FFA300" />
<rect x="114" y="12" width="2" height="2" fill="#FFA300" />
<rect x="116" y="12" width="2" height="2" fill="#5F574F" />
<rect x="118" y="12" width="2" height="2" fill="#FFF1E8" />
<rect x="132" y="12" width="2" height="2" fill="#FFF1E8" />
<rect x="134" y="12" width="2" height="2" fill="#5F574F" />
<rect x="136" y="12" width="2" height="2" fill="#FF004D" />
<rect x="138" y="12" width="2" height="2" fill="#FF77A8" />
<rect x="140" y="12" width="2" height="2" fill="#FF77A8" />
<rect x="142" y="12" width="2" height="2" fill="#FF004D" />
<rect x="144" y="12" width="2" height="2" fill="#FF004D" />
<rect x="146" y="12" width="2" height="2" fill="#FF77A8" />
<rect x="148" y="12" width="2" height="2" fill="#FF77A8" />
<rect x="150" y="12" width="2" height="2" fill="#FF004D" />
<rect x="152" y="12" width="2" height="2" fill="#5F574F" />
<rect x="154" y="12" width="2" height="2" fill="#FFF1E8" />
<rect x="160" y="12" width="2" height="2" fill="#FFF1E8" />
<rect x="162" y="12" width="2" height="2" fill="#000000" />
<rect x="164" y="12" width="2" height="2" fill="#7E2553" />
<rect x="166" y="12" width="2" height="2" fill="#FFF1E8" />
<rect x="168" y="12" width="2" height="2" fill="#FF004D" />
<rect x="170" y="12" width="2" height="2" fill="#FF004D" />
<rect x="172" y="12" width="2" height="2" fill="#FF004D" />
<rect x="174" y="12" width="2" height="2" fill="#FF004D" />
<rect x="176" y="12" width="2" height="2" fill="#FF004D" />
<rect x="178" y="12" width="2" height="2" fill="#FF004D" />
<rect x="180" y="12" width="2" height="2" fill="#FF004D" />
<rect x="182" y="12" width="2" height="2" fill="#FF004D" />
<rect x="184" y="12" width="2" height="2" fill="#FF004D" />
<rect x="186" y="12" width="2" height="2" fill="#7E2553" />
<rect x="188" y="12" width="2" height="2" fill="#000000" />
<rect x="190" y="12" width="2" height="2" fill="#FFF1E8" />
<rect x="0" y="14" width="2" height="2" fill="#FFF1E8" />
<rect x="2" y="14" width="2" height="2" fill="#000000" />
<rect x="4" y="14" width="2" height="2" fill="#C2C3C7" />
<rect x="6" y="14" width="2" height="2" fill="#FFF1E8" />
<rect x="8" y="14" width="2" height="2" fill="#FFF1E8" />
<rect x="10" y="14" width="2" height="2" fill="#FFF1E8" />
<rect x="12" y="14" width="2" height="2" fill="#FFF1E8" />
<rect x="14" y="14" width="2" height="2" fill="#FFF1E8" />
<rect x="16" y="14" width="2" height="2" fill="#FFF1E8" />
<rect x="18" y="14" width="2" height="2" fill="#FFF1E8" />
<rect x="20" y="14" width="2" height="2" fill="#FFF1E8" />
<rect x="22" y="14" width="2" height="2" fill="#FFF1E8" />
<rect x="24" y="14" width="2" height="2" fill="#FFF1E8" />
<rect x="26" y="14" width="2" height="2" fill="#C2C3C7" />
<rect x="28" y="14" width="2" height="2" fill="#000000" />
<rect x="30" y="14" width="2" height="2" fill="#FFF1E8" />
<rect x="34" y="14" width="2" height="2" fill="#FFF1E8" />
<rect x="36" y="14" width="2" height="2" fill="#000000" />
<rect x="38" y="14" width="2" height="2" fill="#C2C3C7" />
<rect x="40" y="14" width="2" height="2" fill="#FFF1E8" />
<rect x="42" y="14" width="2" height="2" fill="#FFF1E8" />
<rect x="44" y="14" width="2" height="2" fill="#FFF1E8" />
<rect x="46" y="14" width="2" height="2" fill="#FFF1E8" />
<rect x="48" y="14" width="2" height="2" fill="#FFF1E8" />
<rect x="50" y="14" width="2" height="2" fill="#FFF1E8" />
<rect x="52" y="14" width="2" height="2" fill="#FFF1E8" />
<rect x="54" y="14" width="2" height="2" fill="#FFF1E8" />
<rect x="56" y="14" width="2" height="2" fill="#C2C3C7" />
<rect x="58" y="14" width="2" height="2" fill="#000000" />
<rect x="60" y="14" width="2" height="2" fill="#FFF1E8" />
<rect x="70" y="14" width="2" height="2" fill="#FFF1E8" />
<rect x="72" y="14" width="2" height="2" fill="#5F574F" />
<rect x="74" y="14" width="2" height="2" fill="#C2C3C7" />
<rect x="76" y="14" width="2" height="2" fill="#FFF1E8" />
<rect x="78" y="14" width="2" height="2" fill="#FFF1E8" />
<rect x="80" y="14" width="2" height="2" fill="#FFF1E8" />
<rect x="82" y="14" width="2" height="2" fill="#FFF1E8" />
<rect x="84" y="14" width="2" height="2" fill="#C2C3C7" />
<rect x="86" y="14" width="2" height="2" fill="#5F574F" />
<rect x="88" y="14" width="2" height="2" fill="#FFF1E8" />
<rect x="102" y="14" width="2" height="2" fill="#FFF1E8" />
<rect x="104" y="14" width="2" height="2" fill="#5F574F" />
<rect x="106" y="14" width="2" height="2" fill="#FFA300" />
<rect x="108" y="14" width="2" height="2" fill="#FFEC27" />
<rect x="110" y="14" width="2" height="2" fill="#FFEC27" />
<rect x="112" y="14" width="2" height="2" fill="#FFEC27" />
<rect x="114" y="14" width="2" height="2" fill="#FFEC27" />
<rect x="116" y="14" width="2" height="2" fill="#FFA300" />
<rect x="118" y="14" width="2" height="2" fill="#5F574F" />
<rect x="120" y="14" width="2" height="2" fill="#FFF1E8" />
<rect x="132" y="14" width="2" height="2" fill="#FFF1E8" />
<rect x="134" y="14" width="2" height="2" fill="#5F574F" />
<rect x="136" y="14" width="2" height="2" fill="#FF77A8" />
<rect x="138" y="14" width="2" height="2" fill="#FF77A8" />
<rect x="140" y="14" width="2" height="2" fill="#FF77A8" />
<rect x="142" y="14" width="2" height="2" fill="#FF77A8" />
<rect x="144" y="14" width="2" height="2" fill="#FF77A8" />
<rect x="146" y="14" width="2" height="2" fill="#FF77A8" />
<rect x="148" y="14" width="2" height="2" fill="#FF77A8" />
<rect x="150" y="14" width="2" height="2" fill="#FF77A8" />
<rect x="152" y="14" width="2" height="2" fill="#5F574F" />
<rect x="154" y="14" width="2" height="2" fill="#FFF1E8" />
<rect x="160" y="14" width="2" height="2" fill="#FFF1E8" />
<rect x="162" y="14" width="2" height="2" fill="#000000" />
<rect x="164" y="14" width="2" height="2" fill="#7E2553" />
<rect x="166" y="14" width="2" height="2" fill="#FF004D" />
<rect x="168" y="14" width="2" height="2" fill="#FF004D" />
<rect x="170" y="14" width="2" height="2" fill="#FF004D" />
<rect x="172" y="14" width="2" height="2" fill="#FF004D" />
<rect x="174" y="14" width="2" height="2" fill="#FF004D" />
<rect x="176" y="14" width="2" height="2" fill="#FF004D" />
<rect x="178" y="14" width="2" height="2" fill="#FF004D" />
<rect x="180" y="14" width="2" height="2" fill="#FF004D" />
<rect x="182" y="14" width="2" height="2" fill="#FF004D" />
<rect x="184" y="14" width="2" height="2" fill="#FF004D" />
<rect x="186" y="14" width="2" height="2" fill="#7E2553" />
<rect x="188" y="14" width="2" height="2" fill="#000000" />
<rect x="190" y="14" width="2" height="2" fill="#FFF1E8" />
<rect x="2" y="16" width="2" height="2" fill="#C2C3C7" />
<rect x="4" y="16" width="2" height="2" fill="#5F574F" />
<rect x="6" y="16" width="2" height="2" fill="#C2C3C7" />
<rect x="8" y="16" width="2" height="2" fill="#FFF1E8" />
<rect x="10" y="16" width="2" height="2" fill="#FFF1E8" />
<rect x="12" y="16" width="2" height="2" fill="#FFF1E8" />
<rect x="14" y="16" width="2" height="2" fill="#FFF1E8" />
<rect x="16" y="16" width="2" height="2" fill="#FFF1E8" />
<rect x="18" y="16" width="2" height="2" fill="#FFF1E8" />
<rect x="20" y="16" width="2" height="2" fill="#FFF1E8" />
<rect x="22" y="16" width="2" height="2" fill="#FFF1E8" />
<rect x="24" y="16" width="2" height="2" fill="#C2C3C7" />
<rect x="26" y="16" width="2" height="2" fill="#5F574F" />
<rect x="28" y="16" width="2" height="2" fill="#C2C3C7" />
<rect x="36" y="16" width="2" height="2" fill="#C2C3C7" />
<rect x="38" y="16" width="2" height="2" fill="#5F574F" />
<rect x="40" y="16" width="2" height="2" fill="#C2C3C7" />
<rect x="42" y="16" width="2" height="2" fill="#FFF1E8" />
<rect x="44" y="16" width="2" height="2" fill="#FFF1E8" />
<rect x="46" y="16" width="2" height="2" fill="#FFF1E8" />
<rect x="48" y="16" width="2" height="2" fill="#FFF1E8" />
<rect x="50" y="16" width="2" height="2" fill="#FFF1E8" />
<rect x="52" y="16" width="2" height="2" fill="#FFF1E8" />
<rect x="54" y="16" width="2" height="2" fill="#C2C3C7" />
<rect x="56" y="16" width="2" height="2" fill="#5F574F" />
<rect x="58" y="16" width="2" height="2" fill="#C2C3C7" />
<rect x="72" y="16" width="2" height="2" fill="#C2C3C7" />
<rect x="74" y="16" width="2" height="2" fill="#5F574F" />
<rect x="76" y="16" width="2" height="2" fill="#C2C3C7" />
<rect x="78" y="16" width="2" height="2" fill="#FFF1E8" />
<rect x="80" y="16" width="2" height="2" fill="#FFF1E8" />
<rect x="82" y="16" width="2" height="2" fill="#C2C3C7" />
<rect x="84" y="16" width="2" height="2" fill="#5F574F" />
<rect x="86" y="16" width="2" height="2" fill="#C2C3C7" />
<rect x="104" y="16" width="2" height="2" fill="#C2C3C7" />
<rect x="106" y="16" width="2" height="2" fill="#5F574F" />
<rect x="108" y="16" width="2" height="2" fill="#FFA300" />
<rect x="110" y="16" width="2" height="2" fill="#FFEC27" />
<rect x="112" y="16" width="2" height="2" fill="#FFEC27" />
<rect x="114" y="16" width="2" height="2" fill="#FFA300" />
<rect x="116" y="16" width="2" height="2" fill="#5F574F" />
<rect x="118" y="16" width="2" height="2" fill="#C2C3C7" />
<rect x="132" y="16" width="2" height="2" fill="#FFF1E8" />
<rect x="134" y="16" width="2" height="2" fill="#5F574F" />
<rect x="136" y="16" width="2" height="2" fill="#FF004D" />
<rect x="138" y="16" width="2" height="2" fill="#FF77A8" />
<rect x="140" y="16" width="2" height="2" fill="#FF77A8" />
<rect x="142" y="16" width="2" height="2" fill="#FF77A8" />
<rect x="144" y="16" width="2" height="2" fill="#FF77A8" />
<rect x="146" y="16" width="2" height="2" fill="#FF77A8" />
<rect x="148" y="16" width="2" height="2" fill="#FF77A8" />
<rect x="150" y="16" width="2" height="2" fill="#FF004D" />
<rect x="152" y="16" width="2" height="2" fill="#5F574F" />
<rect x="154" y="16" width="2" height="2" fill="#FFF1E8" />
<rect x="162" y="16" width="2" height="2" fill="#C2C3C7" />
<rect x="164" y="16" width="2" height="2" fill="#5F574F" />
<rect x="166" y="16" width="2" height="2" fill="#7E2553" />
<rect x="168" y="16" width="2" height="2" fill="#FF004D" />
<rect x="170" y="16" width="2" height="2" fill="#FF004D" />
<rect x="172" y="16" width="2" height="2" fill="#FF004D" />
<rect x="174" y="16" width="2" height="2" fill="#FF004D" />
<rect x="176" y="16" width="2" height="2" fill="#FF004D" />
<rect x="178" y="16" width="2" height="2" fill="#FF004D" />
<rect x="180" y="16" width="2" height="2" fill="#FF004D" />
<rect x="182" y="16" width="2" height="2" fill="#FF004D" />
<rect x="184" y="16" width="2" height="2" fill="#7E2553" />
<rect x="186" y="16" width="2" height="2" fill="#5F574F" />
<rect x="188" y="16" width="2" height="2" fill="#C2C3C7" />
<rect x="4" y="18" width="2" height="2" fill="#C2C3C7" />
<rect x="6" y="18" width="2" height="2" fill="#5F574F" />
<rect x="8" y="18" width="2" height="2" fill="#C2C3C7" />
<rect x="10" y="18" width="2" height="2" fill="#FFF1E8" />
<rect x="12" y="18" width="2" height="2" fill="#FFF1E8" />
<rect x="14" y="18" width="2" height="2" fill="#FFF1E8" />
<rect x="16" y="18" width="2" height="2" fill="#FFF1E8" />
<rect x="18" y="18" width="2" height="2" fill="#FFF1E8" />
<rect x="20" y="18" width="2" height="2" fill="#FFF1E8" />
<rect x="22" y="18" width="2" height="2" fill="#C2C3C7" />
<rect x="24" y="18" width="2" height="2" fill="#5F574F" />
<rect x="26" y="18" width="2" height="2" fill="#C2C3C7" />
<rect x="38" y="18" width="2" height="2" fill="#C2C3C7" />
<rect x="40" y="18" width="2" height="2" fill="#5F574F" />
<rect x="42" y="18" width="2" height="2" fill="#C2C3C7" />
<rect x="44" y="18" width="2" height="2" fill="#FFF1E8" />
<rect x="46" y="18" width="2" height="2" fill="#FFF1E8" />
<rect x="48" y="18" width="2" height="2" fill="#FFF1E8" />
<rect x="50" y="18" width="2" height="2" fill="#FFF1E8" />
<rect x="52" y="18" width="2" height="2" fill="#C2C3C7" />
<rect x="54" y="18" width="2" height="2" fill="#5F574F" />
<rect x="56" y="18" width="2" height="2" fill="#C2C3C7" />
<rect x="74" y="18" width="2" height="2" fill="#C2C3C7" />
<rect x="76" y="18" width="2" height="2" fill="#5F574F" />
<rect x="78" y="18" width="2" height="2" fill="#C2C3C7" />
<rect x="80" y="18" width="2" height="2" fill="#C2C3C7" />
<rect x="82" y="18" width="2" height="2" fill="#5F574F" />
<rect x="84" y="18" width="2" height="2" fill="#C2C3C7" />
<rect x="106" y="18" width="2" height="2" fill="#C2C3C7" />
<rect x="108" y="18" width="2" height="2" fill="#5F574F" />
<rect x="110" y="18" width="2" height="2" fill="#FFA300" />
<rect x="112" y="18" width="2" height="2" fill="#FFA300" />
<rect x="114" y="18" width="2" height="2" fill="#5F574F" />
<rect x="116" y="18" width="2" height="2" fill="#C2C3C7" />
<rect x="134" y="18" width="2" height="2" fill="#C2C3C7" />
<rect x="136" y="18" width="2" height="2" fill="#5F574F" />
<rect x="138" y="18" width="2" height="2" fill="#FF004D" />
<rect x="140" y="18" width="2" height="2" fill="#FF77A8" />
<rect x="142" y="18" width="2" height="2" fill="#FF77A8" />
<rect x="144" y="18" width="2" height="2" fill="#FF77A8" />
<rect x="146" y="18" width="2" height="2" fill="#FF77A8" />
<rect x="148" y="18" width="2" height="2" fill="#FF004D" />
<rect x="150" y="18" width="2" height="2" fill="#5F574F" />
<rect x="152" y="18" width="2" height="2" fill="#C2C3C7" />
<rect x="164" y="18" width="2" height="2" fill="#C2C3C7" />
<rect x="166" y="18" width="2" height="2" fill="#5F574F" />
<rect x="168" y="18" width="2" height="2" fill="#7E2553" />
<rect x="170" y="18" width="2" height="2" fill="#FF004D" />
<rect x="172" y="18" width="2" height="2" fill="#FF004D" />
<rect x="174" y="18" width="2" height="2" fill="#FF004D" />
<rect x="176" y="18" width="2" height="2" fill="#FF004D" />
<rect x="178" y="18" width="2" height="2" fill="#FF004D" />
<rect x="180" y="18" width="2" height="2" fill="#FF004D" />
<rect x="182" y="18" width="2" height="2" fill="#7E2553" />
<rect x="184" y="18" width="2" height="2" fill="#5F574F" />
<rect x="186" y="18" width="2" height="2" fill="#C2C3C7" />
<rect x="6" y="20" width="2" height="2" fill="#C2C3C7" />
<rect x="8" y="20" width="2" height="2" fill="#5F574F" />
<rect x="10" y="20" width="2" height="2" fill="#C2C3C7" />
<rect x="12" y="20" width="2" height="2" fill="#FFF1E8" />
<rect x="14" y="20" width="2" height="2" fill="#FFF1E8" />
<rect x="16" y="20" width="2" height="2" fill="#FFF1E8" />
<rect x="18" y="20" width="2" height="2" fill="#FFF1E8" />
<rect x="20" y="20" width="2" height="2" fill="#C2C3C7" />
<rect x="22" y="20" width="2" height="2" fill="#5F574F" />
<rect x="24" y="20" width="2" height="2" fill="#C2C3C7" />
<rect x="40" y="20" width="2" height="2" fill="#C2C3C7" />
<rect x="42" y="20" width="2" height="2" fill="#5F574F" />
<rect x="44" y="20" width="2" height="2" fill="#C2C3C7" />
<rect x="46" y="20" width="2" height="2" fill="#FFF1E8" />
<rect x="48" y="20" width="2" height="2" fill="#FFF1E8" />
<rect x="50" y="20" width="2" height="2" fill="#C2C3C7" />
<rect x="52" y="20" width="2" height="2" fill="#5F574F" />
<rect x="54" y="20" width="2" height="2" fill="#C2C3C7" />
<rect x="76" y="20" width="2" height="2" fill="#C2C3C7" />
<rect x="78" y="20" width="2" height="2" fill="#5F574F" />
<rect x="80" y="20" width="2" height="2" fill="#5F574F" />
<rect x="82" y="20" width="2" height="2" fill="#C2C3C7" />
<rect x="108" y="20" width="2" height="2" fill="#C2C3C7" />
<rect x="110" y="20" width="2" height="2" fill="#5F574F" />
<rect x="112" y="20" width="2" height="2" fill="#5F574F" />
<rect x="114" y="20" width="2" height="2" fill="#C2C3C7" />
<rect x="136" y="20" width="2" height="2" fill="#C2C3C7" />
<rect x="138" y="20" width="2" height="2" fill="#5F574F" />
<rect x="140" y="20" width="2" height="2" fill="#FF004D" />
<rect x="142" y="20" width="2" height="2" fill="#FF77A8" />
<rect x="144" y="20" width="2" height="2" fill="#FF77A8" />
<rect x="146" y="20" width="2" height="2" fill="#FF004D" />
<rect x="148" y="20" width="2" height="2" fill="#5F574F" />
<rect x="150" y="20" width="2" height="2" fill="#C2C3C7" />
<rect x="166" y="20" width="2" height="2" fill="#C2C3C7" />
<rect x="168" y="20" width="2" height="2" fill="#5F574F" />
<rect x="170" y="20" width="2" height="2" fill="#7E2553" />
<rect x="172" y="20" width="2" height="2" fill="#FF004D" />
<rect x="174" y="20" width="2" height="2" fill="#FF004D" />
<rect x="176" y="20" width="2" height="2" fill="#FF004D" />
<rect x="178" y="20" width="2" height="2" fill="#FF004D" />
<rect x="180" y="20" width="2" height="2" fill="#7E2553" />
<rect x="182" y="20" width="2" height="2" fill="#5F574F" />
<rect x="184" y="20" width="2" height="2" fill="#C2C3C7" />
<rect x="8" y="22" width="2" height="2" fill="#C2C3C7" />
<rect x="10" y="22" width="2" height="2" fill="#5F574F" />
<rect x="12" y="22" width="2" height="2" fill="#C2C3C7" />
<rect x="14" y="22" width="2" height="2" fill="#FFF1E8" />
<rect x="16" y="22" width="2" height="2" fill="#FFF1E8" />
<rect x="18" y="22" width="2" height="2" fill="#C2C3C7" />
<rect x="20" y="22" width="2" height="2" fill="#5F574F" />
<rect x="22" y="22" width="2" height="2" fill="#C2C3C7" />
<rect x="42" y="22" width="2" height="2" fill="#C2C3C7" />
<rect x="44" y="22" width="2" height="2" fill="#5F574F" />
<rect x="46" y="22" width="2" height="2" fill="#C2C3C7" />
<rect x="48" y="22" width="2" height="2" fill="#C2C3C7" />
<rect x="50" y="22" width="2" height="2" fill="#5F574F" />
<rect x="52" y="22" width="2" height="2" fill="#C2C3C7" />
<rect x="78" y="22" width="2" height="2" fill="#C2C3C7" />
<rect x="80" y="22" width="2" height="2" fill="#C2C3C7" />
<rect x="110" y="22" width="2" height="2" fill="#C2C3C7" />
<rect x="112" y="22" width="2" height="2" fill="#C2C3C7" />
<rect x="138" y="22" width="2" height="2" fill="#C2C3C7" />
<rect x="140" y="22" width="2" height="2" fill="#5F574F" />
<rect x="142" y="22" width="2" height="2" fill="#FF004D" />
<rect x="144" y="22" width="2" height="2" fill="#FF004D" />
<rect x="146" y="22" width="2" height="2" fill="#5F574F" />
<rect x="148" y="22" width="2" height="2" fill="#C2C3C7" />
<rect x="168" y="22" width="2" height="2" fill="#C2C3C7" />
<rect x="170" y="22" width="2" height="2" fill="#5F574F" />
<rect x="172" y="22" width="2" height="2" fill="#7E2553" />
<rect x="174" y="22" width="2" height="2" fill="#FF004D" />
<rect x="176" y="22" width="2" height="2" fill="#FF004D" />
<rect x="178" y="22" width="2" height="2" fill="#7E2553" />
<rect x="180" y="22" width="2" height="2" fill="#5F574F" />
<rect x="182" y="22" width="2" height="2" fill="#C2C3C7" />
<rect x="10" y="24" width="2" height="2" fill="#C2C3C7" />
<rect x="12" y="24" width="2" height="2" fill="#5F574F" />
<rect x="14" y="24" width="2" height="2" fill="#C2C3C7" />
<rect x="16" y="24" width="2" height="2" fill="#C2C3C7" />
<rect x="18" y="24" width="2" height="2" fill="#5F574F" />
<rect x="20" y="24" width="2" height="2" fill="#C2C3C7" />
<rect x="44" y="24" width="2" height="2" fill="#C2C3C7" />
<rect x="46" y="24" width="2" height="2" fill="#5F574F" />
<rect x="48" y="24" width="2" height="2" fill="#5F574F" />
<rect x="50" y="24" width="2" height="2" fill="#C2C3C7" />
<rect x="140" y="24" width="2" height="2" fill="#C2C3C7" />
<rect x="142" y="24" width="2" height="2" fill="#5F574F" />
<rect x="144" y="24" width="2" height="2" fill="#5F574F" />
<rect x="146" y="24" width="2" height="2" fill="#C2C3C7" />
<rect x="170" y="24" width="2" height="2" fill="#C2C3C7" />
<rect x="172" y="24" width="2" height="2" fill="#5F574F" />
<rect x="174" y="24" width="2" height="2" fill="#7E2553" />
<rect x="176" y="24" width="2" height="2" fill="#7E2553" />
<rect x="178" y="24" width="2" height="2" fill="#5F574F" />
<rect x="180" y="24" width="2" height="2" fill="#C2C3C7" />
<rect x="12" y="26" width="2" height="2" fill="#C2C3C7" />
<rect x="14" y="26" width="2" height="2" fill="#000000" />
<rect x="16" y="26" width="2" height="2" fill="#000000" />
<rect x="18" y="26" width="2" height="2" fill="#C2C3C7" />
<rect x="46" y="26" width="2" height="2" fill="#C2C3C7" />
<rect x="48" y="26" width="2" height="2" fill="#C2C3C7" />
<rect x="142" y="26" width="2" height="2" fill="#C2C3C7" />
<rect x="144" y="26" width="2" height="2" fill="#C2C3C7" />
<rect x="172" y="26" width="2" height="2" fill="#C2C3C7" />
<rect x="174" y="26" width="2" height="2" fill="#000000" />
<rect x="176" y="26" width="2" height="2" fill="#000000" />
<rect x="178" y="26" width="2" height="2" fill="#C2C3C7" />
<rect x="14" y="28" width="2" height="2" fill="#C2C3C7" />
<rect x="16" y="28" width="2" height="2" fill="#C2C3C7" />
<rect x="174" y="28" width="2" height="2" fill="#C2C3C7" />
<rect x="176" y="28" width="2" height="2" fill="#C2C3C7" />
</svg>