<svg xmlns="http://www.w3.org/2000/svg" width="256" height="64" shape-rendering="crispEdges" xmlns:v="https://vecta.io/nano"><style><![CDATA[.B{fill:#f5f4eb}.C{fill:#453e78}.D{fill:#afaab9}.E{fill:#833129}.F{fill:#9ec2e8}.G{fill:#7664fe}.H{fill:#dc534b}.I{fill:#46af45}.J{fill:#e18d79}.K{fill:#216c4b}]]></style><g class="B"><path d="M8 0h2v2H8z"/><path d="M10 0h2v2h-2z"/><path d="M12 0h2v2h-2z"/><path d="M14 0h2v2h-2z"/><path d="M16 0h2v2h-2zm28 0h2v2h-2z"/><path d="M46 0h2v2h-2z"/><path d="M48 0h2v2h-2z"/><path d="M50 0h2v2h-2zm24 0h2v2h-2zm10 0h2v2h-2zm26 0h2v2h-2z"/><path d="M112 0h2v2h-2zM6 2h2v2H6z"/></g><path d="M8 2h2v2H8z" class="C"/><path d="M10 2h2v2h-2z"/><path d="M12 2h2v2h-2z"/><path d="M14 2h2v2h-2z"/><path d="M16 2h2v2h-2z" class="C"/><g class="B"><path d="M18 2h2v2h-2zm22 0h2v2h-2z"/><path d="M42 2h2v2h-2z"/></g><path d="M44 2h2v2h-2z"/><path d="M46 2h2v2h-2z"/><path d="M48 2h2v2h-2z"/><path d="M50 2h2v2h-2z"/><g class="B"><path d="M52 2h2v2h-2z"/><path d="M54 2h2v2h-2zm18 0h2v2h-2z"/></g><path d="M74 2h2v2h-2z"/><path d="M76 2h2v2h-2zm6 0h2v2h-2z" class="B"/><path d="M84 2h2v2h-2z"/><path d="M86 2h2v2h-2zm22 0h2v2h-2z" class="B"/><path d="M110 2h2v2h-2z" class="C"/><path d="M112 2h2v2h-2z"/><g class="B"><path d="M114 2h2v2h-2zm50 0h2v2h-2z"/><path d="M166 2h2v2h-2zm8 0h2v2h-2z"/><path d="M176 2h2v2h-2zm8 0h2v2h-2z"/><path d="M186 2h2v2h-2zM4 4h2v2H4z"/></g><path d="M6 4h2v2H6z" class="C"/><path d="M8 4h2v2H8z" class="G"/><g class="F"><path d="M10 4h2v2h-2z"/><path d="M12 4h2v2h-2z"/><path d="M14 4h2v2h-2z"/></g><path d="M16 4h2v2h-2z" class="G"/><path d="M18 4h2v2h-2z" class="C"/><path d="M20 4h2v2h-2zm18 0h2v2h-2z" class="B"/><path d="M40 4h2v2h-2z" class="C"/><path d="M42 4h2v2h-2z"/><path d="M44 4h2v2h-2z" class="D"/><g class="B"><path d="M46 4h2v2h-2z"/><path d="M48 4h2v2h-2z"/></g><path d="M50 4h2v2h-2z" class="D"/><path d="M52 4h2v2h-2z"/><path d="M54 4h2v2h-2z" class="C"/><g class="B"><path d="M56 4h2v2h-2zm12 0h2v2h-2z"/><path d="M70 4h2v2h-2z"/></g><path d="M72 4h2v2h-2z"/><path d="M74 4h2v2h-2z" class="D"/><path d="M76 4h2v2h-2z"/><g class="B"><path d="M78 4h2v2h-2z"/><path d="M80 4h2v2h-2z"/></g><path d="M82 4h2v2h-2z"/><path d="M84 4h2v2h-2z" class="D"/><path d="M86 4h2v2h-2z"/><g class="B"><path d="M88 4h2v2h-2z"/><path d="M90 4h2v2h-2zm16 0h2v2h-2z"/></g><path d="M108 4h2v2h-2z" class="C"/><path d="M110 4h2v2h-2z"/><path d="M112 4h2v2h-2z"/><path d="M114 4h2v2h-2z"/><path d="M116 4h2v2h-2zm46 0h2v2h-2z" class="B"/><path d="M164 4h2v2h-2z" class="C"/><path d="M166 4h2v2h-2z"/><path d="M168 4h2v2h-2zm4 0h2v2h-2z" class="B"/><path d="M174 4h2v2h-2z" class="C"/><path d="M176 4h2v2h-2z"/><path d="M178 4h2v2h-2zm4 0h2v2h-2z" class="B"/><path d="M184 4h2v2h-2z" class="C"/><path d="M186 4h2v2h-2z"/><path d="M188 4h2v2h-2zM2 6h2v2H2z" class="B"/><path d="M4 6h2v2H4z" class="C"/><path d="M6 6h2v2H6z" class="G"/><path d="M8 6h2v2H8z" class="B"/><g class="F"><path d="M10 6h2v2h-2z"/><path d="M12 6h2v2h-2z"/><path d="M14 6h2v2h-2z"/><path d="M16 6h2v2h-2z"/></g><path d="M18 6h2v2h-2z" class="G"/><path d="M20 6h2v2h-2z" class="C"/><path d="M22 6h2v2h-2zm14 0h2v2h-2z" class="B"/><path d="M38 6h2v2h-2z" class="C"/><path d="M40 6h2v2h-2z" class="D"/><g class="B"><path d="M42 6h2v2h-2z"/><path d="M44 6h2v2h-2z"/></g><g class="C"><path d="M46 6h2v2h-2z"/><path d="M48 6h2v2h-2z"/></g><g class="B"><path d="M50 6h2v2h-2z"/><path d="M52 6h2v2h-2z"/></g><path d="M54 6h2v2h-2z" class="D"/><path d="M56 6h2v2h-2z" class="C"/><path d="M58 6h2v2h-2zm8 0h2v2h-2z" class="B"/><path d="M68 6h2v2h-2z"/><path d="M70 6h2v2h-2z"/><path d="M72 6h2v2h-2z"/><path d="M74 6h2v2h-2z" class="D"/><path d="M76 6h2v2h-2z"/><path d="M78 6h2v2h-2z"/><path d="M80 6h2v2h-2z"/><path d="M82 6h2v2h-2z"/><path d="M84 6h2v2h-2z" class="D"/><path d="M86 6h2v2h-2z"/><path d="M88 6h2v2h-2z"/><path d="M90 6h2v2h-2z"/><path d="M92 6h2v2h-2zm14 0h2v2h-2z" class="B"/><path d="M108 6h2v2h-2z"/><path d="M110 6h2v2h-2z"/><path d="M112 6h2v2h-2z"/><path d="M114 6h2v2h-2z"/><path d="M116 6h2v2h-2zm46 0h2v2h-2z" class="B"/><path d="M164 6h2v2h-2z"/><path d="M166 6h2v2h-2z"/><path d="M168 6h2v2h-2zm4 0h2v2h-2z" class="B"/><path d="M174 6h2v2h-2z"/><path d="M176 6h2v2h-2z"/><path d="M178 6h2v2h-2zm4 0h2v2h-2z" class="B"/><path d="M184 6h2v2h-2z"/><path d="M186 6h2v2h-2z"/><path d="M188 6h2v2h-2zM0 8h2v2H0z" class="B"/><path d="M2 8h2v2H2z" class="C"/><path d="M4 8h2v2H4z" class="G"/><path d="M6 8h2v2H6z" class="B"/><g class="F"><path d="M8 8h2v2H8z"/><path d="M10 8h2v2h-2z"/><path d="M12 8h2v2h-2z"/><path d="M14 8h2v2h-2z"/><path d="M16 8h2v2h-2z"/><path d="M18 8h2v2h-2z"/></g><path d="M20 8h2v2h-2z" class="G"/><path d="M22 8h2v2h-2z" class="C"/><path d="M24 8h2v2h-2zm10 0h2v2h-2z" class="B"/><path d="M36 8h2v2h-2z" class="C"/><path d="M38 8h2v2h-2z" class="D"/><g class="B"><path d="M40 8h2v2h-2z"/><path d="M42 8h2v2h-2z"/><path d="M44 8h2v2h-2z"/></g><path d="M46 8h2v2h-2z" class="D"/><g class="B"><path d="M48 8h2v2h-2z"/><path d="M50 8h2v2h-2z"/><path d="M52 8h2v2h-2z"/><path d="M54 8h2v2h-2z"/></g><path d="M56 8h2v2h-2z" class="D"/><path d="M58 8h2v2h-2z" class="C"/><path d="M60 8h2v2h-2zm4 0h2v2h-2z" class="B"/><path d="M66 8h2v2h-2z"/><g class="E"><path d="M68 8h2v2h-2z"/><path d="M70 8h2v2h-2z"/></g><path d="M72 8h2v2h-2z"/><path d="M74 8h2v2h-2z" class="D"/><path d="M76 8h2v2h-2z"/><g class="H"><path d="M78 8h2v2h-2z"/><path d="M80 8h2v2h-2z"/></g><path d="M82 8h2v2h-2z"/><path d="M84 8h2v2h-2z" class="D"/><path d="M86 8h2v2h-2z"/><g class="E"><path d="M88 8h2v2h-2z"/><path d="M90 8h2v2h-2z"/></g><path d="M92 8h2v2h-2z"/><path d="M94 8h2v2h-2z" class="B"/><path d="M108 8h2v2h-2z" class="D"/><path d="M110 8h2v2h-2z"/><path d="M112 8h2v2h-2z"/><g class="D"><path d="M114 8h2v2h-2zm50 0h2v2h-2z"/><path d="M166 8h2v2h-2zm8 0h2v2h-2z"/><path d="M176 8h2v2h-2zm8 0h2v2h-2z"/><path d="M186 8h2v2h-2z"/></g><path d="M0 10h2v2H0z" class="B"/><path d="M2 10h2v2H2z"/><g class="F"><path d="M4 10h2v2H4z"/><path d="M6 10h2v2H6z"/><path d="M8 10h2v2H8z"/><path d="M10 10h2v2h-2z"/><path d="M12 10h2v2h-2z"/><path d="M14 10h2v2h-2z"/><path d="M16 10h2v2h-2z"/><path d="M18 10h2v2h-2z"/><path d="M20 10h2v2h-2z"/></g><path d="M22 10h2v2h-2z"/><path d="M24 10h2v2h-2zm10 0h2v2h-2z" class="B"/><path d="M36 10h2v2h-2z"/><g class="B"><path d="M38 10h2v2h-2z"/><path d="M40 10h2v2h-2z"/><path d="M42 10h2v2h-2z"/><path d="M44 10h2v2h-2z"/></g><path d="M46 10h2v2h-2z"/><g class="B"><path d="M48 10h2v2h-2z"/><path d="M50 10h2v2h-2z"/><path d="M52 10h2v2h-2z"/><path d="M54 10h2v2h-2z"/><path d="M56 10h2v2h-2z"/></g><path d="M58 10h2v2h-2z"/><path d="M60 10h2v2h-2zm4 0h2v2h-2z" class="B"/><path d="M66 10h2v2h-2z"/><path d="M68 10h2v2h-2z" class="E"/><path d="M70 10h2v2h-2z" class="H"/><path d="M72 10h2v2h-2z"/><path d="M74 10h2v2h-2z" class="D"/><path d="M76 10h2v2h-2z"/><g class="H"><path d="M78 10h2v2h-2z"/><path d="M80 10h2v2h-2z"/></g><path d="M82 10h2v2h-2z"/><path d="M84 10h2v2h-2z" class="D"/><path d="M86 10h2v2h-2z"/><path d="M88 10h2v2h-2z" class="H"/><path d="M90 10h2v2h-2z" class="E"/><path d="M92 10h2v2h-2z"/><path d="M94 10h2v2h-2z" class="B"/><g class="D"><path d="M110 10h2v2h-2z"/><path d="M112 10h2v2h-2z"/></g><g class="B"><path d="M132 10h2v2h-2z"/><path d="M134 10h2v2h-2zm8 0h2v2h-2z"/><path d="M144 10h2v2h-2zm8 0h2v2h-2z"/><path d="M154 10h2v2h-2zM0 12h2v2H0z"/></g><path d="M2 12h2v2H2z"/><g class="F"><path d="M4 12h2v2H4z"/><path d="M6 12h2v2H6z"/><path d="M8 12h2v2H8z"/><path d="M10 12h2v2h-2z"/><path d="M12 12h2v2h-2z"/><path d="M14 12h2v2h-2z"/><path d="M16 12h2v2h-2z"/><path d="M18 12h2v2h-2z"/><path d="M20 12h2v2h-2z"/></g><path d="M22 12h2v2h-2z"/><path d="M24 12h2v2h-2zm8 0h2v2h-2z" class="B"/><path d="M34 12h2v2h-2z"/><path d="M36 12h2v2h-2z" class="D"/><g class="B"><path d="M38 12h2v2h-2z"/><path d="M40 12h2v2h-2z"/><path d="M42 12h2v2h-2z"/><path d="M44 12h2v2h-2z"/></g><path d="M46 12h2v2h-2z"/><path d="M48 12h2v2h-2z" class="D"/><g class="B"><path d="M50 12h2v2h-2z"/><path d="M52 12h2v2h-2z"/><path d="M54 12h2v2h-2z"/><path d="M56 12h2v2h-2z"/></g><path d="M58 12h2v2h-2z" class="D"/><path d="M60 12h2v2h-2z"/><g class="B"><path d="M62 12h2v2h-2z"/><path d="M64 12h2v2h-2z"/></g><path d="M66 12h2v2h-2z"/><g class="H"><path d="M68 12h2v2h-2z"/><path d="M70 12h2v2h-2z"/></g><path d="M72 12h2v2h-2z" class="E"/><path d="M74 12h2v2h-2z"/><path d="M76 12h2v2h-2z" class="E"/><g class="H"><path d="M78 12h2v2h-2z"/><path d="M80 12h2v2h-2z"/></g><path d="M82 12h2v2h-2z" class="E"/><path d="M84 12h2v2h-2z"/><path d="M86 12h2v2h-2z" class="E"/><g class="H"><path d="M88 12h2v2h-2z"/><path d="M90 12h2v2h-2z"/></g><path d="M92 12h2v2h-2z"/><path d="M94 12h2v2h-2zm14 0h2v2h-2z" class="B"/><path d="M110 12h2v2h-2z" class="C"/><path d="M112 12h2v2h-2z"/><path d="M114 12h2v2h-2zm16 0h2v2h-2z" class="B"/><path d="M132 12h2v2h-2z" class="C"/><path d="M134 12h2v2h-2z"/><path d="M136 12h2v2h-2zm4 0h2v2h-2z" class="B"/><path d="M142 12h2v2h-2z" class="C"/><path d="M144 12h2v2h-2z"/><path d="M146 12h2v2h-2zm4 0h2v2h-2z" class="B"/><path d="M152 12h2v2h-2z" class="C"/><path d="M154 12h2v2h-2z"/><g class="B"><path d="M156 12h2v2h-2zm8 0h2v2h-2z"/><path d="M166 12h2v2h-2zm8 0h2v2h-2z"/><path d="M176 12h2v2h-2zm8 0h2v2h-2z"/><path d="M186 12h2v2h-2zM0 14h2v2H0z"/></g><path d="M2 14h2v2H2z"/><g class="F"><path d="M4 14h2v2H4z"/><path d="M6 14h2v2H6z"/><path d="M8 14h2v2H8z"/><path d="M10 14h2v2h-2z"/><path d="M12 14h2v2h-2z"/><path d="M14 14h2v2h-2z"/><path d="M16 14h2v2h-2z"/><path d="M18 14h2v2h-2z"/><path d="M20 14h2v2h-2z"/></g><path d="M22 14h2v2h-2z"/><path d="M24 14h2v2h-2zm8 0h2v2h-2z" class="B"/><path d="M34 14h2v2h-2z"/><path d="M36 14h2v2h-2z" class="B"/><path d="M38 14h2v2h-2z" class="C"/><g class="B"><path d="M40 14h2v2h-2z"/><path d="M42 14h2v2h-2z"/><path d="M44 14h2v2h-2z"/></g><path d="M46 14h2v2h-2z"/><path d="M48 14h2v2h-2z" class="D"/><g class="B"><path d="M50 14h2v2h-2z"/><path d="M52 14h2v2h-2z"/><path d="M54 14h2v2h-2z"/></g><path d="M56 14h2v2h-2z" class="C"/><path d="M58 14h2v2h-2z" class="B"/><path d="M60 14h2v2h-2z"/><g class="B"><path d="M62 14h2v2h-2z"/><path d="M64 14h2v2h-2z"/></g><path d="M66 14h2v2h-2z"/><g class="H"><path d="M68 14h2v2h-2z"/><path d="M70 14h2v2h-2z"/><path d="M72 14h2v2h-2z"/><path d="M74 14h2v2h-2z"/><path d="M76 14h2v2h-2z"/><path d="M78 14h2v2h-2z"/><path d="M80 14h2v2h-2z"/><path d="M82 14h2v2h-2z"/><path d="M84 14h2v2h-2z"/><path d="M86 14h2v2h-2z"/><path d="M88 14h2v2h-2z"/><path d="M90 14h2v2h-2z"/></g><path d="M92 14h2v2h-2z"/><path d="M94 14h2v2h-2zm12 0h2v2h-2z" class="B"/><path d="M108 14h2v2h-2z" class="C"/><path d="M110 14h2v2h-2z"/><path d="M112 14h2v2h-2z"/><path d="M114 14h2v2h-2z"/><path d="M116 14h2v2h-2zm12 0h2v2h-2z" class="B"/><path d="M130 14h2v2h-2z" class="C"/><path d="M132 14h2v2h-2z"/><path d="M134 14h2v2h-2z"/><path d="M136 14h2v2h-2z"/><path d="M138 14h2v2h-2z" class="B"/><path d="M140 14h2v2h-2z" class="C"/><path d="M142 14h2v2h-2z"/><path d="M144 14h2v2h-2z"/><path d="M146 14h2v2h-2z"/><path d="M148 14h2v2h-2z" class="B"/><path d="M150 14h2v2h-2z" class="C"/><path d="M152 14h2v2h-2z"/><path d="M154 14h2v2h-2z"/><path d="M156 14h2v2h-2z"/><path d="M158 14h2v2h-2zm4 0h2v2h-2z" class="B"/><path d="M164 14h2v2h-2z" class="C"/><path d="M166 14h2v2h-2z"/><path d="M168 14h2v2h-2zm4 0h2v2h-2z" class="B"/><path d="M174 14h2v2h-2z" class="C"/><path d="M176 14h2v2h-2z"/><path d="M178 14h2v2h-2zm4 0h2v2h-2z" class="B"/><path d="M184 14h2v2h-2z" class="C"/><path d="M186 14h2v2h-2z"/><path d="M188 14h2v2h-2zM0 16h2v2H0z" class="B"/><path d="M2 16h2v2H2z" class="C"/><path d="M4 16h2v2H4z" class="G"/><g class="F"><path d="M6 16h2v2H6z"/><path d="M8 16h2v2H8z"/><path d="M10 16h2v2h-2z"/><path d="M12 16h2v2h-2z"/><path d="M14 16h2v2h-2z"/><path d="M16 16h2v2h-2z"/><path d="M18 16h2v2h-2z"/></g><path d="M20 16h2v2h-2z" class="G"/><path d="M22 16h2v2h-2z" class="C"/><path d="M24 16h2v2h-2zm8 0h2v2h-2z" class="B"/><path d="M34 16h2v2h-2z"/><path d="M36 16h2v2h-2z" class="B"/><path d="M38 16h2v2h-2z" class="C"/><g class="B"><path d="M40 16h2v2h-2z"/><path d="M42 16h2v2h-2z"/><path d="M44 16h2v2h-2z"/></g><path d="M46 16h2v2h-2z"/><path d="M48 16h2v2h-2z" class="D"/><g class="B"><path d="M50 16h2v2h-2z"/><path d="M52 16h2v2h-2z"/><path d="M54 16h2v2h-2z"/></g><path d="M56 16h2v2h-2z" class="C"/><path d="M58 16h2v2h-2z" class="B"/><path d="M60 16h2v2h-2z"/><g class="B"><path d="M62 16h2v2h-2z"/><path d="M64 16h2v2h-2z"/></g><path d="M66 16h2v2h-2z"/><g class="E"><path d="M68 16h2v2h-2z"/><path d="M70 16h2v2h-2z"/><path d="M72 16h2v2h-2z"/><path d="M74 16h2v2h-2z"/><path d="M76 16h2v2h-2z"/><path d="M78 16h2v2h-2z"/><path d="M80 16h2v2h-2z"/><path d="M82 16h2v2h-2z"/><path d="M84 16h2v2h-2z"/><path d="M86 16h2v2h-2z"/><path d="M88 16h2v2h-2z"/><path d="M90 16h2v2h-2z"/></g><path d="M92 16h2v2h-2z"/><path d="M94 16h2v2h-2zm12 0h2v2h-2z" class="B"/><path d="M108 16h2v2h-2z"/><path d="M110 16h2v2h-2z"/><path d="M112 16h2v2h-2z"/><path d="M114 16h2v2h-2z"/><path d="M116 16h2v2h-2zm12 0h2v2h-2z" class="B"/><path d="M130 16h2v2h-2z"/><path d="M132 16h2v2h-2z"/><path d="M134 16h2v2h-2z"/><path d="M136 16h2v2h-2z"/><path d="M138 16h2v2h-2z" class="B"/><path d="M140 16h2v2h-2z"/><path d="M142 16h2v2h-2z"/><path d="M144 16h2v2h-2z"/><path d="M146 16h2v2h-2z"/><path d="M148 16h2v2h-2z" class="B"/><path d="M150 16h2v2h-2z"/><path d="M152 16h2v2h-2z"/><path d="M154 16h2v2h-2z"/><path d="M156 16h2v2h-2z"/><path d="M158 16h2v2h-2zm4 0h2v2h-2z" class="B"/><path d="M164 16h2v2h-2z"/><path d="M166 16h2v2h-2z"/><path d="M168 16h2v2h-2zm4 0h2v2h-2z" class="B"/><path d="M174 16h2v2h-2z"/><path d="M176 16h2v2h-2z"/><path d="M178 16h2v2h-2zm4 0h2v2h-2z" class="B"/><path d="M184 16h2v2h-2z"/><path d="M186 16h2v2h-2z"/><path d="M188 16h2v2h-2z" class="B"/><path d="M2 18h2v2H2z" class="D"/><path d="M4 18h2v2H4z" class="C"/><path d="M6 18h2v2H6z" class="G"/><g class="F"><path d="M8 18h2v2H8z"/><path d="M10 18h2v2h-2z"/><path d="M12 18h2v2h-2z"/><path d="M14 18h2v2h-2z"/><path d="M16 18h2v2h-2z"/></g><path d="M18 18h2v2h-2z" class="G"/><path d="M20 18h2v2h-2z" class="C"/><path d="M22 18h2v2h-2z" class="D"/><path d="M32 18h2v2h-2z" class="B"/><path d="M34 18h2v2h-2z"/><g class="D"><path d="M36 18h2v2h-2z"/><path d="M38 18h2v2h-2z"/></g><g class="B"><path d="M40 18h2v2h-2z"/><path d="M42 18h2v2h-2z"/><path d="M44 18h2v2h-2z"/></g><path d="M46 18h2v2h-2z" class="D"/><path d="M48 18h2v2h-2z"/><g class="B"><path d="M50 18h2v2h-2z"/><path d="M52 18h2v2h-2z"/><path d="M54 18h2v2h-2z"/></g><g class="D"><path d="M56 18h2v2h-2z"/><path d="M58 18h2v2h-2z"/></g><path d="M60 18h2v2h-2z"/><g class="B"><path d="M62 18h2v2h-2z"/><path d="M64 18h2v2h-2z"/></g><path d="M66 18h2v2h-2z"/><path d="M68 18h2v2h-2z" class="D"/><g class="B"><path d="M70 18h2v2h-2z"/><path d="M72 18h2v2h-2z"/><path d="M74 18h2v2h-2z"/><path d="M76 18h2v2h-2z"/><path d="M78 18h2v2h-2z"/><path d="M80 18h2v2h-2z"/><path d="M82 18h2v2h-2z"/><path d="M84 18h2v2h-2z"/><path d="M86 18h2v2h-2z"/><path d="M88 18h2v2h-2z"/></g><path d="M90 18h2v2h-2z" class="D"/><path d="M92 18h2v2h-2z"/><path d="M94 18h2v2h-2z" class="B"/><path d="M108 18h2v2h-2z" class="D"/><path d="M110 18h2v2h-2z"/><path d="M112 18h2v2h-2z"/><path d="M114 18h2v2h-2zm16 0h2v2h-2z" class="D"/><path d="M132 18h2v2h-2z"/><path d="M134 18h2v2h-2z"/><path d="M136 18h2v2h-2zm4 0h2v2h-2z" class="D"/><path d="M142 18h2v2h-2z"/><path d="M144 18h2v2h-2z"/><path d="M146 18h2v2h-2zm4 0h2v2h-2z" class="D"/><path d="M152 18h2v2h-2z"/><path d="M154 18h2v2h-2z"/><g class="D"><path d="M156 18h2v2h-2zm8 0h2v2h-2z"/><path d="M166 18h2v2h-2zm8 0h2v2h-2z"/><path d="M176 18h2v2h-2zm8 0h2v2h-2z"/><path d="M186 18h2v2h-2zM4 20h2v2H4z"/></g><path d="M6 20h2v2H6z" class="C"/><g class="G"><path d="M8 20h2v2H8z"/><path d="M10 20h2v2h-2z"/><path d="M12 20h2v2h-2z"/><path d="M14 20h2v2h-2z"/><path d="M16 20h2v2h-2z"/></g><path d="M18 20h2v2h-2z" class="C"/><path d="M20 20h2v2h-2z" class="E"/><path d="M22 20h2v2h-2z"/><path d="M24 20h2v2h-2z" class="B"/><path d="M34 20h2v2h-2z" class="D"/><path d="M36 20h2v2h-2z"/><g class="B"><path d="M38 20h2v2h-2z"/><path d="M40 20h2v2h-2z"/><path d="M42 20h2v2h-2z"/><path d="M44 20h2v2h-2z"/><path d="M46 20h2v2h-2z"/></g><path d="M48 20h2v2h-2z" class="D"/><path d="M50 20h2v2h-2z"/><g class="B"><path d="M52 20h2v2h-2z"/><path d="M54 20h2v2h-2z"/><path d="M56 20h2v2h-2z"/></g><path d="M58 20h2v2h-2z"/><path d="M60 20h2v2h-2z" class="D"/><path d="M64 20h2v2h-2z" class="B"/><path d="M66 20h2v2h-2z"/><g class="B"><path d="M68 20h2v2h-2z"/><path d="M70 20h2v2h-2z"/><path d="M72 20h2v2h-2z"/><path d="M74 20h2v2h-2z"/></g><g class="J"><path d="M76 20h2v2h-2z"/><path d="M78 20h2v2h-2z"/><path d="M80 20h2v2h-2z"/></g><path d="M82 20h2v2h-2z" class="B"/><g class="J"><path d="M84 20h2v2h-2z"/><path d="M86 20h2v2h-2z"/><path d="M88 20h2v2h-2z"/></g><path d="M90 20h2v2h-2z" class="B"/><path d="M92 20h2v2h-2z"/><path d="M94 20h2v2h-2z" class="B"/><g class="D"><path d="M110 20h2v2h-2z"/><path d="M112 20h2v2h-2zm20 0h2v2h-2z"/><path d="M134 20h2v2h-2zm8 0h2v2h-2z"/><path d="M144 20h2v2h-2zm8 0h2v2h-2z"/><path d="M154 20h2v2h-2zM6 22h2v2H6z"/></g><path d="M8 22h2v2H8z" class="C"/><path d="M10 22h2v2h-2z"/><path d="M12 22h2v2h-2z"/><path d="M14 22h2v2h-2z"/><path d="M16 22h2v2h-2z" class="C"/><path d="M18 22h2v2h-2z" class="D"/><path d="M20 22h2v2h-2z" class="C"/><path d="M22 22h2v2h-2z" class="E"/><path d="M24 22h2v2h-2z"/><path d="M26 22h2v2h-2zm8 0h2v2h-2z" class="B"/><path d="M36 22h2v2h-2z" class="C"/><path d="M38 22h2v2h-2z" class="D"/><g class="B"><path d="M40 22h2v2h-2z"/><path d="M42 22h2v2h-2z"/><path d="M44 22h2v2h-2z"/><path d="M46 22h2v2h-2z"/><path d="M48 22h2v2h-2z"/></g><path d="M50 22h2v2h-2z" class="D"/><g class="B"><path d="M52 22h2v2h-2z"/><path d="M54 22h2v2h-2z"/></g><path d="M56 22h2v2h-2z" class="D"/><path d="M58 22h2v2h-2z" class="C"/><path d="M60 22h2v2h-2zm4 0h2v2h-2z" class="B"/><path d="M66 22h2v2h-2z"/><g class="B"><path d="M68 22h2v2h-2z"/><path d="M70 22h2v2h-2z"/><path d="M72 22h2v2h-2z"/><path d="M74 22h2v2h-2z"/></g><path d="M76 22h2v2h-2z" class="J"/><path fill="#e9d8a1" d="M78 22h2v2h-2z"/><path d="M80 22h2v2h-2z" class="J"/><path d="M82 22h2v2h-2z" class="B"/><path d="M84 22h2v2h-2z" class="J"/><path fill="#e9d8a1" d="M86 22h2v2h-2z"/><path d="M88 22h2v2h-2z" class="J"/><path d="M90 22h2v2h-2z" class="B"/><path d="M92 22h2v2h-2z"/><path d="M94 22h2v2h-2zm14 0h2v2h-2z" class="B"/><path d="M110 22h2v2h-2z" class="C"/><path d="M112 22h2v2h-2z"/><g class="B"><path d="M114 22h2v2h-2zm50 0h2v2h-2z"/><path d="M166 22h2v2h-2zm8 0h2v2h-2z"/><path d="M176 22h2v2h-2zm8 0h2v2h-2z"/><path d="M186 22h2v2h-2z"/></g><g class="D"><path d="M8 24h2v2H8z"/><path d="M10 24h2v2h-2z"/><path d="M12 24h2v2h-2z"/><path d="M14 24h2v2h-2z"/><path d="M16 24h2v2h-2zm4 0h2v2h-2z"/></g><path d="M22 24h2v2h-2z" class="C"/><path d="M24 24h2v2h-2z" class="E"/><path d="M26 24h2v2h-2z"/><path d="M28 24h2v2h-2z" class="B"/><path d="M36 24h2v2h-2z" class="D"/><path d="M38 24h2v2h-2z" class="C"/><path d="M40 24h2v2h-2z" class="D"/><g class="B"><path d="M42 24h2v2h-2z"/><path d="M44 24h2v2h-2z"/></g><g class="C"><path d="M46 24h2v2h-2z"/><path d="M48 24h2v2h-2z"/></g><g class="B"><path d="M50 24h2v2h-2z"/><path d="M52 24h2v2h-2z"/></g><path d="M54 24h2v2h-2z" class="D"/><path d="M56 24h2v2h-2z" class="C"/><path d="M58 24h2v2h-2z" class="D"/><path d="M64 24h2v2h-2z" class="B"/><path d="M66 24h2v2h-2z"/><g class="B"><path d="M68 24h2v2h-2z"/><path d="M70 24h2v2h-2z"/><path d="M72 24h2v2h-2z"/><path d="M74 24h2v2h-2z"/><path d="M76 24h2v2h-2z"/></g><g class="J"><path d="M78 24h2v2h-2z"/><path d="M80 24h2v2h-2z"/></g><g class="B"><path d="M82 24h2v2h-2z"/><path d="M84 24h2v2h-2z"/></g><g class="J"><path d="M86 24h2v2h-2z"/><path d="M88 24h2v2h-2z"/></g><path d="M90 24h2v2h-2z" class="B"/><path d="M92 24h2v2h-2z"/><path d="M94 24h2v2h-2zm12 0h2v2h-2z" class="B"/><path d="M108 24h2v2h-2z" class="C"/><path d="M110 24h2v2h-2z"/><path d="M112 24h2v2h-2z"/><path d="M114 24h2v2h-2z"/><path d="M116 24h2v2h-2zm46 0h2v2h-2z" class="B"/><path d="M164 24h2v2h-2z" class="C"/><path d="M166 24h2v2h-2z"/><path d="M168 24h2v2h-2zm4 0h2v2h-2z" class="B"/><path d="M174 24h2v2h-2z" class="C"/><path d="M176 24h2v2h-2z"/><path d="M178 24h2v2h-2zm4 0h2v2h-2z" class="B"/><path d="M184 24h2v2h-2z" class="C"/><path d="M186 24h2v2h-2z"/><path d="M188 24h2v2h-2z" class="B"/><path d="M22 26h2v2h-2z" class="D"/><path d="M24 26h2v2h-2z" class="C"/><path d="M26 26h2v2h-2z" class="E"/><path d="M28 26h2v2h-2z"/><path d="M30 26h2v2h-2z" class="B"/><path d="M38 26h2v2h-2z" class="D"/><path d="M40 26h2v2h-2z" class="C"/><path d="M42 26h2v2h-2z"/><g class="D"><path d="M44 26h2v2h-2z"/><path d="M46 26h2v2h-2z"/><path d="M48 26h2v2h-2z"/><path d="M50 26h2v2h-2z"/></g><path d="M52 26h2v2h-2z"/><path d="M54 26h2v2h-2z" class="C"/><path d="M56 26h2v2h-2z" class="D"/><path d="M64 26h2v2h-2z" class="B"/><path d="M66 26h2v2h-2z"/><path d="M68 26h2v2h-2z" class="D"/><g class="B"><path d="M70 26h2v2h-2z"/><path d="M72 26h2v2h-2z"/><path d="M74 26h2v2h-2z"/><path d="M76 26h2v2h-2z"/><path d="M78 26h2v2h-2z"/><path d="M80 26h2v2h-2z"/><path d="M82 26h2v2h-2z"/><path d="M84 26h2v2h-2z"/><path d="M86 26h2v2h-2z"/><path d="M88 26h2v2h-2z"/></g><path d="M90 26h2v2h-2z" class="D"/><path d="M92 26h2v2h-2z"/><path d="M94 26h2v2h-2zm12 0h2v2h-2z" class="B"/><path d="M108 26h2v2h-2z"/><path d="M110 26h2v2h-2z"/><path d="M112 26h2v2h-2z"/><path d="M114 26h2v2h-2z"/><path d="M116 26h2v2h-2zm46 0h2v2h-2z" class="B"/><path d="M164 26h2v2h-2z"/><path d="M166 26h2v2h-2z"/><path d="M168 26h2v2h-2zm4 0h2v2h-2z" class="B"/><path d="M174 26h2v2h-2z"/><path d="M176 26h2v2h-2z"/><path d="M178 26h2v2h-2zm4 0h2v2h-2z" class="B"/><path d="M184 26h2v2h-2z"/><path d="M186 26h2v2h-2z"/><path d="M188 26h2v2h-2z" class="B"/><path d="M24 28h2v2h-2z" class="D"/><path d="M26 28h2v2h-2z"/><g class="D"><path d="M28 28h2v2h-2zm12 0h2v2h-2z"/><path d="M42 28h2v2h-2z"/></g><path d="M44 28h2v2h-2z"/><path d="M46 28h2v2h-2z"/><path d="M48 28h2v2h-2z"/><path d="M50 28h2v2h-2z"/><g class="D"><path d="M52 28h2v2h-2z"/><path d="M54 28h2v2h-2zm12 0h2v2h-2z"/></g><path d="M68 28h2v2h-2z"/><path d="M70 28h2v2h-2z"/><path d="M72 28h2v2h-2z"/><path d="M74 28h2v2h-2z"/><path d="M76 28h2v2h-2z"/><path d="M78 28h2v2h-2z"/><path d="M80 28h2v2h-2z"/><path d="M82 28h2v2h-2z"/><path d="M84 28h2v2h-2z"/><path d="M86 28h2v2h-2z"/><path d="M88 28h2v2h-2z"/><path d="M90 28h2v2h-2z"/><path d="M92 28h2v2h-2zm16 0h2v2h-2z" class="D"/><path d="M110 28h2v2h-2z"/><path d="M112 28h2v2h-2z"/><g class="D"><path d="M114 28h2v2h-2zm50 0h2v2h-2z"/><path d="M166 28h2v2h-2zm8 0h2v2h-2z"/><path d="M176 28h2v2h-2zm8 0h2v2h-2z"/><path d="M186 28h2v2h-2zM26 30h2v2h-2zm18 0h2v2h-2z"/><path d="M46 30h2v2h-2z"/><path d="M48 30h2v2h-2z"/><path d="M50 30h2v2h-2zm18 0h2v2h-2z"/><path d="M70 30h2v2h-2z"/><path d="M72 30h2v2h-2z"/><path d="M74 30h2v2h-2z"/><path d="M76 30h2v2h-2z"/><path d="M78 30h2v2h-2z"/><path d="M80 30h2v2h-2z"/><path d="M82 30h2v2h-2z"/><path d="M84 30h2v2h-2z"/><path d="M86 30h2v2h-2z"/><path d="M88 30h2v2h-2z"/><path d="M90 30h2v2h-2zm20 0h2v2h-2z"/><path d="M112 30h2v2h-2z"/></g><g class="B"><path d="M68 32h2v2h-2z"/><path d="M70 32h2v2h-2z"/><path d="M72 32h2v2h-2z"/><path d="M74 32h2v2h-2z"/><path d="M76 32h2v2h-2z"/><path d="M78 32h2v2h-2z"/><path d="M80 32h2v2h-2z"/><path d="M82 32h2v2h-2z"/><path d="M84 32h2v2h-2z"/><path d="M86 32h2v2h-2z"/><path d="M88 32h2v2h-2z"/><path d="M90 32h2v2h-2z"/><path d="M92 32h2v2h-2zm8 0h2v2h-2z"/><path d="M102 32h2v2h-2z"/><path d="M104 32h2v2h-2z"/><path d="M106 32h2v2h-2z"/><path d="M108 32h2v2h-2z"/><path d="M110 32h2v2h-2z"/><path d="M112 32h2v2h-2z"/><path d="M114 32h2v2h-2z"/><path d="M116 32h2v2h-2z"/><path d="M118 32h2v2h-2z"/><path d="M120 32h2v2h-2z"/><path d="M122 32h2v2h-2z"/><path d="M124 32h2v2h-2zM8 34h2v2H8z"/><path d="M10 34h2v2h-2zm10 0h2v2h-2z"/><path d="M22 34h2v2h-2zm18 0h2v2h-2z"/><path d="M42 34h2v2h-2zm10 0h2v2h-2z"/><path d="M54 34h2v2h-2zm12 0h2v2h-2z"/></g><path d="M68 34h2v2h-2z" class="C"/><path d="M70 34h2v2h-2z"/><path d="M72 34h2v2h-2z"/><path d="M74 34h2v2h-2z"/><path d="M76 34h2v2h-2z"/><path d="M78 34h2v2h-2z"/><path d="M80 34h2v2h-2z"/><path d="M82 34h2v2h-2z"/><path d="M84 34h2v2h-2z"/><path d="M86 34h2v2h-2z"/><path d="M88 34h2v2h-2z"/><path d="M90 34h2v2h-2z"/><path d="M92 34h2v2h-2z"/><path d="M94 34h2v2h-2zm4 0h2v2h-2z" class="B"/><path d="M100 34h2v2h-2z" class="C"/><path d="M102 34h2v2h-2z"/><path d="M104 34h2v2h-2z"/><path d="M106 34h2v2h-2z"/><path d="M108 34h2v2h-2z"/><path d="M110 34h2v2h-2z"/><path d="M112 34h2v2h-2z"/><path d="M114 34h2v2h-2z"/><path d="M116 34h2v2h-2z"/><path d="M118 34h2v2h-2z"/><path d="M120 34h2v2h-2z"/><path d="M122 34h2v2h-2z"/><path d="M124 34h2v2h-2z"/><path d="M126 34h2v2h-2zM6 36h2v2H6z" class="B"/><path d="M8 36h2v2H8z"/><path d="M10 36h2v2h-2z"/><path d="M12 36h2v2h-2zm6 0h2v2h-2z" class="B"/><path d="M20 36h2v2h-2z"/><path d="M22 36h2v2h-2z"/><path d="M24 36h2v2h-2zm14 0h2v2h-2z" class="B"/><path d="M40 36h2v2h-2z"/><path d="M42 36h2v2h-2z"/><path d="M44 36h2v2h-2zm6 0h2v2h-2z" class="B"/><path d="M52 36h2v2h-2z"/><path d="M54 36h2v2h-2z"/><path d="M56 36h2v2h-2zm8 0h2v2h-2z" class="B"/><path d="M66 36h2v2h-2z" class="C"/><path d="M68 36h2v2h-2z" class="D"/><g class="B"><path d="M70 36h2v2h-2z"/><path d="M72 36h2v2h-2z"/><path d="M74 36h2v2h-2z"/><path d="M76 36h2v2h-2z"/><path d="M78 36h2v2h-2z"/><path d="M80 36h2v2h-2z"/><path d="M82 36h2v2h-2z"/><path d="M84 36h2v2h-2z"/><path d="M86 36h2v2h-2z"/></g><path d="M88 36h2v2h-2z" class="D"/><path d="M90 36h2v2h-2z" class="C"/><path d="M92 36h2v2h-2z" class="D"/><path d="M96 36h2v2h-2z" class="B"/><path d="M98 36h2v2h-2z" class="C"/><path d="M100 36h2v2h-2z" class="K"/><g class="I"><path d="M102 36h2v2h-2z"/><path d="M104 36h2v2h-2z"/><path d="M106 36h2v2h-2z"/><path d="M108 36h2v2h-2z"/><path d="M110 36h2v2h-2z"/><path d="M112 36h2v2h-2z"/><path d="M114 36h2v2h-2z"/><path d="M116 36h2v2h-2z"/><path d="M118 36h2v2h-2z"/></g><path d="M120 36h2v2h-2z" class="K"/><path d="M122 36h2v2h-2z" class="C"/><path d="M124 36h2v2h-2z" class="D"/><path d="M4 38h2v2H4z" class="B"/><path d="M6 38h2v2H6z" class="C"/><g class="D"><path d="M8 38h2v2H8z"/><path d="M10 38h2v2h-2z"/></g><path d="M12 38h2v2h-2z" class="C"/><g class="B"><path d="M14 38h2v2h-2z"/><path d="M16 38h2v2h-2z"/></g><path d="M18 38h2v2h-2z" class="C"/><g class="D"><path d="M20 38h2v2h-2z"/><path d="M22 38h2v2h-2z"/></g><path d="M24 38h2v2h-2z" class="C"/><path d="M26 38h2v2h-2zm10 0h2v2h-2z" class="B"/><path d="M38 38h2v2h-2z" class="C"/><g class="E"><path d="M40 38h2v2h-2z"/><path d="M42 38h2v2h-2z"/></g><path d="M44 38h2v2h-2z" class="C"/><g class="B"><path d="M46 38h2v2h-2z"/><path d="M48 38h2v2h-2z"/></g><path d="M50 38h2v2h-2z" class="C"/><g class="E"><path d="M52 38h2v2h-2z"/><path d="M54 38h2v2h-2z"/></g><path d="M56 38h2v2h-2z" class="C"/><path d="M58 38h2v2h-2zm6 0h2v2h-2z" class="B"/><path d="M66 38h2v2h-2z"/><g class="B"><path d="M68 38h2v2h-2z"/><path d="M70 38h2v2h-2z"/><path d="M72 38h2v2h-2z"/><path d="M74 38h2v2h-2z"/><path d="M76 38h2v2h-2z"/><path d="M78 38h2v2h-2z"/><path d="M80 38h2v2h-2z"/><path d="M82 38h2v2h-2z"/><path d="M84 38h2v2h-2z"/><path d="M86 38h2v2h-2z"/></g><path d="M88 38h2v2h-2z" class="C"/><path d="M90 38h2v2h-2z" class="D"/><path d="M96 38h2v2h-2z" class="B"/><path d="M98 38h2v2h-2z"/><g class="I"><path d="M100 38h2v2h-2z"/><path d="M102 38h2v2h-2z"/><path d="M104 38h2v2h-2z"/><path d="M106 38h2v2h-2z"/><path d="M108 38h2v2h-2z"/><path d="M110 38h2v2h-2z"/><path d="M112 38h2v2h-2z"/><path d="M114 38h2v2h-2z"/><path d="M116 38h2v2h-2z"/><path d="M118 38h2v2h-2z"/></g><path d="M120 38h2v2h-2z" class="C"/><path d="M122 38h2v2h-2z" class="D"/><path d="M2 40h2v2H2z" class="B"/><path d="M4 40h2v2H4z" class="C"/><path d="M6 40h2v2H6z" class="D"/><g class="B"><path d="M8 40h2v2H8z"/><path d="M10 40h2v2h-2z"/></g><path d="M12 40h2v2h-2z" class="D"/><g class="C"><path d="M14 40h2v2h-2z"/><path d="M16 40h2v2h-2z"/></g><path d="M18 40h2v2h-2z" class="D"/><g class="B"><path d="M20 40h2v2h-2z"/><path d="M22 40h2v2h-2z"/></g><path d="M24 40h2v2h-2z" class="D"/><path d="M26 40h2v2h-2z" class="C"/><path d="M28 40h2v2h-2zm6 0h2v2h-2z" class="B"/><path d="M36 40h2v2h-2z" class="C"/><path d="M38 40h2v2h-2z" class="E"/><g class="J"><path d="M40 40h2v2h-2z"/><path d="M42 40h2v2h-2z"/></g><path d="M44 40h2v2h-2z" class="E"/><g class="C"><path d="M46 40h2v2h-2z"/><path d="M48 40h2v2h-2z"/></g><path d="M50 40h2v2h-2z" class="E"/><g class="H"><path d="M52 40h2v2h-2z"/><path d="M54 40h2v2h-2z"/></g><path d="M56 40h2v2h-2z" class="E"/><path d="M58 40h2v2h-2z" class="C"/><path d="M60 40h2v2h-2zm4 0h2v2h-2z" class="B"/><path d="M66 40h2v2h-2z"/><path d="M68 40h2v2h-2z" class="B"/><path d="M70 40h2v2h-2z" class="D"/><path d="M72 40h2v2h-2z" class="C"/><path d="M74 40h2v2h-2z" class="B"/><path d="M76 40h2v2h-2z" class="D"/><path d="M78 40h2v2h-2z" class="C"/><path d="M80 40h2v2h-2z" class="B"/><path d="M82 40h2v2h-2z" class="D"/><path d="M84 40h2v2h-2z" class="C"/><path d="M86 40h2v2h-2z" class="B"/><path d="M88 40h2v2h-2z"/><path d="M90 40h2v2h-2zm6 0h2v2h-2z" class="B"/><path d="M98 40h2v2h-2z"/><path d="M100 40h2v2h-2z" class="I"/><path d="M102 40h2v2h-2z" class="K"/><path d="M104 40h2v2h-2z" class="C"/><path d="M106 40h2v2h-2z" class="I"/><path d="M108 40h2v2h-2z" class="K"/><path d="M110 40h2v2h-2z" class="C"/><path d="M112 40h2v2h-2z" class="I"/><path d="M114 40h2v2h-2z" class="K"/><path d="M116 40h2v2h-2z" class="C"/><path d="M118 40h2v2h-2z" class="I"/><path d="M120 40h2v2h-2z"/><path d="M122 40h2v2h-2zM0 42h2v2H0z" class="B"/><path d="M2 42h2v2H2z"/><path d="M4 42h2v2H4z" class="D"/><g class="B"><path d="M6 42h2v2H6z"/><path d="M8 42h2v2H8z"/><path d="M10 42h2v2h-2z"/><path d="M12 42h2v2h-2z"/></g><g class="D"><path d="M14 42h2v2h-2z"/><path d="M16 42h2v2h-2z"/></g><g class="B"><path d="M18 42h2v2h-2z"/><path d="M20 42h2v2h-2z"/><path d="M22 42h2v2h-2z"/><path d="M24 42h2v2h-2z"/></g><path d="M26 42h2v2h-2z" class="D"/><path d="M28 42h2v2h-2z"/><g class="B"><path d="M30 42h2v2h-2z"/><path d="M32 42h2v2h-2z"/></g><path d="M34 42h2v2h-2z"/><path d="M36 42h2v2h-2z" class="E"/><path d="M38 42h2v2h-2z" class="J"/><g class="H"><path d="M40 42h2v2h-2z"/><path d="M42 42h2v2h-2z"/><path d="M44 42h2v2h-2z"/></g><g class="E"><path d="M46 42h2v2h-2z"/><path d="M48 42h2v2h-2z"/></g><g class="H"><path d="M50 42h2v2h-2z"/><path d="M52 42h2v2h-2z"/><path d="M54 42h2v2h-2z"/><path d="M56 42h2v2h-2z"/></g><path d="M58 42h2v2h-2z" class="E"/><path d="M60 42h2v2h-2z"/><g class="B"><path d="M62 42h2v2h-2z"/><path d="M64 42h2v2h-2z"/></g><path d="M66 42h2v2h-2z"/><path d="M68 42h2v2h-2z" class="B"/><path d="M70 42h2v2h-2z" class="C"/><path d="M72 42h2v2h-2z"/><path d="M74 42h2v2h-2z" class="B"/><path d="M76 42h2v2h-2z" class="C"/><path d="M78 42h2v2h-2z"/><path d="M80 42h2v2h-2z" class="B"/><path d="M82 42h2v2h-2z" class="C"/><path d="M84 42h2v2h-2z"/><path d="M86 42h2v2h-2z" class="B"/><path d="M88 42h2v2h-2z"/><path d="M90 42h2v2h-2zm6 0h2v2h-2z" class="B"/><path d="M98 42h2v2h-2z"/><path d="M100 42h2v2h-2z" class="I"/><path d="M102 42h2v2h-2z" class="C"/><path d="M104 42h2v2h-2z"/><path d="M106 42h2v2h-2z" class="I"/><path d="M108 42h2v2h-2z" class="C"/><path d="M110 42h2v2h-2z"/><path d="M112 42h2v2h-2z" class="I"/><path d="M114 42h2v2h-2z" class="C"/><path d="M116 42h2v2h-2z"/><path d="M118 42h2v2h-2z" class="I"/><path d="M120 42h2v2h-2z"/><path d="M122 42h2v2h-2zM0 44h2v2H0z" class="B"/><path d="M2 44h2v2H2z"/><path d="M4 44h2v2H4z" class="D"/><g class="B"><path d="M6 44h2v2H6z"/><path d="M8 44h2v2H8z"/><path d="M10 44h2v2h-2z"/><path d="M12 44h2v2h-2z"/><path d="M14 44h2v2h-2z"/><path d="M16 44h2v2h-2z"/><path d="M18 44h2v2h-2z"/><path d="M20 44h2v2h-2z"/><path d="M22 44h2v2h-2z"/><path d="M24 44h2v2h-2z"/></g><path d="M26 44h2v2h-2z" class="D"/><path d="M28 44h2v2h-2z"/><g class="B"><path d="M30 44h2v2h-2z"/><path d="M32 44h2v2h-2z"/></g><path d="M34 44h2v2h-2z"/><path d="M36 44h2v2h-2z" class="E"/><path d="M38 44h2v2h-2z" class="J"/><g class="H"><path d="M40 44h2v2h-2z"/><path d="M42 44h2v2h-2z"/><path d="M44 44h2v2h-2z"/><path d="M46 44h2v2h-2z"/><path d="M48 44h2v2h-2z"/><path d="M50 44h2v2h-2z"/><path d="M52 44h2v2h-2z"/><path d="M54 44h2v2h-2z"/><path d="M56 44h2v2h-2z"/></g><path d="M58 44h2v2h-2z" class="E"/><path d="M60 44h2v2h-2z"/><g class="B"><path d="M62 44h2v2h-2z"/><path d="M64 44h2v2h-2z"/></g><path d="M66 44h2v2h-2z"/><g class="B"><path d="M68 44h2v2h-2z"/><path d="M70 44h2v2h-2z"/><path d="M72 44h2v2h-2z"/><path d="M74 44h2v2h-2z"/><path d="M76 44h2v2h-2z"/><path d="M78 44h2v2h-2z"/><path d="M80 44h2v2h-2z"/><path d="M82 44h2v2h-2z"/><path d="M84 44h2v2h-2z"/><path d="M86 44h2v2h-2z"/></g><path d="M88 44h2v2h-2z"/><path d="M90 44h2v2h-2zm6 0h2v2h-2z" class="B"/><path d="M98 44h2v2h-2z"/><g class="I"><path d="M100 44h2v2h-2z"/><path d="M102 44h2v2h-2z"/><path d="M104 44h2v2h-2z"/><path d="M106 44h2v2h-2z"/><path d="M108 44h2v2h-2z"/><path d="M110 44h2v2h-2z"/><path d="M112 44h2v2h-2z"/><path d="M114 44h2v2h-2z"/><path d="M116 44h2v2h-2z"/><path d="M118 44h2v2h-2z"/></g><path d="M120 44h2v2h-2z"/><path d="M122 44h2v2h-2zM0 46h2v2H0z" class="B"/><path d="M2 46h2v2H2z"/><path d="M4 46h2v2H4z" class="D"/><g class="B"><path d="M6 46h2v2H6z"/><path d="M8 46h2v2H8z"/><path d="M10 46h2v2h-2z"/><path d="M12 46h2v2h-2z"/><path d="M14 46h2v2h-2z"/><path d="M16 46h2v2h-2z"/><path d="M18 46h2v2h-2z"/><path d="M20 46h2v2h-2z"/><path d="M22 46h2v2h-2z"/><path d="M24 46h2v2h-2z"/></g><path d="M26 46h2v2h-2z" class="D"/><path d="M28 46h2v2h-2z"/><g class="B"><path d="M30 46h2v2h-2z"/><path d="M32 46h2v2h-2z"/></g><path d="M34 46h2v2h-2z"/><path d="M36 46h2v2h-2z" class="E"/><g class="H"><path d="M38 46h2v2h-2z"/><path d="M40 46h2v2h-2z"/><path d="M42 46h2v2h-2z"/><path d="M44 46h2v2h-2z"/><path d="M46 46h2v2h-2z"/><path d="M48 46h2v2h-2z"/><path d="M50 46h2v2h-2z"/><path d="M52 46h2v2h-2z"/><path d="M54 46h2v2h-2z"/><path d="M56 46h2v2h-2z"/></g><path d="M58 46h2v2h-2z" class="E"/><path d="M60 46h2v2h-2z"/><g class="B"><path d="M62 46h2v2h-2z"/><path d="M64 46h2v2h-2z"/></g><path d="M66 46h2v2h-2z" class="C"/><path d="M68 46h2v2h-2z" class="D"/><path d="M70 46h2v2h-2z" class="B"/><path d="M72 46h2v2h-2z" class="C"/><path d="M74 46h2v2h-2z"/><path d="M76 46h2v2h-2z"/><path d="M78 46h2v2h-2z"/><path d="M80 46h2v2h-2z"/><path d="M82 46h2v2h-2z"/><path d="M84 46h2v2h-2z"/><path d="M86 46h2v2h-2z"/><path d="M88 46h2v2h-2z"/><path d="M90 46h2v2h-2z" class="C"/><path d="M92 46h2v2h-2zm4 0h2v2h-2z" class="B"/><path d="M98 46h2v2h-2z" class="C"/><path d="M100 46h2v2h-2z" class="K"/><path d="M102 46h2v2h-2z" class="I"/><path d="M104 46h2v2h-2z" class="C"/><path d="M106 46h2v2h-2z"/><path d="M108 46h2v2h-2z"/><path d="M110 46h2v2h-2z"/><path d="M112 46h2v2h-2z"/><path d="M114 46h2v2h-2z"/><path d="M116 46h2v2h-2z"/><path d="M118 46h2v2h-2z"/><path d="M120 46h2v2h-2z"/><path d="M122 46h2v2h-2z" class="C"/><path d="M124 46h2v2h-2z" class="B"/><path d="M2 48h2v2H2z" class="D"/><path d="M4 48h2v2H4z" class="C"/><path d="M6 48h2v2H6z" class="D"/><g class="B"><path d="M8 48h2v2H8z"/><path d="M10 48h2v2h-2z"/><path d="M12 48h2v2h-2z"/><path d="M14 48h2v2h-2z"/><path d="M16 48h2v2h-2z"/><path d="M18 48h2v2h-2z"/><path d="M20 48h2v2h-2z"/><path d="M22 48h2v2h-2z"/></g><path d="M24 48h2v2h-2z" class="D"/><path d="M26 48h2v2h-2z" class="C"/><path d="M28 48h2v2h-2zm6 0h2v2h-2z" class="D"/><path d="M36 48h2v2h-2z" class="C"/><path d="M38 48h2v2h-2z" class="E"/><g class="H"><path d="M40 48h2v2h-2z"/><path d="M42 48h2v2h-2z"/><path d="M44 48h2v2h-2z"/><path d="M46 48h2v2h-2z"/><path d="M48 48h2v2h-2z"/><path d="M50 48h2v2h-2z"/><path d="M52 48h2v2h-2z"/><path d="M54 48h2v2h-2z"/></g><path d="M56 48h2v2h-2z" class="E"/><path d="M58 48h2v2h-2z" class="C"/><path d="M60 48h2v2h-2zm6 0h2v2h-2z" class="D"/><path d="M68 48h2v2h-2z"/><path d="M70 48h2v2h-2z" class="C"/><path d="M72 48h2v2h-2z" class="D"/><g class="B"><path d="M74 48h2v2h-2z"/><path d="M76 48h2v2h-2z"/><path d="M78 48h2v2h-2z"/><path d="M80 48h2v2h-2z"/><path d="M82 48h2v2h-2z"/><path d="M84 48h2v2h-2z"/><path d="M86 48h2v2h-2z"/><path d="M88 48h2v2h-2z"/></g><path d="M90 48h2v2h-2z" class="D"/><path d="M92 48h2v2h-2z" class="C"/><path d="M94 48h2v2h-2z" class="B"/><path d="M98 48h2v2h-2z" class="D"/><path d="M100 48h2v2h-2z"/><path d="M102 48h2v2h-2z" class="C"/><path d="M104 48h2v2h-2z" class="G"/><g class="F"><path d="M106 48h2v2h-2z"/><path d="M108 48h2v2h-2z"/><path d="M110 48h2v2h-2z"/><path d="M112 48h2v2h-2z"/><path d="M114 48h2v2h-2z"/><path d="M116 48h2v2h-2z"/><path d="M118 48h2v2h-2z"/><path d="M120 48h2v2h-2z"/></g><path d="M122 48h2v2h-2z" class="G"/><path d="M124 48h2v2h-2z" class="C"/><path d="M126 48h2v2h-2z" class="B"/><path d="M4 50h2v2H4z" class="D"/><path d="M6 50h2v2H6z" class="C"/><path d="M8 50h2v2H8z" class="D"/><g class="B"><path d="M10 50h2v2h-2z"/><path d="M12 50h2v2h-2z"/><path d="M14 50h2v2h-2z"/><path d="M16 50h2v2h-2z"/><path d="M18 50h2v2h-2z"/><path d="M20 50h2v2h-2z"/></g><path d="M22 50h2v2h-2z" class="D"/><path d="M24 50h2v2h-2z" class="C"/><path d="M26 50h2v2h-2zm10 0h2v2h-2z" class="D"/><path d="M38 50h2v2h-2z" class="C"/><path d="M40 50h2v2h-2z" class="E"/><g class="H"><path d="M42 50h2v2h-2z"/><path d="M44 50h2v2h-2z"/><path d="M46 50h2v2h-2z"/><path d="M48 50h2v2h-2z"/><path d="M50 50h2v2h-2z"/><path d="M52 50h2v2h-2z"/></g><path d="M54 50h2v2h-2z" class="E"/><path d="M56 50h2v2h-2z" class="C"/><path d="M58 50h2v2h-2zm10 0h2v2h-2z" class="D"/><path d="M70 50h2v2h-2z"/><g class="B"><path d="M72 50h2v2h-2z"/><path d="M74 50h2v2h-2z"/><path d="M76 50h2v2h-2z"/><path d="M78 50h2v2h-2z"/><path d="M80 50h2v2h-2z"/><path d="M82 50h2v2h-2z"/><path d="M84 50h2v2h-2z"/><path d="M86 50h2v2h-2z"/><path d="M88 50h2v2h-2z"/><path d="M90 50h2v2h-2z"/></g><path d="M92 50h2v2h-2z"/><path d="M94 50h2v2h-2z" class="B"/><path d="M100 50h2v2h-2z" class="D"/><path d="M102 50h2v2h-2z"/><g class="F"><path d="M104 50h2v2h-2z"/><path d="M106 50h2v2h-2z"/><path d="M108 50h2v2h-2z"/><path d="M110 50h2v2h-2z"/><path d="M112 50h2v2h-2z"/><path d="M114 50h2v2h-2z"/><path d="M116 50h2v2h-2z"/><path d="M118 50h2v2h-2z"/><path d="M120 50h2v2h-2z"/><path d="M122 50h2v2h-2z"/></g><path d="M124 50h2v2h-2z"/><path d="M126 50h2v2h-2z" class="B"/><path d="M6 52h2v2H6z" class="D"/><path d="M8 52h2v2H8z" class="C"/><path d="M10 52h2v2h-2z" class="D"/><g class="B"><path d="M12 52h2v2h-2z"/><path d="M14 52h2v2h-2z"/><path d="M16 52h2v2h-2z"/><path d="M18 52h2v2h-2z"/></g><path d="M20 52h2v2h-2z" class="D"/><path d="M22 52h2v2h-2z" class="C"/><path d="M24 52h2v2h-2zm14 0h2v2h-2z" class="D"/><path d="M40 52h2v2h-2z" class="C"/><path d="M42 52h2v2h-2z" class="E"/><g class="H"><path d="M44 52h2v2h-2z"/><path d="M46 52h2v2h-2z"/><path d="M48 52h2v2h-2z"/><path d="M50 52h2v2h-2z"/></g><path d="M52 52h2v2h-2z" class="E"/><path d="M54 52h2v2h-2z" class="C"/><path d="M56 52h2v2h-2z" class="D"/><path d="M68 52h2v2h-2z" class="B"/><path d="M70 52h2v2h-2z"/><path d="M72 52h2v2h-2z" class="B"/><path d="M74 52h2v2h-2z" class="D"/><path d="M76 52h2v2h-2z" class="C"/><path d="M78 52h2v2h-2z" class="B"/><path d="M80 52h2v2h-2z" class="D"/><path d="M82 52h2v2h-2z" class="C"/><path d="M84 52h2v2h-2z" class="B"/><path d="M86 52h2v2h-2z" class="D"/><path d="M88 52h2v2h-2z" class="C"/><path d="M90 52h2v2h-2z" class="B"/><path d="M92 52h2v2h-2z"/><path d="M94 52h2v2h-2zm6 0h2v2h-2z" class="B"/><path d="M102 52h2v2h-2z"/><path d="M104 52h2v2h-2z" class="F"/><path d="M106 52h2v2h-2z" class="G"/><path d="M108 52h2v2h-2z" class="C"/><path d="M110 52h2v2h-2z" class="F"/><path d="M112 52h2v2h-2z" class="G"/><path d="M114 52h2v2h-2z" class="C"/><path d="M116 52h2v2h-2z" class="F"/><path d="M118 52h2v2h-2z" class="G"/><path d="M120 52h2v2h-2z" class="C"/><path d="M122 52h2v2h-2z" class="F"/><path d="M124 52h2v2h-2z"/><path d="M126 52h2v2h-2z" class="B"/><path d="M8 54h2v2H8z" class="D"/><path d="M10 54h2v2h-2z" class="C"/><path d="M12 54h2v2h-2z" class="D"/><g class="B"><path d="M14 54h2v2h-2z"/><path d="M16 54h2v2h-2z"/></g><path d="M18 54h2v2h-2z" class="D"/><path d="M20 54h2v2h-2z" class="C"/><path d="M22 54h2v2h-2zm18 0h2v2h-2z" class="D"/><path d="M42 54h2v2h-2z" class="C"/><path d="M44 54h2v2h-2z" class="E"/><g class="H"><path d="M46 54h2v2h-2z"/><path d="M48 54h2v2h-2z"/></g><path d="M50 54h2v2h-2z" class="E"/><path d="M52 54h2v2h-2z" class="C"/><path d="M54 54h2v2h-2z" class="D"/><path d="M68 54h2v2h-2z" class="B"/><path d="M70 54h2v2h-2z"/><path d="M72 54h2v2h-2z" class="B"/><path d="M74 54h2v2h-2z" class="C"/><path d="M76 54h2v2h-2z"/><path d="M78 54h2v2h-2z" class="B"/><path d="M80 54h2v2h-2z" class="C"/><path d="M82 54h2v2h-2z"/><path d="M84 54h2v2h-2z" class="B"/><path d="M86 54h2v2h-2z" class="C"/><path d="M88 54h2v2h-2z"/><path d="M90 54h2v2h-2z" class="B"/><path d="M92 54h2v2h-2z"/><path d="M94 54h2v2h-2zm6 0h2v2h-2z" class="B"/><path d="M102 54h2v2h-2z"/><path d="M104 54h2v2h-2z" class="F"/><path d="M106 54h2v2h-2z" class="C"/><path d="M108 54h2v2h-2z"/><path d="M110 54h2v2h-2z" class="F"/><path d="M112 54h2v2h-2z" class="C"/><path d="M114 54h2v2h-2z"/><path d="M116 54h2v2h-2z" class="F"/><path d="M118 54h2v2h-2z" class="C"/><path d="M120 54h2v2h-2z"/><path d="M122 54h2v2h-2z" class="F"/><path d="M124 54h2v2h-2z"/><path d="M126 54h2v2h-2z" class="B"/><path d="M10 56h2v2h-2z" class="D"/><path d="M12 56h2v2h-2z" class="C"/><g class="D"><path d="M14 56h2v2h-2z"/><path d="M16 56h2v2h-2z"/></g><path d="M18 56h2v2h-2z" class="C"/><path d="M20 56h2v2h-2zm22 0h2v2h-2z" class="D"/><path d="M44 56h2v2h-2z" class="C"/><g class="E"><path d="M46 56h2v2h-2z"/><path d="M48 56h2v2h-2z"/></g><path d="M50 56h2v2h-2z" class="C"/><path d="M52 56h2v2h-2z" class="D"/><path d="M68 56h2v2h-2z" class="B"/><path d="M70 56h2v2h-2z" class="C"/><g class="B"><path d="M72 56h2v2h-2z"/><path d="M74 56h2v2h-2z"/><path d="M76 56h2v2h-2z"/><path d="M78 56h2v2h-2z"/><path d="M80 56h2v2h-2z"/><path d="M82 56h2v2h-2z"/><path d="M84 56h2v2h-2z"/><path d="M86 56h2v2h-2z"/><path d="M88 56h2v2h-2z"/><path d="M90 56h2v2h-2z"/></g><path d="M92 56h2v2h-2z"/><path d="M94 56h2v2h-2zm6 0h2v2h-2z" class="B"/><path d="M102 56h2v2h-2z" class="C"/><g class="F"><path d="M104 56h2v2h-2z"/><path d="M106 56h2v2h-2z"/><path d="M108 56h2v2h-2z"/><path d="M110 56h2v2h-2z"/><path d="M112 56h2v2h-2z"/><path d="M114 56h2v2h-2z"/><path d="M116 56h2v2h-2z"/><path d="M118 56h2v2h-2z"/><path d="M120 56h2v2h-2z"/><path d="M122 56h2v2h-2z"/></g><path d="M124 56h2v2h-2z"/><path d="M126 56h2v2h-2z" class="B"/><path d="M12 58h2v2h-2z" class="D"/><path d="M14 58h2v2h-2z"/><path d="M16 58h2v2h-2z"/><path d="M18 58h2v2h-2zm26 0h2v2h-2z" class="D"/><path d="M46 58h2v2h-2z"/><path d="M48 58h2v2h-2z"/><path d="M50 58h2v2h-2z" class="D"/><path d="M66 58h2v2h-2z" class="B"/><path d="M68 58h2v2h-2z" class="C"/><path d="M70 58h2v2h-2z" class="D"/><g class="B"><path d="M72 58h2v2h-2z"/><path d="M74 58h2v2h-2z"/><path d="M76 58h2v2h-2z"/><path d="M78 58h2v2h-2z"/><path d="M80 58h2v2h-2z"/><path d="M82 58h2v2h-2z"/><path d="M84 58h2v2h-2z"/><path d="M86 58h2v2h-2z"/><path d="M88 58h2v2h-2z"/></g><path d="M90 58h2v2h-2z" class="D"/><path d="M92 58h2v2h-2z" class="C"/><path d="M94 58h2v2h-2zm4 0h2v2h-2z" class="B"/><path d="M100 58h2v2h-2z" class="C"/><path d="M102 58h2v2h-2z" class="G"/><g class="F"><path d="M104 58h2v2h-2z"/><path d="M106 58h2v2h-2z"/><path d="M108 58h2v2h-2z"/><path d="M110 58h2v2h-2z"/><path d="M112 58h2v2h-2z"/><path d="M114 58h2v2h-2z"/><path d="M116 58h2v2h-2z"/><path d="M118 58h2v2h-2z"/><path d="M120 58h2v2h-2z"/></g><path d="M122 58h2v2h-2z" class="G"/><path d="M124 58h2v2h-2z" class="C"/><path d="M126 58h2v2h-2z" class="B"/><g class="D"><path d="M14 60h2v2h-2z"/><path d="M16 60h2v2h-2zm30 0h2v2h-2z"/><path d="M48 60h2v2h-2z"/></g><path d="M64 60h2v2h-2z" class="B"/><path d="M66 60h2v2h-2z"/><path d="M68 60h2v2h-2z"/><path d="M70 60h2v2h-2z"/><path d="M72 60h2v2h-2z"/><path d="M74 60h2v2h-2z"/><path d="M76 60h2v2h-2z"/><path d="M78 60h2v2h-2z"/><path d="M80 60h2v2h-2z"/><path d="M82 60h2v2h-2z"/><path d="M84 60h2v2h-2z"/><path d="M86 60h2v2h-2z"/><path d="M88 60h2v2h-2z"/><path d="M90 60h2v2h-2z" class="C"/><path d="M92 60h2v2h-2z" class="D"/><path d="M96 60h2v2h-2z" class="B"/><path d="M98 60h2v2h-2z"/><path d="M100 60h2v2h-2z"/><path d="M102 60h2v2h-2z"/><path d="M104 60h2v2h-2z"/><path d="M106 60h2v2h-2z"/><path d="M108 60h2v2h-2z"/><path d="M110 60h2v2h-2z"/><path d="M112 60h2v2h-2z"/><path d="M114 60h2v2h-2z"/><path d="M116 60h2v2h-2z"/><path d="M118 60h2v2h-2z"/><path d="M120 60h2v2h-2z"/><path d="M122 60h2v2h-2z" class="C"/><g class="D"><path d="M124 60h2v2h-2zm-58 2h2v2h-2z"/><path d="M68 62h2v2h-2z"/><path d="M70 62h2v2h-2z"/><path d="M72 62h2v2h-2z"/><path d="M74 62h2v2h-2z"/><path d="M76 62h2v2h-2z"/><path d="M78 62h2v2h-2z"/><path d="M80 62h2v2h-2z"/><path d="M82 62h2v2h-2z"/><path d="M84 62h2v2h-2z"/><path d="M86 62h2v2h-2z"/><path d="M88 62h2v2h-2z"/><path d="M90 62h2v2h-2zm8 0h2v2h-2z"/><path d="M100 62h2v2h-2z"/><path d="M102 62h2v2h-2z"/><path d="M104 62h2v2h-2z"/><path d="M106 62h2v2h-2z"/><path d="M108 62h2v2h-2z"/><path d="M110 62h2v2h-2z"/><path d="M112 62h2v2h-2z"/><path d="M114 62h2v2h-2z"/><path d="M116 62h2v2h-2z"/><path d="M118 62h2v2h-2z"/><path d="M120 62h2v2h-2z"/><path d="M122 62h2v2h-2z"/></g></svg>