<?xml version="1.0" encoding="UTF-8" ?>
<svg version="1.1" width="128" height="12" xmlns="http://www.w3.org/2000/svg" shape-rendering="crispEdges">
<rect x="0" y="0" width="2" height="2" fill="#D6B97B" />
<rect x="2" y="0" width="2" height="2" fill="#D6B97B" />
<rect x="4" y="0" width="2" height="2" fill="#D6B97B" />
<rect x="6" y="0" width="2" height="2" fill="#D6B97B" />
<rect x="8" y="0" width="2" height="2" fill="#D6B97B" />
<rect x="10" y="0" width="2" height="2" fill="#D6B97B" />
<rect x="12" y="0" width="2" height="2" fill="#D6B97B" />
<rect x="14" y="0" width="2" height="2" fill="#D6B97B" />
<rect x="16" y="0" width="2" height="2" fill="#E18D79" />
<rect x="18" y="0" width="2" height="2" fill="#E18D79" />
<rect x="20" y="0" width="2" height="2" fill="#E18D79" />
<rect x="22" y="0" width="2" height="2" fill="#E18D79" />
<rect x="24" y="0" width="2" height="2" fill="#E18D79" />
<rect x="26" y="0" width="2" height="2" fill="#E18D79" />
<rect x="28" y="0" width="2" height="2" fill="#E18D79" />
<rect x="30" y="0" width="2" height="2" fill="#E18D79" />
<rect x="32" y="0" width="2" height="2" fill="#453E78" />
<rect x="34" y="0" width="2" height="2" fill="#453E78" />
<rect x="36" y="0" width="2" height="2" fill="#453E78" />
<rect x="38" y="0" width="2" height="2" fill="#453E78" />
<rect x="40" y="0" width="2" height="2" fill="#453E78" />
<rect x="42" y="0" width="2" height="2" fill="#453E78" />
<rect x="44" y="0" width="2" height="2" fill="#453E78" />
<rect x="46" y="0" width="2" height="2" fill="#453E78" />
<rect x="48" y="0" width="2" height="2" fill="#7664FE" />
<rect x="50" y="0" width="2" height="2" fill="#7664FE" />
<rect x="52" y="0" width="2" height="2" fill="#7664FE" />
<rect x="54" y="0" width="2" height="2" fill="#7664FE" />
<rect x="56" y="0" width="2" height="2" fill="#7664FE" />
<rect x="58" y="0" width="2" height="2" fill="#7664FE" />
<rect x="60" y="0" width="2" height="2" fill="#7664FE" />
<rect x="62" y="0" width="2" height="2" fill="#7664FE" />
<rect x="64" y="0" width="2" height="2" fill="#46AF45" />
<rect x="66" y="0" width="2" height="2" fill="#46AF45" />
<rect x="68" y="0" width="2" height="2" fill="#46AF45" />
<rect x="70" y="0" width="2" height="2" fill="#46AF45" />
<rect x="72" y="0" width="2" height="2" fill="#46AF45" />
<rect x="74" y="0" width="2" height="2" fill="#46AF45" />
<rect x="76" y="0" width="2" height="2" fill="#46AF45" />
<rect x="78" y="0" width="2" height="2" fill="#46AF45" />
<rect x="80" y="0" width="2" height="2" fill="#A1D685" />
<rect x="82" y="0" width="2" height="2" fill="#A1D685" />
<rect x="84" y="0" width="2" height="2" fill="#A1D685" />
<rect x="86" y="0" width="2" height="2" fill="#A1D685" />
<rect x="88" y="0" width="2" height="2" fill="#A1D685" />
<rect x="90" y="0" width="2" height="2" fill="#A1D685" />
<rect x="92" y="0" width="2" height="2" fill="#A1D685" />
<rect x="94" y="0" width="2" height="2" fill="#A1D685" />
<rect x="96" y="0" width="2" height="2" fill="#D365C8" />
<rect x="98" y="0" width="2" height="2" fill="#D365C8" />
<rect x="100" y="0" width="2" height="2" fill="#D365C8" />
<rect x="102" y="0" width="2" height="2" fill="#D365C8" />
<rect x="104" y="0" width="2" height="2" fill="#D365C8" />
<rect x="106" y="0" width="2" height="2" fill="#D365C8" />
<rect x="108" y="0" width="2" height="2" fill="#D365C8" />
<rect x="110" y="0" width="2" height="2" fill="#D365C8" />
<rect x="112" y="0" width="2" height="2" fill="#DC534B" />
<rect x="114" y="0" width="2" height="2" fill="#DC534B" />
<rect x="116" y="0" width="2" height="2" fill="#DC534B" />
<rect x="118" y="0" width="2" height="2" fill="#DC534B" />
<rect x="120" y="0" width="2" height="2" fill="#DC534B" />
<rect x="122" y="0" width="2" height="2" fill="#DC534B" />
<rect x="124" y="0" width="2" height="2" fill="#DC534B" />
<rect x="126" y="0" width="2" height="2" fill="#DC534B" />
<rect x="0" y="2" width="2" height="2" fill="#DC534B" />
<rect x="2" y="2" width="2" height="2" fill="#D6B97B" />
<rect x="4" y="2" width="2" height="2" fill="#D6B97B" />
<rect x="6" y="2" width="2" height="2" fill="#D6B97B" />
<rect x="8" y="2" width="2" height="2" fill="#D6B97B" />
<rect x="10" y="2" width="2" height="2" fill="#D6B97B" />
<rect x="12" y="2" width="2" height="2" fill="#D6B97B" />
<rect x="14" y="2" width="2" height="2" fill="#D6B97B" />
<rect x="16" y="2" width="2" height="2" fill="#D6B97B" />
<rect x="18" y="2" width="2" height="2" fill="#E18D79" />
<rect x="20" y="2" width="2" height="2" fill="#E18D79" />
<rect x="22" y="2" width="2" height="2" fill="#E18D79" />
<rect x="24" y="2" width="2" height="2" fill="#E18D79" />
<rect x="26" y="2" width="2" height="2" fill="#E18D79" />
<rect x="28" y="2" width="2" height="2" fill="#E18D79" />
<rect x="30" y="2" width="2" height="2" fill="#E18D79" />
<rect x="32" y="2" width="2" height="2" fill="#E18D79" />
<rect x="34" y="2" width="2" height="2" fill="#453E78" />
<rect x="36" y="2" width="2" height="2" fill="#453E78" />
<rect x="38" y="2" width="2" height="2" fill="#453E78" />
<rect x="40" y="2" width="2" height="2" fill="#453E78" />
<rect x="42" y="2" width="2" height="2" fill="#453E78" />
<rect x="44" y="2" width="2" height="2" fill="#453E78" />
<rect x="46" y="2" width="2" height="2" fill="#453E78" />
<rect x="48" y="2" width="2" height="2" fill="#453E78" />
<rect x="50" y="2" width="2" height="2" fill="#7664FE" />
<rect x="52" y="2" width="2" height="2" fill="#7664FE" />
<rect x="54" y="2" width="2" height="2" fill="#7664FE" />
<rect x="56" y="2" width="2" height="2" fill="#7664FE" />
<rect x="58" y="2" width="2" height="2" fill="#7664FE" />
<rect x="60" y="2" width="2" height="2" fill="#7664FE" />
<rect x="62" y="2" width="2" height="2" fill="#7664FE" />
<rect x="64" y="2" width="2" height="2" fill="#7664FE" />
<rect x="66" y="2" width="2" height="2" fill="#46AF45" />
<rect x="68" y="2" width="2" height="2" fill="#46AF45" />
<rect x="70" y="2" width="2" height="2" fill="#46AF45" />
<rect x="72" y="2" width="2" height="2" fill="#46AF45" />
<rect x="74" y="2" width="2" height="2" fill="#46AF45" />
<rect x="76" y="2" width="2" height="2" fill="#46AF45" />
<rect x="78" y="2" width="2" height="2" fill="#46AF45" />
<rect x="80" y="2" width="2" height="2" fill="#46AF45" />
<rect x="82" y="2" width="2" height="2" fill="#A1D685" />
<rect x="84" y="2" width="2" height="2" fill="#A1D685" />
<rect x="86" y="2" width="2" height="2" fill="#A1D685" />
<rect x="88" y="2" width="2" height="2" fill="#A1D685" />
<rect x="90" y="2" width="2" height="2" fill="#A1D685" />
<rect x="92" y="2" width="2" height="2" fill="#A1D685" />
<rect x="94" y="2" width="2" height="2" fill="#A1D685" />
<rect x="96" y="2" width="2" height="2" fill="#A1D685" />
<rect x="98" y="2" width="2" height="2" fill="#D365C8" />
<rect x="100" y="2" width="2" height="2" fill="#D365C8" />
<rect x="102" y="2" width="2" height="2" fill="#D365C8" />
<rect x="104" y="2" width="2" height="2" fill="#D365C8" />
<rect x="106" y="2" width="2" height="2" fill="#D365C8" />
<rect x="108" y="2" width="2" height="2" fill="#D365C8" />
<rect x="110" y="2" width="2" height="2" fill="#D365C8" />
<rect x="112" y="2" width="2" height="2" fill="#D365C8" />
<rect x="114" y="2" width="2" height="2" fill="#DC534B" />
<rect x="116" y="2" width="2" height="2" fill="#DC534B" />
<rect x="118" y="2" width="2" height="2" fill="#DC534B" />
<rect x="120" y="2" width="2" height="2" fill="#DC534B" />
<rect x="122" y="2" width="2" height="2" fill="#DC534B" />
<rect x="124" y="2" width="2" height="2" fill="#DC534B" />
<rect x="126" y="2" width="2" height="2" fill="#DC534B" />
<rect x="0" y="4" width="2" height="2" fill="#DC534B" />
<rect x="2" y="4" width="2" height="2" fill="#DC534B" />
<rect x="4" y="4" width="2" height="2" fill="#D6B97B" />
<rect x="6" y="4" width="2" height="2" fill="#D6B97B" />
<rect x="8" y="4" width="2" height="2" fill="#D6B97B" />
<rect x="10" y="4" width="2" height="2" fill="#D6B97B" />
<rect x="12" y="4" width="2" height="2" fill="#D6B97B" />
<rect x="14" y="4" width="2" height="2" fill="#D6B97B" />
<rect x="16" y="4" width="2" height="2" fill="#D6B97B" />
<rect x="18" y="4" width="2" height="2" fill="#D6B97B" />
<rect x="20" y="4" width="2" height="2" fill="#E18D79" />
<rect x="22" y="4" width="2" height="2" fill="#E18D79" />
<rect x="24" y="4" width="2" height="2" fill="#E18D79" />
<rect x="26" y="4" width="2" height="2" fill="#E18D79" />
<rect x="28" y="4" width="2" height="2" fill="#E18D79" />
<rect x="30" y="4" width="2" height="2" fill="#E18D79" />
<rect x="32" y="4" width="2" height="2" fill="#E18D79" />
<rect x="34" y="4" width="2" height="2" fill="#E18D79" />
<rect x="36" y="4" width="2" height="2" fill="#453E78" />
<rect x="38" y="4" width="2" height="2" fill="#453E78" />
<rect x="40" y="4" width="2" height="2" fill="#453E78" />
<rect x="42" y="4" width="2" height="2" fill="#453E78" />
<rect x="44" y="4" width="2" height="2" fill="#453E78" />
<rect x="46" y="4" width="2" height="2" fill="#453E78" />
<rect x="48" y="4" width="2" height="2" fill="#453E78" />
<rect x="50" y="4" width="2" height="2" fill="#453E78" />
<rect x="52" y="4" width="2" height="2" fill="#7664FE" />
<rect x="54" y="4" width="2" height="2" fill="#7664FE" />
<rect x="56" y="4" width="2" height="2" fill="#7664FE" />
<rect x="58" y="4" width="2" height="2" fill="#7664FE" />
<rect x="60" y="4" width="2" height="2" fill="#7664FE" />
<rect x="62" y="4" width="2" height="2" fill="#7664FE" />
<rect x="64" y="4" width="2" height="2" fill="#7664FE" />
<rect x="66" y="4" width="2" height="2" fill="#7664FE" />
<rect x="68" y="4" width="2" height="2" fill="#46AF45" />
<rect x="70" y="4" width="2" height="2" fill="#46AF45" />
<rect x="72" y="4" width="2" height="2" fill="#46AF45" />
<rect x="74" y="4" width="2" height="2" fill="#46AF45" />
<rect x="76" y="4" width="2" height="2" fill="#46AF45" />
<rect x="78" y="4" width="2" height="2" fill="#46AF45" />
<rect x="80" y="4" width="2" height="2" fill="#46AF45" />
<rect x="82" y="4" width="2" height="2" fill="#46AF45" />
<rect x="84" y="4" width="2" height="2" fill="#A1D685" />
<rect x="86" y="4" width="2" height="2" fill="#A1D685" />
<rect x="88" y="4" width="2" height="2" fill="#A1D685" />
<rect x="90" y="4" width="2" height="2" fill="#A1D685" />
<rect x="92" y="4" width="2" height="2" fill="#A1D685" />
<rect x="94" y="4" width="2" height="2" fill="#A1D685" />
<rect x="96" y="4" width="2" height="2" fill="#A1D685" />
<rect x="98" y="4" width="2" height="2" fill="#A1D685" />
<rect x="100" y="4" width="2" height="2" fill="#D365C8" />
<rect x="102" y="4" width="2" height="2" fill="#D365C8" />
<rect x="104" y="4" width="2" height="2" fill="#D365C8" />
<rect x="106" y="4" width="2" height="2" fill="#D365C8" />
<rect x="108" y="4" width="2" height="2" fill="#D365C8" />
<rect x="110" y="4" width="2" height="2" fill="#D365C8" />
<rect x="112" y="4" width="2" height="2" fill="#D365C8" />
<rect x="114" y="4" width="2" height="2" fill="#D365C8" />
<rect x="116" y="4" width="2" height="2" fill="#DC534B" />
<rect x="118" y="4" width="2" height="2" fill="#DC534B" />
<rect x="120" y="4" width="2" height="2" fill="#DC534B" />
<rect x="122" y="4" width="2" height="2" fill="#DC534B" />
<rect x="124" y="4" width="2" height="2" fill="#DC534B" />
<rect x="126" y="4" width="2" height="2" fill="#DC534B" />
<rect x="0" y="6" width="2" height="2" fill="#DC534B" />
<rect x="2" y="6" width="2" height="2" fill="#DC534B" />
<rect x="4" y="6" width="2" height="2" fill="#DC534B" />
<rect x="6" y="6" width="2" height="2" fill="#D6B97B" />
<rect x="8" y="6" width="2" height="2" fill="#D6B97B" />
<rect x="10" y="6" width="2" height="2" fill="#D6B97B" />
<rect x="12" y="6" width="2" height="2" fill="#D6B97B" />
<rect x="14" y="6" width="2" height="2" fill="#D6B97B" />
<rect x="16" y="6" width="2" height="2" fill="#D6B97B" />
<rect x="18" y="6" width="2" height="2" fill="#D6B97B" />
<rect x="20" y="6" width="2" height="2" fill="#D6B97B" />
<rect x="22" y="6" width="2" height="2" fill="#E18D79" />
<rect x="24" y="6" width="2" height="2" fill="#E18D79" />
<rect x="26" y="6" width="2" height="2" fill="#E18D79" />
<rect x="28" y="6" width="2" height="2" fill="#E18D79" />
<rect x="30" y="6" width="2" height="2" fill="#E18D79" />
<rect x="32" y="6" width="2" height="2" fill="#E18D79" />
<rect x="34" y="6" width="2" height="2" fill="#E18D79" />
<rect x="36" y="6" width="2" height="2" fill="#E18D79" />
<rect x="38" y="6" width="2" height="2" fill="#453E78" />
<rect x="40" y="6" width="2" height="2" fill="#453E78" />
<rect x="42" y="6" width="2" height="2" fill="#453E78" />
<rect x="44" y="6" width="2" height="2" fill="#453E78" />
<rect x="46" y="6" width="2" height="2" fill="#453E78" />
<rect x="48" y="6" width="2" height="2" fill="#453E78" />
<rect x="50" y="6" width="2" height="2" fill="#453E78" />
<rect x="52" y="6" width="2" height="2" fill="#453E78" />
<rect x="54" y="6" width="2" height="2" fill="#7664FE" />
<rect x="56" y="6" width="2" height="2" fill="#7664FE" />
<rect x="58" y="6" width="2" height="2" fill="#7664FE" />
<rect x="60" y="6" width="2" height="2" fill="#7664FE" />
<rect x="62" y="6" width="2" height="2" fill="#7664FE" />
<rect x="64" y="6" width="2" height="2" fill="#7664FE" />
<rect x="66" y="6" width="2" height="2" fill="#7664FE" />
<rect x="68" y="6" width="2" height="2" fill="#7664FE" />
<rect x="70" y="6" width="2" height="2" fill="#46AF45" />
<rect x="72" y="6" width="2" height="2" fill="#46AF45" />
<rect x="74" y="6" width="2" height="2" fill="#46AF45" />
<rect x="76" y="6" width="2" height="2" fill="#46AF45" />
<rect x="78" y="6" width="2" height="2" fill="#46AF45" />
<rect x="80" y="6" width="2" height="2" fill="#46AF45" />
<rect x="82" y="6" width="2" height="2" fill="#46AF45" />
<rect x="84" y="6" width="2" height="2" fill="#46AF45" />
<rect x="86" y="6" width="2" height="2" fill="#A1D685" />
<rect x="88" y="6" width="2" height="2" fill="#A1D685" />
<rect x="90" y="6" width="2" height="2" fill="#A1D685" />
<rect x="92" y="6" width="2" height="2" fill="#A1D685" />
<rect x="94" y="6" width="2" height="2" fill="#A1D685" />
<rect x="96" y="6" width="2" height="2" fill="#A1D685" />
<rect x="98" y="6" width="2" height="2" fill="#A1D685" />
<rect x="100" y="6" width="2" height="2" fill="#A1D685" />
<rect x="102" y="6" width="2" height="2" fill="#D365C8" />
<rect x="104" y="6" width="2" height="2" fill="#D365C8" />
<rect x="106" y="6" width="2" height="2" fill="#D365C8" />
<rect x="108" y="6" width="2" height="2" fill="#D365C8" />
<rect x="110" y="6" width="2" height="2" fill="#D365C8" />
<rect x="112" y="6" width="2" height="2" fill="#D365C8" />
<rect x="114" y="6" width="2" height="2" fill="#D365C8" />
<rect x="116" y="6" width="2" height="2" fill="#D365C8" />
<rect x="118" y="6" width="2" height="2" fill="#DC534B" />
<rect x="120" y="6" width="2" height="2" fill="#DC534B" />
<rect x="122" y="6" width="2" height="2" fill="#DC534B" />
<rect x="124" y="6" width="2" height="2" fill="#DC534B" />
<rect x="126" y="6" width="2" height="2" fill="#DC534B" />
<rect x="0" y="8" width="2" height="2" fill="#000000" />
<rect x="2" y="8" width="2" height="2" fill="#000000" />
<rect x="4" y="8" width="2" height="2" fill="#000000" />
<rect x="6" y="8" width="2" height="2" fill="#000000" />
<rect x="8" y="8" width="2" height="2" fill="#000000" />
<rect x="10" y="8" width="2" height="2" fill="#000000" />
<rect x="12" y="8" width="2" height="2" fill="#000000" />
<rect x="14" y="8" width="2" height="2" fill="#000000" />
<rect x="16" y="8" width="2" height="2" fill="#000000" />
<rect x="18" y="8" width="2" height="2" fill="#000000" />
<rect x="20" y="8" width="2" height="2" fill="#000000" />
<rect x="22" y="8" width="2" height="2" fill="#000000" />
<rect x="24" y="8" width="2" height="2" fill="#000000" />
<rect x="26" y="8" width="2" height="2" fill="#000000" />
<rect x="28" y="8" width="2" height="2" fill="#000000" />
<rect x="30" y="8" width="2" height="2" fill="#000000" />
<rect x="32" y="8" width="2" height="2" fill="#000000" />
<rect x="34" y="8" width="2" height="2" fill="#000000" />
<rect x="36" y="8" width="2" height="2" fill="#000000" />
<rect x="38" y="8" width="2" height="2" fill="#000000" />
<rect x="40" y="8" width="2" height="2" fill="#000000" />
<rect x="42" y="8" width="2" height="2" fill="#000000" />
<rect x="44" y="8" width="2" height="2" fill="#000000" />
<rect x="46" y="8" width="2" height="2" fill="#000000" />
<rect x="48" y="8" width="2" height="2" fill="#000000" />
<rect x="50" y="8" width="2" height="2" fill="#000000" />
<rect x="52" y="8" width="2" height="2" fill="#000000" />
<rect x="54" y="8" width="2" height="2" fill="#000000" />
<rect x="56" y="8" width="2" height="2" fill="#000000" />
<rect x="58" y="8" width="2" height="2" fill="#000000" />
<rect x="60" y="8" width="2" height="2" fill="#000000" />
<rect x="62" y="8" width="2" height="2" fill="#000000" />
<rect x="64" y="8" width="2" height="2" fill="#000000" />
<rect x="66" y="8" width="2" height="2" fill="#000000" />
<rect x="68" y="8" width="2" height="2" fill="#000000" />
<rect x="70" y="8" width="2" height="2" fill="#000000" />
<rect x="72" y="8" width="2" height="2" fill="#000000" />
<rect x="74" y="8" width="2" height="2" fill="#000000" />
<rect x="76" y="8" width="2" height="2" fill="#000000" />
<rect x="78" y="8" width="2" height="2" fill="#000000" />
<rect x="80" y="8" width="2" height="2" fill="#000000" />
<rect x="82" y="8" width="2" height="2" fill="#000000" />
<rect x="84" y="8" width="2" height="2" fill="#000000" />
<rect x="86" y="8" width="2" height="2" fill="#000000" />
<rect x="88" y="8" width="2" height="2" fill="#000000" />
<rect x="90" y="8" width="2" height="2" fill="#000000" />
<rect x="92" y="8" width="2" height="2" fill="#000000" />
<rect x="94" y="8" width="2" height="2" fill="#000000" />
<rect x="96" y="8" width="2" height="2" fill="#000000" />
<rect x="98" y="8" width="2" height="2" fill="#000000" />
<rect x="100" y="8" width="2" height="2" fill="#000000" />
<rect x="102" y="8" width="2" height="2" fill="#000000" />
<rect x="104" y="8" width="2" height="2" fill="#000000" />
<rect x="106" y="8" width="2" height="2" fill="#000000" />
<rect x="108" y="8" width="2" height="2" fill="#000000" />
<rect x="110" y="8" width="2" height="2" fill="#000000" />
<rect x="112" y="8" width="2" height="2" fill="#000000" />
<rect x="114" y="8" width="2" height="2" fill="#000000" />
<rect x="116" y="8" width="2" height="2" fill="#000000" />
<rect x="118" y="8" width="2" height="2" fill="#000000" />
<rect x="120" y="8" width="2" height="2" fill="#000000" />
<rect x="122" y="8" width="2" height="2" fill="#000000" />
<rect x="124" y="8" width="2" height="2" fill="#000000" />
<rect x="126" y="8" width="2" height="2" fill="#000000" />
<rect x="0" y="10" width="2" height="2" fill="#F5F4EB" />
<rect x="2" y="10" width="2" height="2" fill="#F5F4EB" />
<rect x="4" y="10" width="2" height="2" fill="#F5F4EB" />
<rect x="6" y="10" width="2" height="2" fill="#F5F4EB" />
<rect x="8" y="10" width="2" height="2" fill="#F5F4EB" />
<rect x="10" y="10" width="2" height="2" fill="#F5F4EB" />
<rect x="12" y="10" width="2" height="2" fill="#F5F4EB" />
<rect x="14" y="10" width="2" height="2" fill="#F5F4EB" />
<rect x="16" y="10" width="2" height="2" fill="#F5F4EB" />
<rect x="18" y="10" width="2" height="2" fill="#F5F4EB" />
<rect x="20" y="10" width="2" height="2" fill="#F5F4EB" />
<rect x="22" y="10" width="2" height="2" fill="#F5F4EB" />
<rect x="24" y="10" width="2" height="2" fill="#F5F4EB" />
<rect x="26" y="10" width="2" height="2" fill="#F5F4EB" />
<rect x="28" y="10" width="2" height="2" fill="#F5F4EB" />
<rect x="30" y="10" width="2" height="2" fill="#F5F4EB" />
<rect x="32" y="10" width="2" height="2" fill="#F5F4EB" />
<rect x="34" y="10" width="2" height="2" fill="#F5F4EB" />
<rect x="36" y="10" width="2" height="2" fill="#F5F4EB" />
<rect x="38" y="10" width="2" height="2" fill="#F5F4EB" />
<rect x="40" y="10" width="2" height="2" fill="#F5F4EB" />
<rect x="42" y="10" width="2" height="2" fill="#F5F4EB" />
<rect x="44" y="10" width="2" height="2" fill="#F5F4EB" />
<rect x="46" y="10" width="2" height="2" fill="#F5F4EB" />
<rect x="48" y="10" width="2" height="2" fill="#F5F4EB" />
<rect x="50" y="10" width="2" height="2" fill="#F5F4EB" />
<rect x="52" y="10" width="2" height="2" fill="#F5F4EB" />
<rect x="54" y="10" width="2" height="2" fill="#F5F4EB" />
<rect x="56" y="10" width="2" height="2" fill="#F5F4EB" />
<rect x="58" y="10" width="2" height="2" fill="#F5F4EB" />
<rect x="60" y="10" width="2" height="2" fill="#F5F4EB" />
<rect x="62" y="10" width="2" height="2" fill="#F5F4EB" />
<rect x="64" y="10" width="2" height="2" fill="#F5F4EB" />
<rect x="66" y="10" width="2" height="2" fill="#F5F4EB" />
<rect x="68" y="10" width="2" height="2" fill="#F5F4EB" />
<rect x="70" y="10" width="2" height="2" fill="#F5F4EB" />
<rect x="72" y="10" width="2" height="2" fill="#F5F4EB" />
<rect x="74" y="10" width="2" height="2" fill="#F5F4EB" />
<rect x="76" y="10" width="2" height="2" fill="#F5F4EB" />
<rect x="78" y="10" width="2" height="2" fill="#F5F4EB" />
<rect x="80" y="10" width="2" height="2" fill="#F5F4EB" />
<rect x="82" y="10" width="2" height="2" fill="#F5F4EB" />
<rect x="84" y="10" width="2" height="2" fill="#F5F4EB" />
<rect x="86" y="10" width="2" height="2" fill="#F5F4EB" />
<rect x="88" y="10" width="2" height="2" fill="#F5F4EB" />
<rect x="90" y="10" width="2" height="2" fill="#F5F4EB" />
<rect x="92" y="10" width="2" height="2" fill="#F5F4EB" />
<rect x="94" y="10" width="2" height="2" fill="#F5F4EB" />
<rect x="96" y="10" width="2" height="2" fill="#F5F4EB" />
<rect x="98" y="10" width="2" height="2" fill="#F5F4EB" />
<rect x="100" y="10" width="2" height="2" fill="#F5F4EB" />
<rect x="102" y="10" width="2" height="2" fill="#F5F4EB" />
<rect x="104" y="10" width="2" height="2" fill="#F5F4EB" />
<rect x="106" y="10" width="2" height="2" fill="#F5F4EB" />
<rect x="108" y="10" width="2" height="2" fill="#F5F4EB" />
<rect x="110" y="10" width="2" height="2" fill="#F5F4EB" />
<rect x="112" y="10" width="2" height="2" fill="#F5F4EB" />
<rect x="114" y="10" width="2" height="2" fill="#F5F4EB" />
<rect x="116" y="10" width="2" height="2" fill="#F5F4EB" />
<rect x="118" y="10" width="2" height="2" fill="#F5F4EB" />
<rect x="120" y="10" width="2" height="2" fill="#F5F4EB" />
<rect x="122" y="10" width="2" height="2" fill="#F5F4EB" />
<rect x="124" y="10" width="2" height="2" fill="#F5F4EB" />
<rect x="126" y="10" width="2" height="2" fill="#F5F4EB" />
</svg>