<svg xmlns="http://www.w3.org/2000/svg" width="32" height="32" shape-rendering="crispEdges" xmlns:v="https://vecta.io/nano"><style><![CDATA[.B{fill:#f5f4eb}.C{fill:#453e78}.D{fill:#afaab9}.E{fill:#dc534b}.F{fill:#e18d79}.G{fill:#a1d685}.H{fill:#46af45}.I{fill:#e9d8a1}.J{fill:#d6b97b}.K{fill:#7664fe}]]></style><g class="B"><path d="M12 0h2v2h-2z"/><path d="M14 0h2v2h-2z"/><path d="M16 0h2v2h-2z"/><path d="M18 0h2v2h-2zM8 2h2v2H8z"/><path d="M10 2h2v2h-2z"/></g><path d="M12 2h2v2h-2z"/><path d="M14 2h2v2h-2z"/><path d="M16 2h2v2h-2z"/><path d="M18 2h2v2h-2z"/><g class="B"><path d="M20 2h2v2h-2z"/><path d="M22 2h2v2h-2zM6 4h2v2H6z"/></g><path d="M8 4h2v2H8z" class="C"/><path d="M10 4h2v2h-2z"/><path d="M12 4h2v2h-2z" class="D"/><g class="B"><path d="M14 4h2v2h-2z"/><path d="M16 4h2v2h-2z"/></g><path d="M18 4h2v2h-2z" class="D"/><path d="M20 4h2v2h-2z"/><path d="M22 4h2v2h-2z" class="C"/><path d="M24 4h2v2h-2zM4 6h2v2H4z" class="B"/><path d="M6 6h2v2H6z" class="C"/><path d="M8 6h2v2H8z" class="D"/><path d="M10 6h2v2h-2z" class="B"/><g class="E"><path d="M12 6h2v2h-2z"/><path d="M14 6h2v2h-2z"/></g><g class="F"><path d="M16 6h2v2h-2z"/><path d="M18 6h2v2h-2z"/></g><path d="M20 6h2v2h-2z" class="B"/><path d="M22 6h2v2h-2z" class="D"/><path d="M24 6h2v2h-2z" class="C"/><path d="M26 6h2v2h-2zM2 8h2v2H2z" class="B"/><path d="M4 8h2v2H4z" class="C"/><path d="M6 8h2v2H6z" class="D"/><g class="E"><path d="M8 8h2v2H8z"/><path d="M10 8h2v2h-2z"/><path d="M12 8h2v2h-2z"/><path d="M14 8h2v2h-2z"/></g><g class="F"><path d="M16 8h2v2h-2z"/><path d="M18 8h2v2h-2z"/><path d="M20 8h2v2h-2z"/><path d="M22 8h2v2h-2z"/></g><path d="M24 8h2v2h-2z" class="D"/><path d="M26 8h2v2h-2z" class="C"/><path d="M28 8h2v2h-2zM2 10h2v2H2z" class="B"/><path d="M4 10h2v2H4z"/><path d="M6 10h2v2H6z" class="B"/><path d="M8 10h2v2H8z" class="I"/><g class="E"><path d="M10 10h2v2h-2z"/><path d="M12 10h2v2h-2z"/><path d="M14 10h2v2h-2z"/></g><g class="F"><path d="M16 10h2v2h-2z"/><path d="M18 10h2v2h-2z"/><path d="M20 10h2v2h-2z"/></g><path d="M22 10h2v2h-2z" class="C"/><path d="M24 10h2v2h-2z" class="B"/><path d="M26 10h2v2h-2z"/><path d="M28 10h2v2h-2zM0 12h2v2H0z" class="B"/><path d="M2 12h2v2H2z"/><path d="M4 12h2v2H4z" class="D"/><g class="I"><path d="M6 12h2v2H6z"/><path d="M8 12h2v2H8z"/><path d="M10 12h2v2h-2z"/></g><g class="E"><path d="M12 12h2v2h-2z"/><path d="M14 12h2v2h-2z"/></g><g class="F"><path d="M16 12h2v2h-2z"/><path d="M18 12h2v2h-2z"/></g><g class="C"><path d="M20 12h2v2h-2z"/><path d="M22 12h2v2h-2z"/><path d="M24 12h2v2h-2z"/></g><path d="M26 12h2v2h-2z" class="D"/><path d="M28 12h2v2h-2z"/><path d="M30 12h2v2h-2zM0 14h2v2H0z" class="B"/><path d="M2 14h2v2H2z"/><path d="M4 14h2v2H4z" class="B"/><g class="I"><path d="M6 14h2v2H6z"/><path d="M8 14h2v2H8z"/><path d="M10 14h2v2h-2z"/><path d="M12 14h2v2h-2z"/></g><g class="B"><path d="M14 14h2v2h-2z"/><path d="M16 14h2v2h-2z"/></g><g class="C"><path d="M18 14h2v2h-2z"/><path d="M20 14h2v2h-2z"/><path d="M22 14h2v2h-2z"/><path d="M24 14h2v2h-2z"/></g><path d="M26 14h2v2h-2z" class="B"/><path d="M28 14h2v2h-2z"/><path d="M30 14h2v2h-2zM0 16h2v2H0z" class="B"/><path d="M2 16h2v2H2z"/><path d="M4 16h2v2H4z" class="B"/><g class="J"><path d="M6 16h2v2H6z"/><path d="M8 16h2v2H8z"/><path d="M10 16h2v2h-2z"/><path d="M12 16h2v2h-2z"/></g><g class="B"><path d="M14 16h2v2h-2z"/><path d="M16 16h2v2h-2z"/></g><g class="C"><path d="M18 16h2v2h-2z"/><path d="M20 16h2v2h-2z"/><path d="M22 16h2v2h-2z"/><path d="M24 16h2v2h-2z"/></g><path d="M26 16h2v2h-2z" class="B"/><path d="M28 16h2v2h-2z"/><path d="M30 16h2v2h-2zM0 18h2v2H0z" class="B"/><path d="M2 18h2v2H2z"/><path d="M4 18h2v2H4z" class="D"/><g class="J"><path d="M6 18h2v2H6z"/><path d="M8 18h2v2H8z"/><path d="M10 18h2v2h-2z"/></g><path d="M12 18h2v2h-2z" class="G"/><path d="M14 18h2v2h-2z" class="H"/><g class="K"><path d="M16 18h2v2h-2z"/><path d="M18 18h2v2h-2z"/><path d="M20 18h2v2h-2z"/><path d="M22 18h2v2h-2z"/><path d="M24 18h2v2h-2z"/></g><path d="M26 18h2v2h-2z" class="D"/><path d="M28 18h2v2h-2z"/><path d="M30 18h2v2h-2zM2 20h2v2H2z" class="B"/><path d="M4 20h2v2H4z"/><path d="M6 20h2v2H6z" class="B"/><path d="M8 20h2v2H8z" class="J"/><g class="G"><path d="M10 20h2v2h-2z"/><path d="M12 20h2v2h-2z"/></g><g class="H"><path d="M14 20h2v2h-2z"/><path d="M16 20h2v2h-2z"/></g><g class="K"><path d="M18 20h2v2h-2z"/><path d="M20 20h2v2h-2z"/><path d="M22 20h2v2h-2z"/></g><path d="M24 20h2v2h-2z" class="B"/><path d="M26 20h2v2h-2z"/><path d="M28 20h2v2h-2zM2 22h2v2H2z" class="B"/><path d="M4 22h2v2H4z" class="C"/><path d="M6 22h2v2H6z" class="D"/><g class="G"><path d="M8 22h2v2H8z"/><path d="M10 22h2v2h-2z"/><path d="M12 22h2v2h-2z"/></g><g class="H"><path d="M14 22h2v2h-2z"/><path d="M16 22h2v2h-2z"/><path d="M18 22h2v2h-2z"/></g><g class="K"><path d="M20 22h2v2h-2z"/><path d="M22 22h2v2h-2z"/></g><path d="M24 22h2v2h-2z" class="D"/><path d="M26 22h2v2h-2z" class="C"/><path d="M28 22h2v2h-2zM4 24h2v2H4z" class="B"/><path d="M6 24h2v2H6z" class="C"/><path d="M8 24h2v2H8z" class="D"/><path d="M10 24h2v2h-2z" class="B"/><path d="M12 24h2v2h-2z" class="G"/><g class="H"><path d="M14 24h2v2h-2z"/><path d="M16 24h2v2h-2z"/><path d="M18 24h2v2h-2z"/></g><path d="M20 24h2v2h-2z" class="B"/><path d="M22 24h2v2h-2z" class="D"/><path d="M24 24h2v2h-2z" class="C"/><path d="M26 24h2v2h-2zM6 26h2v2H6z" class="B"/><path d="M8 26h2v2H8z" class="C"/><path d="M10 26h2v2h-2z"/><path d="M12 26h2v2h-2z" class="D"/><g class="B"><path d="M14 26h2v2h-2z"/><path d="M16 26h2v2h-2z"/></g><path d="M18 26h2v2h-2z" class="D"/><path d="M20 26h2v2h-2z"/><path d="M22 26h2v2h-2z" class="C"/><g class="B"><path d="M24 26h2v2h-2zM8 28h2v2H8z"/><path d="M10 28h2v2h-2z"/></g><path d="M12 28h2v2h-2z"/><path d="M14 28h2v2h-2z"/><path d="M16 28h2v2h-2z"/><path d="M18 28h2v2h-2z"/><g class="B"><path d="M20 28h2v2h-2z"/><path d="M22 28h2v2h-2zm-10 2h2v2h-2z"/><path d="M14 30h2v2h-2z"/><path d="M16 30h2v2h-2z"/><path d="M18 30h2v2h-2z"/></g></svg>