<svg xmlns="http://www.w3.org/2000/svg" width="128" height="12" shape-rendering="crispEdges" xmlns:v="https://vecta.io/nano"><g fill="#d6b97b"><path d="M0 0h2v2H0z"/><path d="M2 0h2v2H2z"/><path d="M4 0h2v2H4z"/><path d="M6 0h2v2H6z"/><path d="M8 0h2v2H8z"/><path d="M10 0h2v2h-2z"/><path d="M12 0h2v2h-2z"/><path d="M14 0h2v2h-2z"/></g><g fill="#e18d79"><path d="M16 0h2v2h-2z"/><path d="M18 0h2v2h-2z"/><path d="M20 0h2v2h-2z"/><path d="M22 0h2v2h-2z"/><path d="M24 0h2v2h-2z"/><path d="M26 0h2v2h-2z"/><path d="M28 0h2v2h-2z"/><path d="M30 0h2v2h-2z"/></g><g fill="#453e78"><path d="M32 0h2v2h-2z"/><path d="M34 0h2v2h-2z"/><path d="M36 0h2v2h-2z"/><path d="M38 0h2v2h-2z"/><path d="M40 0h2v2h-2z"/><path d="M42 0h2v2h-2z"/><path d="M44 0h2v2h-2z"/><path d="M46 0h2v2h-2z"/></g><g fill="#7664fe"><path d="M48 0h2v2h-2z"/><path d="M50 0h2v2h-2z"/><path d="M52 0h2v2h-2z"/><path d="M54 0h2v2h-2z"/><path d="M56 0h2v2h-2z"/><path d="M58 0h2v2h-2z"/><path d="M60 0h2v2h-2z"/><path d="M62 0h2v2h-2z"/></g><g fill="#46af45"><path d="M64 0h2v2h-2z"/><path d="M66 0h2v2h-2z"/><path d="M68 0h2v2h-2z"/><path d="M70 0h2v2h-2z"/><path d="M72 0h2v2h-2z"/><path d="M74 0h2v2h-2z"/><path d="M76 0h2v2h-2z"/><path d="M78 0h2v2h-2z"/></g><g fill="#a1d685"><path d="M80 0h2v2h-2z"/><path d="M82 0h2v2h-2z"/><path d="M84 0h2v2h-2z"/><path d="M86 0h2v2h-2z"/><path d="M88 0h2v2h-2z"/><path d="M90 0h2v2h-2z"/><path d="M92 0h2v2h-2z"/><path d="M94 0h2v2h-2z"/></g><g fill="#d365c8"><path d="M96 0h2v2h-2z"/><path d="M98 0h2v2h-2z"/><path d="M100 0h2v2h-2z"/><path d="M102 0h2v2h-2z"/><path d="M104 0h2v2h-2z"/><path d="M106 0h2v2h-2z"/><path d="M108 0h2v2h-2z"/><path d="M110 0h2v2h-2z"/></g><g fill="#dc534b"><path d="M112 0h2v2h-2z"/><path d="M114 0h2v2h-2z"/><path d="M116 0h2v2h-2z"/><path d="M118 0h2v2h-2z"/><path d="M120 0h2v2h-2z"/><path d="M122 0h2v2h-2z"/><path d="M124 0h2v2h-2z"/><path d="M126 0h2v2h-2zM0 2h2v2H0z"/></g><g fill="#d6b97b"><path d="M2 2h2v2H2z"/><path d="M4 2h2v2H4z"/><path d="M6 2h2v2H6z"/><path d="M8 2h2v2H8z"/><path d="M10 2h2v2h-2z"/><path d="M12 2h2v2h-2z"/><path d="M14 2h2v2h-2z"/><path d="M16 2h2v2h-2z"/></g><g fill="#e18d79"><path d="M18 2h2v2h-2z"/><path d="M20 2h2v2h-2z"/><path d="M22 2h2v2h-2z"/><path d="M24 2h2v2h-2z"/><path d="M26 2h2v2h-2z"/><path d="M28 2h2v2h-2z"/><path d="M30 2h2v2h-2z"/><path d="M32 2h2v2h-2z"/></g><g fill="#453e78"><path d="M34 2h2v2h-2z"/><path d="M36 2h2v2h-2z"/><path d="M38 2h2v2h-2z"/><path d="M40 2h2v2h-2z"/><path d="M42 2h2v2h-2z"/><path d="M44 2h2v2h-2z"/><path d="M46 2h2v2h-2z"/><path d="M48 2h2v2h-2z"/></g><g fill="#7664fe"><path d="M50 2h2v2h-2z"/><path d="M52 2h2v2h-2z"/><path d="M54 2h2v2h-2z"/><path d="M56 2h2v2h-2z"/><path d="M58 2h2v2h-2z"/><path d="M60 2h2v2h-2z"/><path d="M62 2h2v2h-2z"/><path d="M64 2h2v2h-2z"/></g><g fill="#46af45"><path d="M66 2h2v2h-2z"/><path d="M68 2h2v2h-2z"/><path d="M70 2h2v2h-2z"/><path d="M72 2h2v2h-2z"/><path d="M74 2h2v2h-2z"/><path d="M76 2h2v2h-2z"/><path d="M78 2h2v2h-2z"/><path d="M80 2h2v2h-2z"/></g><g fill="#a1d685"><path d="M82 2h2v2h-2z"/><path d="M84 2h2v2h-2z"/><path d="M86 2h2v2h-2z"/><path d="M88 2h2v2h-2z"/><path d="M90 2h2v2h-2z"/><path d="M92 2h2v2h-2z"/><path d="M94 2h2v2h-2z"/><path d="M96 2h2v2h-2z"/></g><g fill="#d365c8"><path d="M98 2h2v2h-2z"/><path d="M100 2h2v2h-2z"/><path d="M102 2h2v2h-2z"/><path d="M104 2h2v2h-2z"/><path d="M106 2h2v2h-2z"/><path d="M108 2h2v2h-2z"/><path d="M110 2h2v2h-2z"/><path d="M112 2h2v2h-2z"/></g><g fill="#dc534b"><path d="M114 2h2v2h-2z"/><path d="M116 2h2v2h-2z"/><path d="M118 2h2v2h-2z"/><path d="M120 2h2v2h-2z"/><path d="M122 2h2v2h-2z"/><path d="M124 2h2v2h-2z"/><path d="M126 2h2v2h-2zM0 4h2v2H0z"/><path d="M2 4h2v2H2z"/></g><g fill="#d6b97b"><path d="M4 4h2v2H4z"/><path d="M6 4h2v2H6z"/><path d="M8 4h2v2H8z"/><path d="M10 4h2v2h-2z"/><path d="M12 4h2v2h-2z"/><path d="M14 4h2v2h-2z"/><path d="M16 4h2v2h-2z"/><path d="M18 4h2v2h-2z"/></g><g fill="#e18d79"><path d="M20 4h2v2h-2z"/><path d="M22 4h2v2h-2z"/><path d="M24 4h2v2h-2z"/><path d="M26 4h2v2h-2z"/><path d="M28 4h2v2h-2z"/><path d="M30 4h2v2h-2z"/><path d="M32 4h2v2h-2z"/><path d="M34 4h2v2h-2z"/></g><g fill="#453e78"><path d="M36 4h2v2h-2z"/><path d="M38 4h2v2h-2z"/><path d="M40 4h2v2h-2z"/><path d="M42 4h2v2h-2z"/><path d="M44 4h2v2h-2z"/><path d="M46 4h2v2h-2z"/><path d="M48 4h2v2h-2z"/><path d="M50 4h2v2h-2z"/></g><g fill="#7664fe"><path d="M52 4h2v2h-2z"/><path d="M54 4h2v2h-2z"/><path d="M56 4h2v2h-2z"/><path d="M58 4h2v2h-2z"/><path d="M60 4h2v2h-2z"/><path d="M62 4h2v2h-2z"/><path d="M64 4h2v2h-2z"/><path d="M66 4h2v2h-2z"/></g><g fill="#46af45"><path d="M68 4h2v2h-2z"/><path d="M70 4h2v2h-2z"/><path d="M72 4h2v2h-2z"/><path d="M74 4h2v2h-2z"/><path d="M76 4h2v2h-2z"/><path d="M78 4h2v2h-2z"/><path d="M80 4h2v2h-2z"/><path d="M82 4h2v2h-2z"/></g><g fill="#a1d685"><path d="M84 4h2v2h-2z"/><path d="M86 4h2v2h-2z"/><path d="M88 4h2v2h-2z"/><path d="M90 4h2v2h-2z"/><path d="M92 4h2v2h-2z"/><path d="M94 4h2v2h-2z"/><path d="M96 4h2v2h-2z"/><path d="M98 4h2v2h-2z"/></g><g fill="#d365c8"><path d="M100 4h2v2h-2z"/><path d="M102 4h2v2h-2z"/><path d="M104 4h2v2h-2z"/><path d="M106 4h2v2h-2z"/><path d="M108 4h2v2h-2z"/><path d="M110 4h2v2h-2z"/><path d="M112 4h2v2h-2z"/><path d="M114 4h2v2h-2z"/></g><g fill="#dc534b"><path d="M116 4h2v2h-2z"/><path d="M118 4h2v2h-2z"/><path d="M120 4h2v2h-2z"/><path d="M122 4h2v2h-2z"/><path d="M124 4h2v2h-2z"/><path d="M126 4h2v2h-2zM0 6h2v2H0z"/><path d="M2 6h2v2H2z"/><path d="M4 6h2v2H4z"/></g><g fill="#d6b97b"><path d="M6 6h2v2H6z"/><path d="M8 6h2v2H8z"/><path d="M10 6h2v2h-2z"/><path d="M12 6h2v2h-2z"/><path d="M14 6h2v2h-2z"/><path d="M16 6h2v2h-2z"/><path d="M18 6h2v2h-2z"/><path d="M20 6h2v2h-2z"/></g><g fill="#e18d79"><path d="M22 6h2v2h-2z"/><path d="M24 6h2v2h-2z"/><path d="M26 6h2v2h-2z"/><path d="M28 6h2v2h-2z"/><path d="M30 6h2v2h-2z"/><path d="M32 6h2v2h-2z"/><path d="M34 6h2v2h-2z"/><path d="M36 6h2v2h-2z"/></g><g fill="#453e78"><path d="M38 6h2v2h-2z"/><path d="M40 6h2v2h-2z"/><path d="M42 6h2v2h-2z"/><path d="M44 6h2v2h-2z"/><path d="M46 6h2v2h-2z"/><path d="M48 6h2v2h-2z"/><path d="M50 6h2v2h-2z"/><path d="M52 6h2v2h-2z"/></g><g fill="#7664fe"><path d="M54 6h2v2h-2z"/><path d="M56 6h2v2h-2z"/><path d="M58 6h2v2h-2z"/><path d="M60 6h2v2h-2z"/><path d="M62 6h2v2h-2z"/><path d="M64 6h2v2h-2z"/><path d="M66 6h2v2h-2z"/><path d="M68 6h2v2h-2z"/></g><g fill="#46af45"><path d="M70 6h2v2h-2z"/><path d="M72 6h2v2h-2z"/><path d="M74 6h2v2h-2z"/><path d="M76 6h2v2h-2z"/><path d="M78 6h2v2h-2z"/><path d="M80 6h2v2h-2z"/><path d="M82 6h2v2h-2z"/><path d="M84 6h2v2h-2z"/></g><g fill="#a1d685"><path d="M86 6h2v2h-2z"/><path d="M88 6h2v2h-2z"/><path d="M90 6h2v2h-2z"/><path d="M92 6h2v2h-2z"/><path d="M94 6h2v2h-2z"/><path d="M96 6h2v2h-2z"/><path d="M98 6h2v2h-2z"/><path d="M100 6h2v2h-2z"/></g><g fill="#d365c8"><path d="M102 6h2v2h-2z"/><path d="M104 6h2v2h-2z"/><path d="M106 6h2v2h-2z"/><path d="M108 6h2v2h-2z"/><path d="M110 6h2v2h-2z"/><path d="M112 6h2v2h-2z"/><path d="M114 6h2v2h-2z"/><path d="M116 6h2v2h-2z"/></g><g fill="#dc534b"><path d="M118 6h2v2h-2z"/><path d="M120 6h2v2h-2z"/><path d="M122 6h2v2h-2z"/><path d="M124 6h2v2h-2z"/><path d="M126 6h2v2h-2z"/></g><path d="M0 8h2v2H0z"/><path d="M2 8h2v2H2z"/><path d="M4 8h2v2H4z"/><path d="M6 8h2v2H6z"/><path d="M8 8h2v2H8z"/><path d="M10 8h2v2h-2z"/><path d="M12 8h2v2h-2z"/><path d="M14 8h2v2h-2z"/><path d="M16 8h2v2h-2z"/><path d="M18 8h2v2h-2z"/><path d="M20 8h2v2h-2z"/><path d="M22 8h2v2h-2z"/><path d="M24 8h2v2h-2z"/><path d="M26 8h2v2h-2z"/><path d="M28 8h2v2h-2z"/><path d="M30 8h2v2h-2z"/><path d="M32 8h2v2h-2z"/><path d="M34 8h2v2h-2z"/><path d="M36 8h2v2h-2z"/><path d="M38 8h2v2h-2z"/><path d="M40 8h2v2h-2z"/><path d="M42 8h2v2h-2z"/><path d="M44 8h2v2h-2z"/><path d="M46 8h2v2h-2z"/><path d="M48 8h2v2h-2z"/><path d="M50 8h2v2h-2z"/><path d="M52 8h2v2h-2z"/><path d="M54 8h2v2h-2z"/><path d="M56 8h2v2h-2z"/><path d="M58 8h2v2h-2z"/><path d="M60 8h2v2h-2z"/><path d="M62 8h2v2h-2z"/><path d="M64 8h2v2h-2z"/><path d="M66 8h2v2h-2z"/><path d="M68 8h2v2h-2z"/><path d="M70 8h2v2h-2z"/><path d="M72 8h2v2h-2z"/><path d="M74 8h2v2h-2z"/><path d="M76 8h2v2h-2z"/><path d="M78 8h2v2h-2z"/><path d="M80 8h2v2h-2z"/><path d="M82 8h2v2h-2z"/><path d="M84 8h2v2h-2z"/><path d="M86 8h2v2h-2z"/><path d="M88 8h2v2h-2z"/><path d="M90 8h2v2h-2z"/><path d="M92 8h2v2h-2z"/><path d="M94 8h2v2h-2z"/><path d="M96 8h2v2h-2z"/><path d="M98 8h2v2h-2z"/><path d="M100 8h2v2h-2z"/><path d="M102 8h2v2h-2z"/><path d="M104 8h2v2h-2z"/><path d="M106 8h2v2h-2z"/><path d="M108 8h2v2h-2z"/><path d="M110 8h2v2h-2z"/><path d="M112 8h2v2h-2z"/><path d="M114 8h2v2h-2z"/><path d="M116 8h2v2h-2z"/><path d="M118 8h2v2h-2z"/><path d="M120 8h2v2h-2z"/><path d="M122 8h2v2h-2z"/><path d="M124 8h2v2h-2z"/><path d="M126 8h2v2h-2z"/><g fill="#f5f4eb"><path d="M0 10h2v2H0z"/><path d="M2 10h2v2H2z"/><path d="M4 10h2v2H4z"/><path d="M6 10h2v2H6z"/><path d="M8 10h2v2H8z"/><path d="M10 10h2v2h-2z"/><path d="M12 10h2v2h-2z"/><path d="M14 10h2v2h-2z"/><path d="M16 10h2v2h-2z"/><path d="M18 10h2v2h-2z"/><path d="M20 10h2v2h-2z"/><path d="M22 10h2v2h-2z"/><path d="M24 10h2v2h-2z"/><path d="M26 10h2v2h-2z"/><path d="M28 10h2v2h-2z"/><path d="M30 10h2v2h-2z"/><path d="M32 10h2v2h-2z"/><path d="M34 10h2v2h-2z"/><path d="M36 10h2v2h-2z"/><path d="M38 10h2v2h-2z"/><path d="M40 10h2v2h-2z"/><path d="M42 10h2v2h-2z"/><path d="M44 10h2v2h-2z"/><path d="M46 10h2v2h-2z"/><path d="M48 10h2v2h-2z"/><path d="M50 10h2v2h-2z"/><path d="M52 10h2v2h-2z"/><path d="M54 10h2v2h-2z"/><path d="M56 10h2v2h-2z"/><path d="M58 10h2v2h-2z"/><path d="M60 10h2v2h-2z"/><path d="M62 10h2v2h-2z"/><path d="M64 10h2v2h-2z"/><path d="M66 10h2v2h-2z"/><path d="M68 10h2v2h-2z"/><path d="M70 10h2v2h-2z"/><path d="M72 10h2v2h-2z"/><path d="M74 10h2v2h-2z"/><path d="M76 10h2v2h-2z"/><path d="M78 10h2v2h-2z"/><path d="M80 10h2v2h-2z"/><path d="M82 10h2v2h-2z"/><path d="M84 10h2v2h-2z"/><path d="M86 10h2v2h-2z"/><path d="M88 10h2v2h-2z"/><path d="M90 10h2v2h-2z"/><path d="M92 10h2v2h-2z"/><path d="M94 10h2v2h-2z"/><path d="M96 10h2v2h-2z"/><path d="M98 10h2v2h-2z"/><path d="M100 10h2v2h-2z"/><path d="M102 10h2v2h-2z"/><path d="M104 10h2v2h-2z"/><path d="M106 10h2v2h-2z"/><path d="M108 10h2v2h-2z"/><path d="M110 10h2v2h-2z"/><path d="M112 10h2v2h-2z"/><path d="M114 10h2v2h-2z"/><path d="M116 10h2v2h-2z"/><path d="M118 10h2v2h-2z"/><path d="M120 10h2v2h-2z"/><path d="M122 10h2v2h-2z"/><path d="M124 10h2v2h-2z"/><path d="M126 10h2v2h-2z"/></g></svg>