<?xml version="1.0" encoding="UTF-8" ?>
<svg version="1.1" width="10" height="10" xmlns="http://www.w3.org/2000/svg" shape-rendering="crispEdges">
<rect x="0" y="0" width="2" height="2" fill="#FFF1E8" />
<rect x="2" y="0" width="2" height="2" fill="#FFF1E8" />
<rect x="4" y="0" width="2" height="2" fill="#FFF1E8" />
<rect x="6" y="0" width="2" height="2" fill="#FFF1E8" />
<rect x="8" y="0" width="2" height="2" fill="#FFF1E8" />
<rect x="0" y="2" width="2" height="2" fill="#FFF1E8" />
<rect x="2" y="2" width="2" height="2" fill="#FFF1E8" />
<rect x="4" y="2" width="2" height="2" fill="#FFF1E8" />
<rect x="6" y="2" width="2" height="2" fill="#FFF1E8" />
<rect x="8" y="2" width="2" height="2" fill="#FFF1E8" />
<rect x="0" y="4" width="2" height="2" fill="#C1C2C6" />
<rect x="2" y="4" width="2" height="2" fill="#FFF1E8" />
<rect x="4" y="4" width="2" height="2" fill="#FFF1E8" />
<rect x="6" y="4" width="2" height="2" fill="#FFF1E8" />
<rect x="8" y="4" width="2" height="2" fill="#C1C2C6" />
<rect x="0" y="6" width="2" height="2" fill="#5F5850" />
<rect x="2" y="6" width="2" height="2" fill="#5F5850" />
<rect x="4" y="6" width="2" height="2" fill="#5F5850" />
<rect x="6" y="6" width="2" height="2" fill="#5F5850" />
<rect x="8" y="6" width="2" height="2" fill="#5F5850" />
<rect x="0" y="8" width="2" height="2" fill="#C1C2C6" />
<rect x="2" y="8" width="2" height="2" fill="#FFF1E8" />
<rect x="4" y="8" width="2" height="2" fill="#FFF1E8" />
<rect x="6" y="8" width="2" height="2" fill="#FFF1E8" />
<rect x="8" y="8" width="2" height="2" fill="#C1C2C6" />
</svg>