<svg xmlns="http://www.w3.org/2000/svg" width="10" height="10" shape-rendering="crispEdges" xmlns:v="https://vecta.io/nano"><g fill="#f5f4eb"><path d="M0 0h2v2H0z"/><path d="M2 0h2v2H2z"/><path d="M4 0h2v2H4z"/><path d="M6 0h2v2H6z"/><path d="M8 0h2v2H8zM0 2h2v2H0z"/><path d="M2 2h2v2H2z"/><path d="M4 2h2v2H4z"/><path d="M6 2h2v2H6z"/><path d="M8 2h2v2H8z"/></g><path fill="#afaab9" d="M0 4h2v2H0z"/><g fill="#f5f4eb"><path d="M2 4h2v2H2z"/><path d="M4 4h2v2H4z"/><path d="M6 4h2v2H6z"/></g><path fill="#afaab9" d="M8 4h2v2H8z"/><g fill="#453e78"><path d="M0 6h2v2H0z"/><path d="M2 6h2v2H2z"/><path d="M4 6h2v2H4z"/><path d="M6 6h2v2H6z"/><path d="M8 6h2v2H8z"/></g><path fill="#afaab9" d="M0 8h2v2H0z"/><g fill="#f5f4eb"><path d="M2 8h2v2H2z"/><path d="M4 8h2v2H4z"/><path d="M6 8h2v2H6z"/></g><path fill="#afaab9" d="M8 8h2v2H8z"/></svg>