<?xml version="1.0" encoding="UTF-8" ?>
<svg version="1.1" width="48" height="48" xmlns="http://www.w3.org/2000/svg" shape-rendering="crispEdges">
<rect x="18" y="0" width="2" height="2" fill="#FFF1E8" />
<rect x="20" y="0" width="2" height="2" fill="#FFF1E8" />
<rect x="22" y="0" width="2" height="2" fill="#FFF1E8" />
<rect x="24" y="0" width="2" height="2" fill="#FFF1E8" />
<rect x="26" y="0" width="2" height="2" fill="#FFF1E8" />
<rect x="28" y="0" width="2" height="2" fill="#FFF1E8" />
<rect x="14" y="2" width="2" height="2" fill="#FFF1E8" />
<rect x="16" y="2" width="2" height="2" fill="#FFF1E8" />
<rect x="18" y="2" width="2" height="2" fill="#000000" />
<rect x="20" y="2" width="2" height="2" fill="#000000" />
<rect x="22" y="2" width="2" height="2" fill="#000000" />
<rect x="24" y="2" width="2" height="2" fill="#000000" />
<rect x="26" y="2" width="2" height="2" fill="#000000" />
<rect x="28" y="2" width="2" height="2" fill="#000000" />
<rect x="30" y="2" width="2" height="2" fill="#FFF1E8" />
<rect x="32" y="2" width="2" height="2" fill="#FFF1E8" />
<rect x="10" y="4" width="2" height="2" fill="#FFF1E8" />
<rect x="12" y="4" width="2" height="2" fill="#FFF1E8" />
<rect x="14" y="4" width="2" height="2" fill="#5F574F" />
<rect x="16" y="4" width="2" height="2" fill="#000000" />
<rect x="18" y="4" width="2" height="2" fill="#FFF1E8" />
<rect x="20" y="4" width="2" height="2" fill="#FFF1E8" />
<rect x="22" y="4" width="2" height="2" fill="#FFF1E8" />
<rect x="24" y="4" width="2" height="2" fill="#FFF1E8" />
<rect x="26" y="4" width="2" height="2" fill="#FFF1E8" />
<rect x="28" y="4" width="2" height="2" fill="#FFF1E8" />
<rect x="30" y="4" width="2" height="2" fill="#000000" />
<rect x="32" y="4" width="2" height="2" fill="#5F574F" />
<rect x="34" y="4" width="2" height="2" fill="#FFF1E8" />
<rect x="36" y="4" width="2" height="2" fill="#FFF1E8" />
<rect x="8" y="6" width="2" height="2" fill="#FFF1E8" />
<rect x="10" y="6" width="2" height="2" fill="#000000" />
<rect x="12" y="6" width="2" height="2" fill="#5F574F" />
<rect x="14" y="6" width="2" height="2" fill="#FFF1E8" />
<rect x="16" y="6" width="2" height="2" fill="#FFF1E8" />
<rect x="30" y="6" width="2" height="2" fill="#FFF1E8" />
<rect x="32" y="6" width="2" height="2" fill="#FFF1E8" />
<rect x="34" y="6" width="2" height="2" fill="#5F574F" />
<rect x="36" y="6" width="2" height="2" fill="#000000" />
<rect x="38" y="6" width="2" height="2" fill="#FFF1E8" />
<rect x="6" y="8" width="2" height="2" fill="#FFF1E8" />
<rect x="8" y="8" width="2" height="2" fill="#000000" />
<rect x="10" y="8" width="2" height="2" fill="#FFF1E8" />
<rect x="12" y="8" width="2" height="2" fill="#FFF1E8" />
<rect x="34" y="8" width="2" height="2" fill="#FFF1E8" />
<rect x="36" y="8" width="2" height="2" fill="#FFF1E8" />
<rect x="38" y="8" width="2" height="2" fill="#000000" />
<rect x="40" y="8" width="2" height="2" fill="#FFF1E8" />
<rect x="4" y="10" width="2" height="2" fill="#FFF1E8" />
<rect x="6" y="10" width="2" height="2" fill="#000000" />
<rect x="8" y="10" width="2" height="2" fill="#FFF1E8" />
<rect x="38" y="10" width="2" height="2" fill="#FFF1E8" />
<rect x="40" y="10" width="2" height="2" fill="#000000" />
<rect x="42" y="10" width="2" height="2" fill="#FFF1E8" />
<rect x="4" y="12" width="2" height="2" fill="#FFF1E8" />
<rect x="6" y="12" width="2" height="2" fill="#5F574F" />
<rect x="8" y="12" width="2" height="2" fill="#FFF1E8" />
<rect x="38" y="12" width="2" height="2" fill="#FFF1E8" />
<rect x="40" y="12" width="2" height="2" fill="#5F574F" />
<rect x="42" y="12" width="2" height="2" fill="#FFF1E8" />
<rect x="2" y="14" width="2" height="2" fill="#FFF1E8" />
<rect x="4" y="14" width="2" height="2" fill="#5F574F" />
<rect x="6" y="14" width="2" height="2" fill="#FFF1E8" />
<rect x="40" y="14" width="2" height="2" fill="#FFF1E8" />
<rect x="42" y="14" width="2" height="2" fill="#5F574F" />
<rect x="44" y="14" width="2" height="2" fill="#FFF1E8" />
<rect x="2" y="16" width="2" height="2" fill="#FFF1E8" />
<rect x="4" y="16" width="2" height="2" fill="#000000" />
<rect x="6" y="16" width="2" height="2" fill="#FFF1E8" />
<rect x="40" y="16" width="2" height="2" fill="#FFF1E8" />
<rect x="42" y="16" width="2" height="2" fill="#000000" />
<rect x="44" y="16" width="2" height="2" fill="#FFF1E8" />
<rect x="0" y="18" width="2" height="2" fill="#FFF1E8" />
<rect x="2" y="18" width="2" height="2" fill="#000000" />
<rect x="4" y="18" width="2" height="2" fill="#FFF1E8" />
<rect x="42" y="18" width="2" height="2" fill="#FFF1E8" />
<rect x="44" y="18" width="2" height="2" fill="#000000" />
<rect x="46" y="18" width="2" height="2" fill="#FFF1E8" />
<rect x="0" y="20" width="2" height="2" fill="#FFF1E8" />
<rect x="2" y="20" width="2" height="2" fill="#000000" />
<rect x="4" y="20" width="2" height="2" fill="#FFF1E8" />
<rect x="42" y="20" width="2" height="2" fill="#FFF1E8" />
<rect x="44" y="20" width="2" height="2" fill="#000000" />
<rect x="46" y="20" width="2" height="2" fill="#FFF1E8" />
<rect x="0" y="22" width="2" height="2" fill="#FFF1E8" />
<rect x="2" y="22" width="2" height="2" fill="#000000" />
<rect x="4" y="22" width="2" height="2" fill="#FFF1E8" />
<rect x="42" y="22" width="2" height="2" fill="#FFF1E8" />
<rect x="44" y="22" width="2" height="2" fill="#000000" />
<rect x="46" y="22" width="2" height="2" fill="#FFF1E8" />
<rect x="0" y="24" width="2" height="2" fill="#FFF1E8" />
<rect x="2" y="24" width="2" height="2" fill="#000000" />
<rect x="4" y="24" width="2" height="2" fill="#FFF1E8" />
<rect x="42" y="24" width="2" height="2" fill="#FFF1E8" />
<rect x="44" y="24" width="2" height="2" fill="#000000" />
<rect x="46" y="24" width="2" height="2" fill="#FFF1E8" />
<rect x="0" y="26" width="2" height="2" fill="#FFF1E8" />
<rect x="2" y="26" width="2" height="2" fill="#000000" />
<rect x="4" y="26" width="2" height="2" fill="#FFF1E8" />
<rect x="42" y="26" width="2" height="2" fill="#FFF1E8" />
<rect x="44" y="26" width="2" height="2" fill="#000000" />
<rect x="46" y="26" width="2" height="2" fill="#FFF1E8" />
<rect x="0" y="28" width="2" height="2" fill="#FFF1E8" />
<rect x="2" y="28" width="2" height="2" fill="#000000" />
<rect x="4" y="28" width="2" height="2" fill="#FFF1E8" />
<rect x="42" y="28" width="2" height="2" fill="#FFF1E8" />
<rect x="44" y="28" width="2" height="2" fill="#000000" />
<rect x="46" y="28" width="2" height="2" fill="#FFF1E8" />
<rect x="2" y="30" width="2" height="2" fill="#FFF1E8" />
<rect x="4" y="30" width="2" height="2" fill="#000000" />
<rect x="6" y="30" width="2" height="2" fill="#FFF1E8" />
<rect x="40" y="30" width="2" height="2" fill="#FFF1E8" />
<rect x="42" y="30" width="2" height="2" fill="#000000" />
<rect x="44" y="30" width="2" height="2" fill="#FFF1E8" />
<rect x="2" y="32" width="2" height="2" fill="#FFF1E8" />
<rect x="4" y="32" width="2" height="2" fill="#5F574F" />
<rect x="6" y="32" width="2" height="2" fill="#FFF1E8" />
<rect x="40" y="32" width="2" height="2" fill="#FFF1E8" />
<rect x="42" y="32" width="2" height="2" fill="#5F574F" />
<rect x="44" y="32" width="2" height="2" fill="#FFF1E8" />
<rect x="4" y="34" width="2" height="2" fill="#FFF1E8" />
<rect x="6" y="34" width="2" height="2" fill="#5F574F" />
<rect x="8" y="34" width="2" height="2" fill="#FFF1E8" />
<rect x="38" y="34" width="2" height="2" fill="#FFF1E8" />
<rect x="40" y="34" width="2" height="2" fill="#5F574F" />
<rect x="42" y="34" width="2" height="2" fill="#FFF1E8" />
<rect x="4" y="36" width="2" height="2" fill="#FFF1E8" />
<rect x="6" y="36" width="2" height="2" fill="#000000" />
<rect x="8" y="36" width="2" height="2" fill="#FFF1E8" />
<rect x="38" y="36" width="2" height="2" fill="#FFF1E8" />
<rect x="40" y="36" width="2" height="2" fill="#000000" />
<rect x="42" y="36" width="2" height="2" fill="#FFF1E8" />
<rect x="6" y="38" width="2" height="2" fill="#FFF1E8" />
<rect x="8" y="38" width="2" height="2" fill="#000000" />
<rect x="10" y="38" width="2" height="2" fill="#FFF1E8" />
<rect x="12" y="38" width="2" height="2" fill="#FFF1E8" />
<rect x="34" y="38" width="2" height="2" fill="#FFF1E8" />
<rect x="36" y="38" width="2" height="2" fill="#FFF1E8" />
<rect x="38" y="38" width="2" height="2" fill="#000000" />
<rect x="40" y="38" width="2" height="2" fill="#FFF1E8" />
<rect x="8" y="40" width="2" height="2" fill="#FFF1E8" />
<rect x="10" y="40" width="2" height="2" fill="#000000" />
<rect x="12" y="40" width="2" height="2" fill="#5F574F" />
<rect x="14" y="40" width="2" height="2" fill="#FFF1E8" />
<rect x="16" y="40" width="2" height="2" fill="#FFF1E8" />
<rect x="30" y="40" width="2" height="2" fill="#FFF1E8" />
<rect x="32" y="40" width="2" height="2" fill="#FFF1E8" />
<rect x="34" y="40" width="2" height="2" fill="#5F574F" />
<rect x="36" y="40" width="2" height="2" fill="#000000" />
<rect x="38" y="40" width="2" height="2" fill="#FFF1E8" />
<rect x="10" y="42" width="2" height="2" fill="#FFF1E8" />
<rect x="12" y="42" width="2" height="2" fill="#FFF1E8" />
<rect x="14" y="42" width="2" height="2" fill="#5F574F" />
<rect x="16" y="42" width="2" height="2" fill="#000000" />
<rect x="18" y="42" width="2" height="2" fill="#FFF1E8" />
<rect x="20" y="42" width="2" height="2" fill="#FFF1E8" />
<rect x="22" y="42" width="2" height="2" fill="#FFF1E8" />
<rect x="24" y="42" width="2" height="2" fill="#FFF1E8" />
<rect x="26" y="42" width="2" height="2" fill="#FFF1E8" />
<rect x="28" y="42" width="2" height="2" fill="#FFF1E8" />
<rect x="30" y="42" width="2" height="2" fill="#000000" />
<rect x="32" y="42" width="2" height="2" fill="#5F574F" />
<rect x="34" y="42" width="2" height="2" fill="#FFF1E8" />
<rect x="36" y="42" width="2" height="2" fill="#FFF1E8" />
<rect x="14" y="44" width="2" height="2" fill="#FFF1E8" />
<rect x="16" y="44" width="2" height="2" fill="#FFF1E8" />
<rect x="18" y="44" width="2" height="2" fill="#000000" />
<rect x="20" y="44" width="2" height="2" fill="#000000" />
<rect x="22" y="44" width="2" height="2" fill="#000000" />
<rect x="24" y="44" width="2" height="2" fill="#000000" />
<rect x="26" y="44" width="2" height="2" fill="#000000" />
<rect x="28" y="44" width="2" height="2" fill="#000000" />
<rect x="30" y="44" width="2" height="2" fill="#FFF1E8" />
<rect x="32" y="44" width="2" height="2" fill="#FFF1E8" />
<rect x="18" y="46" width="2" height="2" fill="#FFF1E8" />
<rect x="20" y="46" width="2" height="2" fill="#FFF1E8" />
<rect x="22" y="46" width="2" height="2" fill="#FFF1E8" />
<rect x="24" y="46" width="2" height="2" fill="#FFF1E8" />
<rect x="26" y="46" width="2" height="2" fill="#FFF1E8" />
<rect x="28" y="46" width="2" height="2" fill="#FFF1E8" />
</svg>