<?xml version="1.0" encoding="UTF-8" ?>
<svg version="1.1" width="16" height="16" xmlns="http://www.w3.org/2000/svg" shape-rendering="crispEdges">
<rect x="0" y="0" width="2" height="2" fill="#FFF1E8" />
<rect x="2" y="0" width="2" height="2" fill="#FFF1E8" />
<rect x="4" y="0" width="2" height="2" fill="#FFF1E8" />
<rect x="6" y="0" width="2" height="2" fill="#FFF1E8" />
<rect x="8" y="0" width="2" height="2" fill="#FFF1E8" />
<rect x="10" y="0" width="2" height="2" fill="#FFF1E8" />
<rect x="12" y="0" width="2" height="2" fill="#FFF1E8" />
<rect x="0" y="2" width="2" height="2" fill="#FFF1E8" />
<rect x="2" y="2" width="2" height="2" fill="#FF004D" />
<rect x="4" y="2" width="2" height="2" fill="#FF004D" />
<rect x="6" y="2" width="2" height="2" fill="#FFF1E8" />
<rect x="8" y="2" width="2" height="2" fill="#FF004D" />
<rect x="10" y="2" width="2" height="2" fill="#FF004D" />
<rect x="12" y="2" width="2" height="2" fill="#FFF1E8" />
<rect x="0" y="4" width="2" height="2" fill="#FFF1E8" />
<rect x="2" y="4" width="2" height="2" fill="#FF004D" />
<rect x="4" y="4" width="2" height="2" fill="#FF004D" />
<rect x="6" y="4" width="2" height="2" fill="#C2C3C7" />
<rect x="8" y="4" width="2" height="2" fill="#FF004D" />
<rect x="10" y="4" width="2" height="2" fill="#FF004D" />
<rect x="12" y="4" width="2" height="2" fill="#FFF1E8" />
<rect x="0" y="6" width="2" height="2" fill="#FFF1E8" />
<rect x="2" y="6" width="2" height="2" fill="#FF004D" />
<rect x="4" y="6" width="2" height="2" fill="#FF004D" />
<rect x="6" y="6" width="2" height="2" fill="#FF004D" />
<rect x="8" y="6" width="2" height="2" fill="#FF004D" />
<rect x="10" y="6" width="2" height="2" fill="#FF004D" />
<rect x="12" y="6" width="2" height="2" fill="#FFF1E8" />
<rect x="14" y="6" width="2" height="2" fill="#FFF1E8" />
<rect x="0" y="8" width="2" height="2" fill="#FFF1E8" />
<rect x="2" y="8" width="2" height="2" fill="#FF004D" />
<rect x="4" y="8" width="2" height="2" fill="#FF004D" />
<rect x="6" y="8" width="2" height="2" fill="#7E2553" />
<rect x="8" y="8" width="2" height="2" fill="#7E2553" />
<rect x="10" y="8" width="2" height="2" fill="#FF004D" />
<rect x="12" y="8" width="2" height="2" fill="#FF004D" />
<rect x="14" y="8" width="2" height="2" fill="#FFF1E8" />
<rect x="0" y="10" width="2" height="2" fill="#FFF1E8" />
<rect x="2" y="10" width="2" height="2" fill="#FF004D" />
<rect x="4" y="10" width="2" height="2" fill="#FF004D" />
<rect x="6" y="10" width="2" height="2" fill="#C2C3C7" />
<rect x="8" y="10" width="2" height="2" fill="#C2C3C7" />
<rect x="10" y="10" width="2" height="2" fill="#7E2553" />
<rect x="12" y="10" width="2" height="2" fill="#7E2553" />
<rect x="14" y="10" width="2" height="2" fill="#FFF1E8" />
<rect x="0" y="12" width="2" height="2" fill="#FFF1E8" />
<rect x="2" y="12" width="2" height="2" fill="#7E2553" />
<rect x="4" y="12" width="2" height="2" fill="#7E2553" />
<rect x="6" y="12" width="2" height="2" fill="#FFF1E8" />
<rect x="8" y="12" width="2" height="2" fill="#FFF1E8" />
<rect x="10" y="12" width="2" height="2" fill="#FFF1E8" />
<rect x="12" y="12" width="2" height="2" fill="#FFF1E8" />
<rect x="14" y="12" width="2" height="2" fill="#FFF1E8" />
<rect x="0" y="14" width="2" height="2" fill="#FFF1E8" />
<rect x="2" y="14" width="2" height="2" fill="#FFF1E8" />
<rect x="4" y="14" width="2" height="2" fill="#FFF1E8" />
<rect x="6" y="14" width="2" height="2" fill="#FFF1E8" />
</svg>